<svg width="154" height="171" viewBox="0 0 154 171" fill="none" xmlns="http://www.w3.org/2000/svg">
<g clip-path="url(#clip0_320_12)">
<path d="M53.464 70.856V76.744C53.464 87.112 56.664 91.976 58.072 97.864C60.376 108.232 51.928 109 45.272 109H37.848C31.192 109 22.616 108.232 25.048 97.864C26.456 91.976 29.656 87.112 29.656 76.744V48.328C29.656 37.96 26.456 32.968 25.048 27.208C22.616 16.84 31.192 16.072 37.848 16.072H68.568C82.904 16.072 92.376 25.544 92.376 42.184C92.376 58.824 82.904 68.296 68.568 68.296H56.024C54.616 68.296 53.464 69.448 53.464 70.856ZM56.024 61.64C63.704 61.64 67.16 53.064 67.16 42.184C67.16 31.816 63.96 22.856 56.024 22.856C54.616 22.856 53.464 23.624 53.464 25.16V59.208C53.464 60.744 54.616 61.64 56.024 61.64Z" fill="black"/>
<circle cx="68.5" cy="79.5" r="6.5" fill="black"/>
<circle cx="117.5" cy="79.5" r="6.5" fill="black"/>
<path d="M102.104 92.568H112.856C114.776 92.568 116.184 93.976 116.184 95.896C116.184 97.944 114.776 99.224 112.856 99.224H102.104C101.208 99.224 100.44 99.864 100.44 100.76V142.616C100.44 146.2 100.44 152.472 105.816 152.472C109.784 152.472 104.664 148.888 104.664 143.128C104.664 138.136 108.632 135.96 112.472 135.96C117.336 135.96 120.536 139.288 120.536 145.432C120.536 156.056 110.552 160.28 99.672 160.28C84.568 160.28 77.912 152.088 77.912 133.912V100.76C77.912 99.864 77.272 99.224 76.376 99.224H74.2C72.152 99.224 70.872 97.944 70.872 95.896C70.872 93.976 72.152 92.568 74.2 92.568H77.912C85.08 92.568 85.848 73.368 92.888 73.368H95.704C101.08 73.368 100.44 76.952 100.44 82.2V91.032C100.44 91.928 101.208 92.568 102.104 92.568Z" fill="black"/>
</g>
<defs>
<clipPath id="clip0_320_12">
<rect width="154" height="171" fill="white"/>
</clipPath>
</defs>
</svg>
