<svg width="519" height="519" viewBox="0 0 519 519" fill="none" xmlns="http://www.w3.org/2000/svg">
<path d="M472.685 133.289C470.962 130.466 469.17 127.698 467.309 124.985C442.397 88.8838 400.928 64.169 360.633 52.9379C343.057 48.1253 324.975 45.3974 306.761 44.8103C188.076 40.5545 144.48 137.057 106.24 161.938C68.0003 186.819 9.34292 229.398 16.692 318.666C22.2764 386.551 61.4298 451.457 132.948 480.988C141.034 484.333 149.327 487.152 157.777 489.427C174.903 494.002 192.483 496.669 210.196 497.378C264.255 499.745 308.162 486.895 351.104 454.53C361.09 447.004 371.013 438.513 383.968 437.59C393.382 436.915 402.309 440.247 392.469 449.225C380.905 459.772 394.254 480.521 423.609 466.103C472.644 442.032 492.823 390.091 502.331 337.277C513.998 272.454 508.341 191.833 472.685 133.289Z" fill="black"/>
<path opacity="0.7" d="M472.685 133.289C470.962 130.466 469.17 127.698 467.309 124.985C442.397 88.8838 400.928 64.169 360.633 52.9379C343.057 48.1253 324.975 45.3974 306.761 44.8103C188.076 40.5545 144.48 137.057 106.24 161.938C68.0003 186.819 9.34292 229.398 16.692 318.666C22.2764 386.551 61.4298 451.457 132.948 480.988C141.034 484.333 149.327 487.152 157.777 489.427C174.903 494.002 192.483 496.669 210.196 497.378C264.255 499.745 308.162 486.895 351.104 454.53C361.09 447.004 371.013 438.513 383.967 437.59C393.382 436.915 402.309 440.247 392.469 449.226C380.905 459.772 394.254 480.521 423.609 466.103C472.644 442.032 492.823 390.091 502.331 337.277C513.998 272.454 508.341 191.833 472.685 133.289Z" fill="black"/>
<g opacity="0.3" filter="url(#filter0_d_518_139)">
<path d="M158.514 461.64C158.514 461.64 128.713 422.798 118.769 421.895C108.825 420.992 113.351 431.828 123.285 439.956C133.218 448.083 142.207 456.211 142.207 456.211C142.207 456.211 110.6 440.859 100.687 447.18C90.7744 453.502 122.361 460.737 122.361 460.737C122.361 460.737 94.3348 466.155 100.687 470.67C107.04 475.186 131.391 468.864 131.391 468.864L115.136 484.216H174.749L158.514 461.64Z" fill="#263238"/>
<path d="M158.514 461.64C158.514 461.64 128.713 422.798 118.769 421.895C108.825 420.992 113.351 431.828 123.285 439.956C133.218 448.083 142.207 456.211 142.207 456.211C142.207 456.211 110.6 440.859 100.687 447.18C90.7744 453.502 122.361 460.737 122.361 460.737C122.361 460.737 94.3348 466.155 100.687 470.67C107.04 475.186 131.391 468.864 131.391 468.864L115.136 484.216H174.749L158.514 461.64Z" stroke="#263238" stroke-linecap="round" stroke-linejoin="round"/>
</g>
<g opacity="0.3" filter="url(#filter1_d_518_139)">
<path d="M401.47 461.64C401.47 461.64 431.281 422.798 441.215 421.895C451.149 420.992 446.633 431.828 436.7 439.956C426.766 448.083 417.725 456.211 417.725 456.211C417.725 456.211 449.342 440.859 459.245 447.18C469.148 453.502 437.572 460.737 437.572 460.737C437.572 460.737 465.598 466.155 459.245 470.67C452.892 475.186 428.541 468.864 428.541 468.864L444.796 484.216H385.215L401.47 461.64Z" fill="#263238"/>
<path d="M401.47 461.64C401.47 461.64 431.281 422.798 441.215 421.895C451.149 420.992 446.633 431.828 436.7 439.956C426.766 448.083 417.725 456.211 417.725 456.211C417.725 456.211 449.342 440.859 459.245 447.18C469.148 453.502 437.572 460.737 437.572 460.737C437.572 460.737 465.598 466.155 459.245 470.67C452.892 475.186 428.541 468.864 428.541 468.864L444.796 484.216H385.215L401.47 461.64Z" stroke="#263238" stroke-linecap="round" stroke-linejoin="round"/>
</g>
<g opacity="0.3" filter="url(#filter2_d_518_139)">
<path d="M123.439 89.1646C123.512 89.1646 120.668 84.5351 120.45 84.2652C117.99 81.1512 111.378 76.5529 107.205 78.1099C106.518 78.3867 105.897 78.8051 105.382 79.3379C104.868 79.8707 104.471 80.506 104.219 81.2022C103.966 81.8985 103.863 82.6402 103.916 83.379C103.969 84.1178 104.177 84.8371 104.527 85.4901C105.918 88.3134 109.488 89.8393 112.405 90.3998C115.831 91.0641 123.429 89.1646 123.439 89.1646Z" fill="black"/>
<path d="M67.406 145.123C70.6341 143.784 75.9279 138.012 75.9279 138.002C75.9279 137.992 71.0597 135.677 70.7379 135.563C66.9492 134.317 58.9151 134.141 56.289 137.742C55.8693 138.352 55.5826 139.044 55.4477 139.771C55.3128 140.499 55.3326 141.247 55.5059 141.967C55.6792 142.687 56.0021 143.362 56.4536 143.948C56.905 144.535 57.475 145.02 58.1262 145.372C60.8458 146.96 64.6656 146.264 67.406 145.123Z" fill="black"/>
<path d="M52.1999 109.945C52.4291 109.24 52.8042 108.591 53.3008 108.041C53.7974 107.491 54.4043 107.052 55.0821 106.752C55.7598 106.453 56.4932 106.299 57.2342 106.302C57.9753 106.305 58.7074 106.464 59.3829 106.768C62.2893 107.962 64.0643 111.408 64.822 114.284C65.5798 117.159 64.6663 123.47 64.4172 125.016C65.2476 126.054 66.1611 127.092 67.1887 128.286C69.0156 130.362 71.1019 132.615 73.5308 134.961C74.1744 135.583 74.8906 136.227 75.6068 136.86C74.6726 135.552 73.4063 133.746 73.3129 133.538C71.4237 130.03 69.8459 122.12 72.9392 118.923C73.4678 118.405 74.0995 118.004 74.7933 117.745C75.487 117.487 76.2273 117.377 76.9662 117.423C77.7051 117.469 78.4261 117.67 79.0825 118.012C79.7388 118.355 80.3158 118.831 80.7761 119.411C82.8521 121.819 82.7898 125.639 82.1462 128.598C81.5027 131.556 77.6517 136.839 76.8005 137.94C78.3368 139.33 79.9145 140.732 81.731 142.092C84.9176 144.587 88.3181 146.796 91.8931 148.693L92.0488 148.496C91.0108 147.385 88.9348 145.008 88.8206 144.79C86.5681 141.51 84.1288 133.839 86.8484 130.31C87.3171 129.737 87.9012 129.268 88.5628 128.934C89.2244 128.601 89.9488 128.411 90.6888 128.375C91.4288 128.34 92.168 128.461 92.8583 128.73C93.5486 128.999 94.1746 129.41 94.6957 129.937C96.9793 132.096 97.3841 135.957 97.0623 138.905C96.6886 142.32 92.7961 148.797 92.6508 149.036C96.2627 150.828 99.9865 152.384 103.799 153.696C106.612 154.672 109.498 155.554 112.404 156.406C111.677 155.648 108.958 152.523 108.792 152.254C106.529 148.974 104.09 141.313 106.809 137.773C107.278 137.2 107.862 136.731 108.524 136.398C109.185 136.064 109.91 135.874 110.65 135.839C111.39 135.803 112.129 135.924 112.819 136.193C113.509 136.462 114.135 136.873 114.656 137.4C116.95 139.559 117.355 143.42 117.023 146.379C116.66 149.7 112.964 155.928 112.643 156.447L116.608 157.61C120.936 158.835 125.286 160.049 129.541 161.378C131.015 161.845 132.448 162.353 133.88 162.852C132.842 161.679 130.943 159.509 130.766 159.302C128.514 156.022 126.074 148.361 128.794 144.832C129.261 144.256 129.844 143.785 130.505 143.45C131.167 143.115 131.891 142.923 132.632 142.886C133.372 142.85 134.112 142.971 134.803 143.24C135.494 143.509 136.12 143.92 136.641 144.448C138.925 146.617 139.33 150.468 139.008 153.427C138.686 156.385 135.686 161.731 134.856 163.184C137.243 164.035 139.6 164.938 141.873 165.934C142.838 166.381 143.855 166.775 144.769 167.263L147.509 168.664C149.357 169.702 151.069 170.616 152.751 171.612C153.613 172.111 154.412 172.65 155.242 173.086C153.986 172.048 152.035 170.398 151.869 170.232C149.139 167.325 145.568 160.122 147.717 156.219C148.092 155.581 148.598 155.029 149.2 154.599C149.803 154.169 150.49 153.872 151.215 153.725C151.941 153.578 152.689 153.585 153.412 153.747C154.134 153.908 154.814 154.22 155.408 154.662C155.731 154.879 156.03 155.13 156.301 155.409C159.706 156.245 162.84 157.939 165.404 160.329C165.581 160.506 167.48 162.883 168.404 164.118C167.885 162.945 167.366 161.793 166.795 160.589C165.996 158.855 165.093 157.049 164.221 155.285L162.768 152.575C162.29 151.641 161.73 150.811 161.19 149.918C160.391 148.621 159.508 147.323 158.616 146.015C156.903 146.939 151.817 149.565 148.942 149.783C146.066 150.001 142.132 149.482 140.046 147.126C139.536 146.588 139.145 145.95 138.899 145.251C138.652 144.552 138.556 143.81 138.615 143.071C138.675 142.333 138.89 141.615 139.245 140.965C139.601 140.315 140.089 139.748 140.679 139.299C144.291 136.694 151.879 139.382 155.087 141.739C155.19 141.822 155.813 142.393 156.55 143.067C155.647 141.832 154.754 140.586 153.789 139.362C151.08 135.874 148.215 132.417 145.35 128.982L143.575 126.791C142.132 127.58 136.652 130.466 133.641 130.705C130.631 130.943 126.832 130.404 124.746 128.047C124.235 127.511 123.844 126.872 123.596 126.174C123.349 125.476 123.251 124.734 123.31 123.995C123.369 123.257 123.583 122.539 123.937 121.889C124.292 121.238 124.78 120.67 125.369 120.221C128.991 117.616 136.569 120.294 139.776 122.66C139.89 122.743 140.638 123.418 141.468 124.196C139.942 122.276 138.437 120.356 137.015 118.394C134.543 115.047 132.3 111.538 130.299 107.889C129.79 108.18 123.428 111.689 120.075 111.948C117.116 112.176 113.276 111.647 111.189 109.291C110.679 108.754 110.287 108.116 110.04 107.418C109.793 106.719 109.695 105.977 109.754 105.239C109.813 104.5 110.026 103.782 110.381 103.132C110.736 102.482 111.223 101.913 111.812 101.464C115.435 98.8589 123.012 101.547 126.22 103.904C126.448 104.07 129.126 106.561 130.05 107.485C130.05 107.485 130.05 107.391 129.977 107.35C128.095 103.723 126.545 99.9322 125.348 96.0251C124.246 92.5494 123.355 89.0103 122.68 85.4272C122.005 82.1056 121.642 79.0227 121.268 76.3031C121.092 74.8188 120.967 73.4694 120.853 72.1511L120.791 72.2238C120.791 72.2757 118.134 67.532 117.999 67.2103C116.494 63.5254 115.757 55.512 119.161 52.6783C119.74 52.2247 120.407 51.8969 121.119 51.7157C121.832 51.5345 122.574 51.504 123.299 51.6261C124.024 51.7483 124.715 52.0203 125.329 52.4249C125.943 52.8295 126.465 53.3577 126.863 53.9758C128.638 56.5811 128.213 60.4321 127.258 63.2451C126.303 66.0581 122.068 70.8225 121.03 71.9747C121.165 73.2826 121.331 74.6839 121.538 76.2305C121.933 78.9397 122.41 82.0018 123.147 85.2922C123.344 86.1745 123.583 87.1087 123.812 88.0222C123.749 86.4029 123.708 84.1919 123.729 83.974C124.092 80.0088 127.123 72.556 131.482 71.5906C132.206 71.4545 132.95 71.4714 133.667 71.6403C134.383 71.8091 135.057 72.1263 135.644 72.5712C136.23 73.0161 136.717 73.5789 137.073 74.2235C137.429 74.868 137.646 75.58 137.71 76.3135C138.084 79.4275 135.925 82.6661 133.787 84.7317C131.648 86.7973 125.483 89.1224 124.154 89.5999C124.673 91.6136 125.254 93.6689 125.981 95.8279C127.251 99.6585 128.859 103.368 130.787 106.914L131.026 106.841C130.797 105.357 130.382 102.232 130.382 101.973C130.309 97.987 132.458 90.2539 136.724 88.8007C137.431 88.5814 138.177 88.5132 138.912 88.6004C139.647 88.6877 140.356 88.9286 140.992 89.3073C141.628 89.6861 142.178 90.1943 142.605 90.799C143.032 91.4038 143.327 92.0915 143.471 92.8177C144.188 95.9317 142.433 99.326 140.492 101.61C138.302 104.246 131.482 107.505 131.223 107.63C133.249 111.102 135.496 114.441 137.949 117.626C139.755 120.003 141.686 122.318 143.637 124.632C143.451 123.594 142.9 119.442 142.89 119.204C142.817 115.218 145.018 107.485 149.232 106.031C149.939 105.81 150.685 105.741 151.421 105.828C152.157 105.914 152.866 106.155 153.503 106.534C154.139 106.913 154.689 107.422 155.115 108.027C155.542 108.633 155.836 109.322 155.979 110.049C156.695 113.163 154.941 116.557 153.011 118.84C150.872 121.415 144.354 124.56 143.793 124.83C144.686 125.868 145.568 126.906 146.471 127.944C149.398 131.359 152.357 134.774 155.17 138.23C156.145 139.424 157.059 140.638 157.983 141.853C157.744 140.285 157.37 137.441 157.36 137.192C157.287 133.206 159.488 125.473 163.702 124.03C164.408 123.808 165.154 123.737 165.89 123.822C166.625 123.907 167.335 124.146 167.972 124.524C168.609 124.903 169.158 125.411 169.585 126.016C170.012 126.622 170.306 127.31 170.449 128.037C171.165 131.151 169.411 134.545 167.48 136.829C165.55 139.113 160.142 141.894 158.605 142.652C160.121 144.728 161.584 146.731 162.934 148.818C163.494 149.731 164.127 150.624 164.615 151.527L166.131 154.205C167.107 156.073 168.02 157.807 168.882 159.561C169.317 160.454 169.712 161.295 170.138 162.166C169.66 160.62 168.944 158.149 168.902 157.921C168.228 153.997 169.224 146.015 173.179 143.95C173.843 143.624 174.569 143.443 175.309 143.417C176.048 143.391 176.785 143.522 177.471 143.8C178.156 144.078 178.776 144.498 179.288 145.032C179.801 145.565 180.195 146.201 180.445 146.898C181.618 149.814 180.372 153.489 178.836 156.032C177.144 158.845 171.394 162.831 170.688 163.298C171.726 165.374 172.66 167.45 173.532 169.464C175.141 173.086 176.5 176.366 177.684 179.231L174.86 179.875C173.822 177.114 172.587 173.969 171.144 170.533C170.397 168.737 169.577 166.858 168.715 164.928C167.927 165.218 161.792 167.44 158.429 167.377C157.836 169.545 157.119 171.676 156.28 173.761C158.294 174.975 160.245 176.18 162.051 177.342C164.294 178.775 166.37 180.145 168.279 181.411L164.605 182.262C163.352 181.39 162.031 180.487 160.64 179.553C159.031 178.515 157.308 177.352 155.522 176.211C155.003 176.916 150.841 182.532 147.987 184.131C145.392 185.584 141.676 186.705 138.79 185.438C138.103 185.163 137.481 184.747 136.965 184.216C136.449 183.685 136.05 183.051 135.795 182.357C135.539 181.662 135.433 180.921 135.482 180.182C135.531 179.444 135.735 178.723 136.081 178.069C138.281 174.187 146.284 173.45 150.187 174.249C150.436 174.249 153.301 175.287 154.785 175.754C153.747 175.069 152.637 174.394 151.495 173.678C149.865 172.64 148.122 171.664 146.43 170.678L143.71 169.225C142.797 168.706 141.873 168.332 140.939 167.865C139.548 167.232 138.094 166.63 136.641 166.038C135.717 167.761 132.915 172.754 130.642 174.519C128.368 176.283 124.798 178.027 121.756 177.207C121.035 177.04 120.358 176.723 119.767 176.277C119.177 175.83 118.687 175.264 118.329 174.616C117.972 173.968 117.755 173.252 117.693 172.514C117.631 171.777 117.724 171.035 117.968 170.336C119.545 166.184 127.31 164.222 131.327 164.419L133.289 164.72C131.846 164.191 130.413 163.682 128.939 163.153C124.787 161.741 120.448 160.433 116.141 159.104L113.463 158.264C112.684 159.706 109.705 165.146 107.328 167.004C104.951 168.862 101.484 170.502 98.4429 169.692C97.7209 169.526 97.042 169.21 96.4504 168.764C95.8588 168.318 95.3678 167.753 95.0093 167.104C94.6509 166.456 94.4331 165.739 94.3701 165.001C94.3071 164.263 94.4004 163.52 94.6438 162.82C96.2215 158.668 103.986 156.696 108.003 156.904C108.148 156.904 109.145 157.07 110.266 157.257C107.93 156.499 105.615 155.721 103.353 154.869C99.4377 153.446 95.6231 151.76 91.9346 149.825C91.6647 150.333 88.2912 156.779 85.6443 158.845C83.2984 160.672 79.8107 162.343 76.7694 161.533C76.0483 161.366 75.3704 161.049 74.7797 160.603C74.189 160.156 73.6986 159.591 73.3404 158.943C72.9822 158.295 72.7642 157.579 72.7004 156.842C72.6367 156.104 72.7286 155.361 72.9703 154.662C74.5481 150.51 82.3123 148.548 86.3294 148.756C86.6096 148.756 90.2219 149.368 91.5194 149.617L91.3948 149.555C87.8223 147.568 84.4352 145.265 81.2743 142.673C78.4433 140.37 75.7469 137.905 73.1987 135.293C70.8113 132.895 68.7768 130.549 66.9707 128.463C66.0157 127.321 65.1542 126.262 64.3653 125.266V125.359C64.3653 125.359 59.5594 122.92 59.2687 122.723C55.9679 120.491 50.9336 114.18 52.1999 109.945Z" fill="black"/>
<path opacity="0.3" d="M67.406 145.123C70.6341 143.784 75.9279 138.012 75.9279 138.002C75.9279 137.992 71.0597 135.677 70.7379 135.563C66.9492 134.317 58.9151 134.141 56.289 137.742C55.8693 138.352 55.5826 139.044 55.4477 139.771C55.3128 140.499 55.3326 141.247 55.5059 141.967C55.6792 142.687 56.0021 143.362 56.4536 143.948C56.905 144.535 57.475 145.02 58.1262 145.372C60.8458 146.96 64.6656 146.264 67.406 145.123Z" fill="black"/>
<path opacity="0.3" d="M123.439 89.1646C123.512 89.1646 120.668 84.5351 120.45 84.2652C117.99 81.1512 111.378 76.5529 107.205 78.1099C106.518 78.3867 105.897 78.8051 105.382 79.3379C104.868 79.8707 104.471 80.506 104.219 81.2022C103.966 81.8985 103.863 82.6402 103.916 83.379C103.969 84.1178 104.177 84.8371 104.527 85.4901C105.918 88.3134 109.488 89.8393 112.405 90.3998C115.831 91.0641 123.429 89.1646 123.439 89.1646Z" fill="black"/>
<path opacity="0.3" d="M52.1999 109.945C52.4291 109.24 52.8042 108.591 53.3008 108.041C53.7974 107.491 54.4043 107.052 55.0821 106.752C55.7598 106.453 56.4932 106.299 57.2342 106.302C57.9753 106.305 58.7074 106.464 59.3829 106.768C62.2893 107.962 64.0643 111.408 64.822 114.284C65.5798 117.159 64.6663 123.47 64.4172 125.016C65.2476 126.054 66.1611 127.092 67.1887 128.286C69.0156 130.362 71.1019 132.615 73.5308 134.961C74.1744 135.583 74.8906 136.227 75.6068 136.86C74.6726 135.552 73.4063 133.746 73.3129 133.538C71.4237 130.03 69.8459 122.12 72.9392 118.923C73.4678 118.405 74.0995 118.004 74.7933 117.745C75.487 117.487 76.2273 117.377 76.9662 117.423C77.7051 117.469 78.4261 117.67 79.0825 118.012C79.7388 118.355 80.3158 118.831 80.7761 119.411C82.8521 121.819 82.7898 125.639 82.1462 128.598C81.5027 131.556 77.6517 136.839 76.8005 137.94C78.3368 139.33 79.9145 140.732 81.731 142.092C84.9176 144.587 88.3181 146.796 91.8931 148.693L92.0488 148.496C91.0108 147.385 88.9348 145.008 88.8206 144.79C86.5681 141.51 84.1288 133.839 86.8484 130.31C87.3171 129.737 87.9012 129.268 88.5628 128.934C89.2244 128.601 89.9488 128.411 90.6888 128.375C91.4288 128.34 92.168 128.461 92.8583 128.73C93.5486 128.999 94.1746 129.41 94.6957 129.937C96.9793 132.096 97.3841 135.957 97.0623 138.905C96.6886 142.32 92.7961 148.797 92.6508 149.036C96.2627 150.828 99.9865 152.384 103.799 153.696C106.612 154.672 109.498 155.554 112.404 156.406C111.677 155.648 108.958 152.523 108.792 152.254C106.529 148.974 104.09 141.313 106.809 137.773C107.278 137.2 107.862 136.731 108.524 136.398C109.185 136.064 109.91 135.874 110.65 135.839C111.39 135.803 112.129 135.924 112.819 136.193C113.509 136.462 114.135 136.873 114.656 137.4C116.95 139.559 117.355 143.42 117.023 146.379C116.66 149.7 112.964 155.928 112.643 156.447L116.608 157.61C120.936 158.835 125.286 160.049 129.541 161.378C131.015 161.845 132.448 162.353 133.88 162.852C132.842 161.679 130.943 159.509 130.766 159.302C128.514 156.022 126.074 148.361 128.794 144.832C129.261 144.256 129.844 143.785 130.505 143.45C131.167 143.115 131.891 142.923 132.632 142.886C133.372 142.85 134.112 142.971 134.803 143.24C135.494 143.509 136.12 143.92 136.641 144.448C138.925 146.617 139.33 150.468 139.008 153.427C138.686 156.385 135.686 161.731 134.856 163.184C137.243 164.035 139.6 164.938 141.873 165.934C142.838 166.381 143.855 166.775 144.769 167.263L147.509 168.664C149.357 169.702 151.069 170.616 152.751 171.612C153.613 172.111 154.412 172.65 155.242 173.086C153.986 172.048 152.035 170.398 151.869 170.232C149.139 167.325 145.568 160.122 147.717 156.219C148.092 155.581 148.598 155.029 149.2 154.599C149.803 154.169 150.49 153.872 151.215 153.725C151.941 153.578 152.689 153.585 153.412 153.747C154.134 153.908 154.814 154.22 155.408 154.662C155.731 154.879 156.03 155.13 156.301 155.409C159.706 156.245 162.84 157.939 165.404 160.329C165.581 160.506 167.48 162.883 168.404 164.118C167.885 162.945 167.366 161.793 166.795 160.589C165.996 158.855 165.093 157.049 164.221 155.285L162.768 152.575C162.29 151.641 161.73 150.811 161.19 149.918C160.391 148.621 159.508 147.323 158.616 146.015C156.903 146.939 151.817 149.565 148.942 149.783C146.066 150.001 142.132 149.482 140.046 147.126C139.536 146.588 139.145 145.95 138.899 145.251C138.652 144.552 138.556 143.81 138.615 143.071C138.675 142.333 138.89 141.615 139.245 140.965C139.601 140.315 140.089 139.748 140.679 139.299C144.291 136.694 151.879 139.382 155.087 141.739C155.19 141.822 155.813 142.393 156.55 143.067C155.647 141.832 154.754 140.586 153.789 139.362C151.08 135.874 148.215 132.417 145.35 128.982L143.575 126.791C142.132 127.58 136.652 130.466 133.641 130.705C130.631 130.943 126.832 130.404 124.746 128.047C124.235 127.511 123.844 126.872 123.596 126.174C123.349 125.476 123.251 124.734 123.31 123.995C123.369 123.257 123.583 122.539 123.937 121.889C124.292 121.238 124.78 120.67 125.369 120.221C128.991 117.616 136.569 120.294 139.776 122.66C139.89 122.743 140.638 123.418 141.468 124.196C139.942 122.276 138.437 120.356 137.015 118.394C134.543 115.047 132.3 111.538 130.299 107.889C129.79 108.18 123.428 111.689 120.075 111.948C117.116 112.176 113.276 111.647 111.189 109.291C110.679 108.754 110.287 108.116 110.04 107.418C109.793 106.719 109.695 105.977 109.754 105.239C109.813 104.5 110.026 103.782 110.381 103.132C110.736 102.482 111.223 101.913 111.812 101.464C115.435 98.8589 123.012 101.547 126.22 103.904C126.448 104.07 129.126 106.561 130.05 107.485C130.05 107.485 130.05 107.391 129.977 107.35C128.095 103.723 126.545 99.9322 125.348 96.0251C124.246 92.5494 123.355 89.0103 122.68 85.4272C122.005 82.1056 121.642 79.0227 121.268 76.3031C121.092 74.8188 120.967 73.4694 120.853 72.1511L120.791 72.2238C120.791 72.2757 118.134 67.532 117.999 67.2103C116.494 63.5254 115.757 55.512 119.161 52.6783C119.74 52.2247 120.407 51.8969 121.119 51.7157C121.832 51.5345 122.574 51.504 123.299 51.6261C124.024 51.7483 124.715 52.0203 125.329 52.4249C125.943 52.8295 126.465 53.3577 126.863 53.9758C128.638 56.5811 128.213 60.4321 127.258 63.2451C126.303 66.0581 122.068 70.8225 121.03 71.9747C121.165 73.2826 121.331 74.6839 121.538 76.2305C121.933 78.9397 122.41 82.0018 123.147 85.2922C123.344 86.1745 123.583 87.1087 123.812 88.0222C123.749 86.4029 123.708 84.1919 123.729 83.974C124.092 80.0088 127.123 72.556 131.482 71.5906C132.206 71.4545 132.95 71.4714 133.667 71.6403C134.383 71.8091 135.057 72.1263 135.644 72.5712C136.23 73.0161 136.717 73.5789 137.073 74.2235C137.429 74.868 137.646 75.58 137.71 76.3135C138.084 79.4275 135.925 82.6661 133.787 84.7317C131.648 86.7973 125.483 89.1224 124.154 89.5999C124.673 91.6136 125.254 93.6689 125.981 95.8279C127.251 99.6585 128.859 103.368 130.787 106.914L131.026 106.841C130.797 105.357 130.382 102.232 130.382 101.973C130.309 97.987 132.458 90.2539 136.724 88.8007C137.431 88.5814 138.177 88.5132 138.912 88.6004C139.647 88.6877 140.356 88.9286 140.992 89.3073C141.628 89.6861 142.178 90.1943 142.605 90.799C143.032 91.4038 143.327 92.0915 143.471 92.8177C144.188 95.9317 142.433 99.326 140.492 101.61C138.302 104.246 131.482 107.505 131.223 107.63C133.249 111.102 135.496 114.441 137.949 117.626C139.755 120.003 141.686 122.318 143.637 124.632C143.451 123.594 142.9 119.442 142.89 119.204C142.817 115.218 145.018 107.485 149.232 106.031C149.939 105.81 150.685 105.741 151.421 105.828C152.157 105.914 152.866 106.155 153.503 106.534C154.139 106.913 154.689 107.422 155.115 108.027C155.542 108.633 155.836 109.322 155.979 110.049C156.695 113.163 154.941 116.557 153.011 118.84C150.872 121.415 144.354 124.56 143.793 124.83C144.686 125.868 145.568 126.906 146.471 127.944C149.398 131.359 152.357 134.774 155.17 138.23C156.145 139.424 157.059 140.638 157.983 141.853C157.744 140.285 157.37 137.441 157.36 137.192C157.287 133.206 159.488 125.473 163.702 124.03C164.408 123.808 165.154 123.737 165.89 123.822C166.625 123.907 167.335 124.146 167.972 124.524C168.609 124.903 169.158 125.411 169.585 126.016C170.012 126.622 170.306 127.31 170.449 128.037C171.165 131.151 169.411 134.545 167.48 136.829C165.55 139.113 160.142 141.894 158.605 142.652C160.121 144.728 161.584 146.731 162.934 148.818C163.494 149.731 164.127 150.624 164.615 151.527L166.131 154.205C167.107 156.073 168.02 157.807 168.882 159.561C169.317 160.454 169.712 161.295 170.138 162.166C169.66 160.62 168.944 158.149 168.902 157.921C168.228 153.997 169.224 146.015 173.179 143.95C173.843 143.624 174.569 143.443 175.309 143.417C176.048 143.391 176.785 143.522 177.471 143.8C178.156 144.078 178.776 144.498 179.288 145.032C179.801 145.565 180.195 146.201 180.445 146.898C181.618 149.814 180.372 153.489 178.836 156.032C177.144 158.845 171.394 162.831 170.688 163.298C171.726 165.374 172.66 167.45 173.532 169.464C175.141 173.086 176.5 176.366 177.684 179.231L174.86 179.875C173.822 177.114 172.587 173.969 171.144 170.533C170.397 168.737 169.577 166.858 168.715 164.928C167.927 165.218 161.792 167.44 158.429 167.377C157.836 169.545 157.119 171.676 156.28 173.761C158.294 174.975 160.245 176.18 162.051 177.342C164.294 178.775 166.37 180.145 168.279 181.411L164.605 182.262C163.352 181.39 162.031 180.487 160.64 179.553C159.031 178.515 157.308 177.352 155.522 176.211C155.003 176.916 150.841 182.532 147.987 184.131C145.392 185.584 141.676 186.705 138.79 185.438C138.103 185.163 137.481 184.747 136.965 184.216C136.449 183.685 136.05 183.051 135.795 182.357C135.539 181.662 135.433 180.921 135.482 180.182C135.531 179.444 135.735 178.723 136.081 178.069C138.281 174.187 146.284 173.45 150.187 174.249C150.436 174.249 153.301 175.287 154.785 175.754C153.747 175.069 152.637 174.394 151.495 173.678C149.865 172.64 148.122 171.664 146.43 170.678L143.71 169.225C142.797 168.706 141.873 168.332 140.939 167.865C139.548 167.232 138.094 166.63 136.641 166.038C135.717 167.761 132.915 172.754 130.642 174.519C128.368 176.283 124.798 178.027 121.756 177.207C121.035 177.04 120.358 176.723 119.767 176.277C119.177 175.83 118.687 175.264 118.329 174.616C117.972 173.968 117.755 173.252 117.693 172.514C117.631 171.777 117.724 171.035 117.968 170.336C119.545 166.184 127.31 164.222 131.327 164.419L133.289 164.72C131.846 164.191 130.413 163.682 128.939 163.153C124.787 161.741 120.448 160.433 116.141 159.104L113.463 158.264C112.684 159.706 109.705 165.146 107.328 167.004C104.951 168.862 101.484 170.502 98.4429 169.692C97.7209 169.526 97.042 169.21 96.4504 168.764C95.8588 168.318 95.3678 167.753 95.0093 167.104C94.6509 166.456 94.4331 165.739 94.3701 165.001C94.3071 164.263 94.4004 163.52 94.6438 162.82C96.2215 158.668 103.986 156.696 108.003 156.904C108.148 156.904 109.145 157.07 110.266 157.257C107.93 156.499 105.615 155.721 103.353 154.869C99.4377 153.446 95.6231 151.76 91.9346 149.825C91.6647 150.333 88.2912 156.779 85.6443 158.845C83.2984 160.672 79.8107 162.343 76.7694 161.533C76.0483 161.366 75.3704 161.049 74.7797 160.603C74.189 160.156 73.6986 159.591 73.3404 158.943C72.9822 158.295 72.7642 157.579 72.7004 156.842C72.6367 156.104 72.7286 155.361 72.9703 154.662C74.5481 150.51 82.3123 148.548 86.3294 148.756C86.6096 148.756 90.2219 149.368 91.5194 149.617L91.3948 149.555C87.8223 147.568 84.4352 145.265 81.2743 142.673C78.4433 140.37 75.7469 137.905 73.1987 135.293C70.8113 132.895 68.7768 130.549 66.9707 128.463C66.0157 127.321 65.1542 126.262 64.3653 125.266V125.359C64.3653 125.359 59.5594 122.92 59.2687 122.723C55.9679 120.491 50.9336 114.18 52.1999 109.945Z" fill="black"/>
</g>
<g opacity="0.3" filter="url(#filter3_d_518_139)">
<path d="M403.096 87.1927C403.013 87.1927 404.851 81.7951 405.006 81.4629C406.792 77.6846 412.49 71.4255 417.141 72.0379C417.909 72.1606 418.644 72.4438 419.296 72.8691C419.948 73.2944 420.503 73.8523 420.925 74.5065C421.347 75.1606 421.626 75.8963 421.745 76.6656C421.864 77.435 421.819 78.2208 421.614 78.9717C420.857 82.1999 417.556 84.5977 414.701 85.8641C411.338 87.3899 403.107 87.1927 403.096 87.1927Z" fill="black"/>
<path d="M473.7 131.412C470.078 130.789 463.32 126.118 463.32 126.118C463.32 126.118 467.763 122.578 468.074 122.391C471.655 120.222 479.856 118.146 483.395 121.219C483.976 121.746 484.438 122.391 484.752 123.11C485.065 123.829 485.223 124.607 485.214 125.391C485.205 126.176 485.03 126.95 484.701 127.662C484.371 128.374 483.894 129.008 483.302 129.523C480.852 131.744 476.783 131.931 473.7 131.412Z" fill="black"/>
<path d="M481.008 91.7699C480.607 91.1019 480.071 90.5256 479.433 90.0785C478.795 89.6314 478.07 89.3235 477.306 89.1747C476.541 89.0259 475.754 89.0396 474.995 89.2149C474.236 89.3902 473.523 89.7231 472.901 90.1921C470.192 92.1021 469.195 96.0568 469.091 99.1812C468.988 102.306 471.417 108.523 472.039 110.091C471.417 111.326 470.742 112.654 469.963 114.087C468.572 116.62 466.974 119.453 465.033 122.391C464.524 123.18 463.933 124.021 463.382 124.83C464.026 123.263 464.888 121.093 464.95 120.875C466.05 116.838 465.811 108.419 461.888 105.814C461.224 105.406 460.482 105.143 459.709 105.041C458.937 104.939 458.152 105.001 457.405 105.222C456.658 105.443 455.966 105.819 455.374 106.325C454.782 106.831 454.303 107.457 453.968 108.16C452.452 111.097 453.376 115.073 454.726 117.896C456.075 120.72 461.275 125.287 462.417 126.2C461.161 127.986 459.833 129.792 458.338 131.598C455.659 134.912 452.689 137.98 449.463 140.763L449.266 140.587C450.034 139.217 451.591 136.29 451.695 136.03C453.241 132.138 453.937 123.709 450.314 120.73C449.694 120.255 448.981 119.915 448.221 119.735C447.461 119.554 446.671 119.537 445.904 119.683C445.136 119.829 444.408 120.135 443.768 120.582C443.127 121.029 442.588 121.607 442.187 122.277C440.349 125.027 440.837 129.076 441.865 132.034C443.058 135.439 448.57 141.158 448.778 141.376C445.501 144.053 442.055 146.515 438.46 148.746C435.813 150.417 433.052 151.995 430.281 153.552C430.841 152.597 432.896 148.766 433.011 148.465C434.557 144.573 435.253 136.144 431.63 133.165C431.015 132.686 430.307 132.342 429.55 132.155C428.794 131.968 428.006 131.943 427.239 132.081C426.472 132.219 425.743 132.518 425.099 132.957C424.455 133.396 423.911 133.965 423.503 134.629C421.665 137.38 422.153 141.428 423.181 144.386C424.343 147.708 429.596 153.22 430.042 153.728C428.786 154.434 427.53 155.15 426.253 155.804C422.101 158.088 417.949 160.351 413.891 162.717C412.489 163.537 411.14 164.399 409.739 165.25C410.548 163.797 411.97 161.098 412.064 160.89C413.61 156.998 414.306 148.569 410.683 145.58C410.069 145.101 409.36 144.756 408.603 144.57C407.847 144.383 407.059 144.358 406.292 144.496C405.525 144.634 404.796 144.932 404.152 145.371C403.509 145.81 402.964 146.38 402.556 147.043C400.718 149.794 401.206 153.842 402.244 156.801C403.282 159.759 407.6 164.492 408.836 165.81C406.583 167.253 404.383 168.727 402.296 170.284C401.403 170.969 400.449 171.623 399.639 172.36L397.148 174.436C395.508 175.921 393.971 177.291 392.466 178.702C391.709 179.408 391.003 180.093 390.276 180.778C391.314 179.429 392.923 177.27 393.048 177.052C395.124 173.44 397.127 165.208 394.003 161.721C393.468 161.154 392.821 160.706 392.102 160.407C391.383 160.107 390.609 159.962 389.83 159.982C389.052 160.002 388.286 160.185 387.583 160.52C386.88 160.856 386.256 161.335 385.75 161.928C385.467 162.248 385.216 162.596 385.003 162.966C381.714 164.619 378.905 167.089 376.844 170.139C376.699 170.367 375.319 173.253 374.654 174.737C374.914 173.419 375.173 172.111 375.474 170.741C375.889 168.769 376.388 166.703 376.865 164.7C377.145 163.662 377.436 162.624 377.716 161.586C377.997 160.548 378.381 159.51 378.702 158.472C379.221 156.956 379.823 155.358 380.426 153.873C382.398 154.413 388.231 155.898 391.231 155.451C394.231 155.005 398.134 153.541 399.722 150.635C400.119 149.964 400.371 149.217 400.46 148.442C400.549 147.667 400.473 146.882 400.238 146.139C400.003 145.395 399.613 144.709 399.095 144.127C398.577 143.544 397.942 143.077 397.231 142.756C392.913 140.94 385.813 145.476 383.041 148.652C382.958 148.756 382.45 149.483 381.858 150.365C382.491 148.881 383.114 147.396 383.799 145.912C385.761 141.698 387.889 137.473 390.027 133.228C390.473 132.345 390.899 131.453 391.335 130.57C392.996 131.037 399.307 132.646 402.441 132.231C405.576 131.816 409.355 130.321 410.932 127.415C411.328 126.744 411.579 125.998 411.668 125.224C411.757 124.45 411.682 123.666 411.448 122.923C411.214 122.18 410.826 121.494 410.31 120.911C409.794 120.327 409.16 119.859 408.452 119.536C404.123 117.72 396.982 122.256 394.252 125.432C394.158 125.546 393.556 126.47 392.892 127.404C394.003 125.09 395.082 122.754 396.089 120.408C397.834 116.398 399.308 112.275 400.5 108.066C401.082 108.243 408.441 110.34 411.918 109.821C415.032 109.364 418.821 107.911 420.409 105.004C420.805 104.333 421.055 103.586 421.143 102.811C421.231 102.037 421.155 101.253 420.92 100.51C420.685 99.7666 420.297 99.0813 419.779 98.4983C419.262 97.9153 418.628 97.4477 417.918 97.126C413.6 95.3095 406.5 99.8455 403.729 103.022C403.531 103.25 401.372 106.426 400.615 107.589C400.615 107.589 400.615 107.485 400.615 107.444C401.68 103.278 402.374 99.0265 402.691 94.7386C402.995 90.9128 403.072 87.0723 402.919 83.2375C402.826 79.6772 402.525 76.4283 402.224 73.553C402.057 72.0064 401.871 70.5843 401.684 69.2557L401.756 69.318C401.829 69.318 403.386 63.8788 403.448 63.5259C404.123 59.3739 402.992 51.0076 398.819 48.8694C398.119 48.5327 397.357 48.3465 396.58 48.3229C395.804 48.2992 395.032 48.4386 394.313 48.7321C393.594 49.0256 392.944 49.4665 392.406 50.0265C391.868 50.5866 391.454 51.2532 391.19 51.9834C389.985 55.0974 391.335 58.9172 392.975 61.5849C394.615 64.2525 400.085 68.1243 401.445 69.0481C401.611 70.4286 401.777 71.9026 401.922 73.5322C402.151 76.4075 402.39 79.6564 402.41 83.2064C402.41 84.151 402.41 85.1682 402.41 86.1543C402.078 84.4831 401.601 82.1995 401.528 82.0023C400.231 78.0164 395.362 71.0929 390.671 71.1241C389.892 71.1498 389.129 71.3392 388.429 71.6798C387.729 72.0205 387.108 72.5047 386.608 73.1011C386.107 73.6975 385.738 74.3925 385.524 75.1411C385.31 75.8896 385.257 76.6748 385.366 77.4455C385.709 80.736 388.678 83.5386 391.366 85.1475C394.054 86.7564 400.905 87.7009 402.39 87.8774C402.327 90.0572 402.213 92.2993 401.964 94.6348C401.554 98.8722 400.769 103.065 399.618 107.163H399.348C399.244 105.596 398.923 102.295 398.871 101.973C398.009 97.8733 393.94 90.462 389.269 89.9742C388.493 89.914 387.713 90.018 386.98 90.2795C386.246 90.5409 385.576 90.9539 385.013 91.4915C384.45 92.0291 384.007 92.6793 383.712 93.3997C383.417 94.1201 383.277 94.8946 383.301 95.6728C383.301 98.984 385.927 102.088 388.418 103.977C391.283 106.157 399.047 107.89 399.338 107.963C398.083 112.001 396.567 115.953 394.802 119.796C393.504 122.65 392.082 125.484 390.65 128.318C390.598 127.207 390.193 122.879 390.131 122.567C389.269 118.415 385.2 111.056 380.529 110.568C379.753 110.508 378.973 110.612 378.24 110.873C377.506 111.135 376.836 111.548 376.273 112.085C375.71 112.623 375.267 113.273 374.972 113.994C374.677 114.714 374.537 115.489 374.561 116.267C374.561 119.578 377.187 122.692 379.678 124.571C382.481 126.709 389.902 128.401 390.525 128.546C389.871 129.833 389.207 131.11 388.532 132.397C386.332 136.549 384.11 140.784 382.034 144.988C381.318 146.441 380.675 147.905 380.01 149.369C379.886 147.708 379.595 144.698 379.543 144.438C378.682 140.338 374.613 132.927 369.942 132.439C369.166 132.379 368.385 132.483 367.652 132.744C366.919 133.005 366.249 133.418 365.686 133.956C365.123 134.494 364.679 135.144 364.384 135.864C364.089 136.585 363.949 137.359 363.973 138.137C363.973 141.449 366.599 144.563 369.091 146.441C371.582 148.32 377.799 149.908 379.554 150.323C378.516 152.763 377.478 155.202 376.575 157.662C376.211 158.7 375.775 159.79 375.485 160.838C375.194 161.887 374.862 162.914 374.561 163.952C374 166.091 373.471 168.104 373.004 170.087C372.765 171.125 372.557 172.059 372.329 173.045C372.454 171.343 372.609 168.655 372.599 168.405C372.36 164.253 369.485 156.282 364.928 155.088C364.169 154.91 363.382 154.894 362.616 155.042C361.851 155.189 361.125 155.496 360.487 155.942C359.848 156.389 359.311 156.965 358.91 157.634C358.509 158.302 358.254 159.047 358.16 159.821C357.641 163.091 359.79 166.568 361.959 168.81C364.357 171.291 371.187 174 372.028 174.364C371.499 176.782 370.99 179.138 370.565 181.349C369.765 185.439 369.142 189.134 368.644 192.331H371.696C372.111 189.217 372.63 185.74 373.305 181.858C373.647 179.844 374.042 177.706 374.467 175.536C375.35 175.651 382.159 176.481 385.595 175.63C386.71 177.715 387.948 179.732 389.3 181.671C387.515 183.384 385.802 185.076 384.214 186.695C382.252 188.688 380.457 190.577 378.827 192.331H382.792C383.872 191.134 385.017 189.896 386.228 188.615C387.619 187.131 389.124 185.574 390.681 183.996C391.376 184.598 396.971 189.363 400.272 190.328C403.272 191.21 407.341 191.491 409.998 189.518C410.638 189.073 411.177 188.499 411.581 187.833C411.984 187.166 412.244 186.422 412.341 185.649C412.439 184.876 412.374 184.091 412.149 183.345C411.924 182.599 411.545 181.908 411.036 181.318C407.87 177.862 399.483 178.983 395.674 180.727C395.435 180.841 392.695 182.481 391.325 183.342C392.269 182.398 393.203 181.443 394.21 180.467C395.632 179.055 397.2 177.612 398.694 176.201L401.134 174.063C401.954 173.326 402.815 172.713 403.666 171.987C404.933 171 406.282 170.045 407.631 169.101C408.991 170.637 413.029 175.101 415.78 176.367C418.53 177.633 422.589 178.588 425.516 177.031C426.218 176.691 426.839 176.207 427.341 175.611C427.843 175.014 428.213 174.318 428.427 173.569C428.642 172.82 428.696 172.033 428.586 171.262C428.476 170.49 428.205 169.75 427.789 169.091C425.184 165.198 416.724 165.032 412.697 166.184C412.572 166.184 411.742 166.547 410.766 166.952C412.116 166.06 413.455 165.167 414.846 164.305C418.8 161.876 422.911 159.531 427.011 157.154L429.564 155.659C430.696 156.956 435.035 161.835 437.868 163.174C440.702 164.513 444.688 165.385 447.615 163.838C448.316 163.497 448.937 163.012 449.437 162.415C449.938 161.818 450.307 161.123 450.52 160.373C450.734 159.624 450.787 158.838 450.676 158.067C450.566 157.296 450.294 156.557 449.878 155.898C447.283 151.995 438.823 151.839 434.796 152.981C434.651 152.981 433.665 153.417 432.564 153.873C434.775 152.555 436.965 151.206 439.093 149.804C442.758 147.42 446.26 144.795 449.577 141.947C449.971 142.404 454.944 148.175 458.151 149.711C460.985 151.029 464.96 151.922 467.887 150.375C468.588 150.034 469.208 149.549 469.709 148.953C470.21 148.356 470.579 147.661 470.794 146.912C471.008 146.163 471.062 145.377 470.953 144.606C470.844 143.835 470.574 143.095 470.161 142.435C467.555 138.532 459.096 138.376 455.068 139.518C454.777 139.601 451.227 141.065 449.972 141.594L450.096 141.5C453.281 138.615 456.206 135.454 458.836 132.055C461.201 129.031 463.385 125.87 465.375 122.588C467.265 119.568 468.801 116.692 470.14 114.128C470.856 112.737 471.479 111.45 472.05 110.246V110.34C472.05 110.412 476.399 106.707 476.648 106.437C479.627 103.468 483.312 95.8492 481.008 91.7699Z" fill="black"/>
<path opacity="0.3" d="M473.7 131.412C470.078 130.789 463.32 126.118 463.32 126.118C463.32 126.118 467.763 122.578 468.074 122.391C471.655 120.222 479.856 118.146 483.395 121.219C483.976 121.746 484.438 122.391 484.752 123.11C485.065 123.829 485.223 124.607 485.214 125.391C485.205 126.176 485.03 126.95 484.701 127.662C484.371 128.374 483.894 129.008 483.302 129.523C480.852 131.744 476.783 131.931 473.7 131.412Z" fill="black"/>
<path opacity="0.3" d="M403.096 87.1927C403.013 87.1927 404.851 81.7951 405.006 81.4629C406.792 77.6846 412.49 71.4255 417.141 72.0379C417.909 72.1606 418.644 72.4438 419.296 72.8691C419.948 73.2944 420.503 73.8523 420.925 74.5065C421.347 75.1606 421.626 75.8963 421.745 76.6656C421.864 77.435 421.819 78.2208 421.614 78.9717C420.857 82.1999 417.556 84.5977 414.701 85.8641C411.338 87.3899 403.107 87.1927 403.096 87.1927Z" fill="black"/>
<path opacity="0.3" d="M481.008 91.7699C480.607 91.1019 480.071 90.5256 479.433 90.0785C478.795 89.6314 478.07 89.3235 477.306 89.1747C476.541 89.0259 475.754 89.0396 474.995 89.2149C474.236 89.3901 473.523 89.7231 472.901 90.1921C470.192 92.1021 469.195 96.0568 469.091 99.1812C468.988 102.306 471.417 108.523 472.039 110.091C471.417 111.326 470.742 112.654 469.963 114.087C468.572 116.62 466.974 119.453 465.033 122.391C464.524 123.18 463.933 124.021 463.382 124.83C464.026 123.263 464.888 121.093 464.95 120.875C466.05 116.838 465.811 108.419 461.888 105.814C461.224 105.406 460.482 105.143 459.709 105.041C458.937 104.939 458.152 105.001 457.405 105.222C456.658 105.443 455.966 105.819 455.374 106.325C454.782 106.831 454.303 107.457 453.968 108.16C452.452 111.097 453.376 115.073 454.726 117.896C456.075 120.72 461.275 125.287 462.417 126.2C461.161 127.986 459.833 129.792 458.338 131.598C455.659 134.912 452.689 137.98 449.463 140.763L449.266 140.587C450.034 139.217 451.591 136.29 451.695 136.03C453.241 132.138 453.937 123.709 450.314 120.73C449.694 120.255 448.981 119.915 448.221 119.735C447.461 119.554 446.671 119.537 445.904 119.683C445.136 119.829 444.408 120.135 443.768 120.582C443.127 121.029 442.588 121.607 442.187 122.277C440.349 125.027 440.837 129.076 441.865 132.034C443.058 135.439 448.57 141.158 448.778 141.376C445.501 144.053 442.055 146.515 438.46 148.746C435.813 150.417 433.052 151.995 430.281 153.552C430.841 152.597 432.896 148.766 433.011 148.465C434.557 144.573 435.253 136.144 431.63 133.165C431.015 132.686 430.307 132.342 429.55 132.155C428.794 131.968 428.006 131.943 427.239 132.081C426.472 132.219 425.743 132.518 425.099 132.957C424.455 133.396 423.911 133.965 423.503 134.629C421.665 137.38 422.153 141.428 423.181 144.386C424.343 147.708 429.596 153.219 430.042 153.728C428.786 154.434 427.53 155.15 426.253 155.804C422.101 158.088 417.949 160.351 413.891 162.717C412.489 163.537 411.14 164.399 409.739 165.25C410.548 163.797 411.97 161.098 412.064 160.89C413.61 156.998 414.306 148.569 410.683 145.58C410.069 145.101 409.36 144.756 408.603 144.57C407.847 144.383 407.059 144.358 406.292 144.496C405.525 144.634 404.796 144.932 404.152 145.371C403.509 145.81 402.964 146.38 402.556 147.043C400.718 149.794 401.206 153.842 402.244 156.801C403.282 159.759 407.6 164.492 408.836 165.81C406.583 167.253 404.383 168.727 402.296 170.284C401.403 170.969 400.449 171.623 399.639 172.36L397.148 174.436C395.508 175.921 393.971 177.291 392.466 178.702C391.709 179.408 391.003 180.093 390.276 180.778C391.314 179.429 392.923 177.27 393.048 177.052C395.124 173.44 397.127 165.208 394.003 161.721C393.468 161.154 392.821 160.706 392.102 160.407C391.383 160.107 390.609 159.962 389.83 159.982C389.052 160.002 388.286 160.185 387.583 160.52C386.88 160.856 386.256 161.335 385.75 161.928C385.467 162.248 385.216 162.596 385.003 162.966C381.714 164.619 378.905 167.089 376.844 170.139C376.699 170.367 375.319 173.253 374.654 174.737C374.914 173.419 375.173 172.111 375.474 170.741C375.889 168.769 376.388 166.703 376.865 164.7C377.145 163.662 377.436 162.624 377.716 161.586C377.997 160.548 378.381 159.51 378.702 158.472C379.221 156.956 379.823 155.358 380.426 153.873C382.398 154.413 388.231 155.898 391.231 155.451C394.231 155.005 398.134 153.541 399.722 150.635C400.119 149.964 400.371 149.217 400.46 148.442C400.549 147.667 400.473 146.882 400.238 146.139C400.003 145.395 399.613 144.709 399.095 144.127C398.577 143.544 397.942 143.077 397.231 142.756C392.913 140.94 385.813 145.476 383.041 148.652C382.958 148.756 382.45 149.483 381.858 150.365C382.491 148.881 383.114 147.396 383.799 145.912C385.761 141.698 387.889 137.473 390.027 133.228C390.473 132.345 390.899 131.453 391.335 130.57C392.996 131.037 399.307 132.646 402.441 132.231C405.576 131.816 409.355 130.321 410.932 127.415C411.328 126.744 411.579 125.998 411.668 125.224C411.757 124.45 411.682 123.666 411.448 122.923C411.214 122.18 410.826 121.494 410.31 120.911C409.794 120.327 409.16 119.859 408.452 119.536C404.123 117.72 396.982 122.256 394.252 125.432C394.158 125.546 393.556 126.47 392.892 127.404C394.003 125.09 395.082 122.754 396.089 120.408C397.834 116.398 399.308 112.275 400.5 108.066C401.082 108.243 408.441 110.34 411.918 109.821C415.032 109.364 418.821 107.911 420.409 105.004C420.805 104.333 421.055 103.586 421.143 102.811C421.231 102.037 421.155 101.253 420.92 100.51C420.685 99.7666 420.297 99.0813 419.779 98.4983C419.262 97.9153 418.628 97.4477 417.918 97.126C413.6 95.3095 406.5 99.8455 403.729 103.022C403.531 103.25 401.372 106.426 400.615 107.589C400.615 107.589 400.615 107.485 400.615 107.444C401.68 103.278 402.374 99.0265 402.691 94.7386C402.995 90.9128 403.072 87.0723 402.919 83.2375C402.826 79.6772 402.525 76.4283 402.224 73.553C402.057 72.0064 401.871 70.5843 401.684 69.2557L401.756 69.318C401.829 69.318 403.386 63.8788 403.448 63.5259C404.123 59.3739 402.992 51.0076 398.819 48.8694C398.119 48.5327 397.357 48.3465 396.58 48.3229C395.804 48.2992 395.032 48.4386 394.313 48.7321C393.594 49.0256 392.944 49.4665 392.406 50.0265C391.868 50.5866 391.454 51.2532 391.19 51.9834C389.985 55.0974 391.335 58.9172 392.975 61.5849C394.615 64.2525 400.085 68.1243 401.445 69.0481C401.611 70.4286 401.777 71.9026 401.922 73.5322C402.151 76.4075 402.39 79.6564 402.41 83.2064C402.41 84.151 402.41 85.1682 402.41 86.1543C402.078 84.4831 401.601 82.1995 401.528 82.0023C400.231 78.0164 395.362 71.0929 390.671 71.1241C389.892 71.1498 389.129 71.3392 388.429 71.6798C387.729 72.0205 387.108 72.5047 386.608 73.1011C386.107 73.6975 385.738 74.3925 385.524 75.1411C385.31 75.8896 385.257 76.6748 385.366 77.4455C385.709 80.736 388.678 83.5386 391.366 85.1475C394.054 86.7564 400.905 87.7009 402.39 87.8774C402.327 90.0572 402.213 92.2993 401.964 94.6348C401.554 98.8722 400.769 103.065 399.618 107.163H399.348C399.244 105.596 398.923 102.295 398.871 101.973C398.009 97.8733 393.94 90.462 389.269 89.9742C388.493 89.914 387.713 90.018 386.98 90.2795C386.246 90.5409 385.576 90.9539 385.013 91.4915C384.45 92.0291 384.007 92.6793 383.712 93.3997C383.417 94.1201 383.277 94.8946 383.301 95.6728C383.301 98.984 385.927 102.088 388.418 103.977C391.283 106.157 399.047 107.89 399.338 107.963C398.083 112.001 396.567 115.953 394.802 119.796C393.504 122.65 392.082 125.484 390.65 128.318C390.598 127.207 390.193 122.879 390.131 122.567C389.269 118.415 385.2 111.056 380.529 110.568C379.753 110.508 378.973 110.612 378.24 110.873C377.506 111.135 376.836 111.548 376.273 112.085C375.71 112.623 375.267 113.273 374.972 113.994C374.677 114.714 374.537 115.489 374.561 116.267C374.561 119.578 377.187 122.692 379.678 124.571C382.481 126.709 389.902 128.401 390.525 128.546C389.871 129.833 389.207 131.11 388.532 132.397C386.332 136.549 384.11 140.784 382.034 144.988C381.318 146.441 380.675 147.905 380.01 149.369C379.886 147.708 379.595 144.698 379.543 144.438C378.682 140.338 374.613 132.927 369.942 132.439C369.166 132.379 368.385 132.483 367.652 132.744C366.919 133.005 366.249 133.418 365.686 133.956C365.123 134.494 364.679 135.144 364.384 135.864C364.089 136.585 363.949 137.359 363.973 138.137C363.973 141.449 366.599 144.563 369.091 146.441C371.582 148.32 377.799 149.908 379.554 150.323C378.516 152.763 377.478 155.202 376.575 157.662C376.211 158.7 375.775 159.79 375.485 160.838C375.194 161.887 374.862 162.914 374.561 163.952C374 166.091 373.471 168.104 373.004 170.087C372.765 171.125 372.557 172.059 372.329 173.045C372.454 171.343 372.609 168.655 372.599 168.405C372.36 164.253 369.485 156.282 364.928 155.088C364.169 154.91 363.382 154.894 362.616 155.042C361.851 155.189 361.125 155.496 360.487 155.942C359.848 156.389 359.311 156.965 358.91 157.634C358.509 158.302 358.254 159.047 358.16 159.821C357.641 163.091 359.79 166.568 361.959 168.81C364.357 171.291 371.187 174 372.028 174.364C371.499 176.782 370.99 179.138 370.565 181.349C369.765 185.439 369.142 189.134 368.644 192.331H371.696C372.111 189.217 372.63 185.74 373.305 181.858C373.647 179.844 374.042 177.706 374.467 175.536C375.35 175.651 382.159 176.481 385.595 175.63C386.71 177.715 387.948 179.732 389.3 181.671C387.515 183.384 385.802 185.076 384.214 186.695C382.252 188.688 380.457 190.577 378.827 192.331H382.792C383.872 191.134 385.017 189.895 386.228 188.615C387.619 187.131 389.124 185.574 390.681 183.996C391.376 184.598 396.971 189.363 400.272 190.328C403.272 191.21 407.341 191.491 409.998 189.518C410.638 189.073 411.177 188.499 411.581 187.833C411.984 187.166 412.244 186.422 412.341 185.649C412.439 184.876 412.374 184.091 412.149 183.345C411.924 182.599 411.545 181.908 411.036 181.318C407.87 177.862 399.483 178.983 395.674 180.727C395.435 180.841 392.695 182.481 391.325 183.342C392.269 182.398 393.203 181.443 394.21 180.467C395.632 179.055 397.2 177.612 398.694 176.201L401.134 174.063C401.954 173.326 402.815 172.713 403.666 171.987C404.933 171 406.282 170.045 407.631 169.101C408.991 170.637 413.029 175.101 415.78 176.367C418.53 177.633 422.589 178.588 425.516 177.031C426.218 176.691 426.839 176.207 427.341 175.611C427.843 175.014 428.213 174.318 428.427 173.569C428.642 172.82 428.696 172.033 428.586 171.262C428.476 170.49 428.205 169.75 427.789 169.091C425.184 165.198 416.724 165.032 412.697 166.184C412.572 166.184 411.742 166.547 410.766 166.952C412.116 166.06 413.455 165.167 414.846 164.305C418.8 161.876 422.911 159.531 427.011 157.154L429.564 155.659C430.696 156.956 435.035 161.835 437.868 163.174C440.702 164.513 444.688 165.385 447.615 163.838C448.316 163.497 448.937 163.012 449.437 162.415C449.938 161.818 450.307 161.123 450.52 160.373C450.734 159.624 450.787 158.838 450.676 158.067C450.566 157.296 450.294 156.557 449.878 155.898C447.283 151.995 438.823 151.839 434.796 152.981C434.651 152.981 433.665 153.417 432.564 153.873C434.775 152.555 436.965 151.206 439.093 149.804C442.758 147.42 446.26 144.795 449.577 141.947C449.971 142.404 454.944 148.175 458.151 149.711C460.985 151.029 464.96 151.922 467.887 150.375C468.588 150.034 469.208 149.549 469.709 148.953C470.21 148.356 470.579 147.661 470.794 146.912C471.008 146.163 471.062 145.377 470.953 144.606C470.844 143.835 470.574 143.095 470.161 142.435C467.555 138.532 459.096 138.376 455.068 139.518C454.777 139.601 451.227 141.065 449.972 141.594L450.096 141.5C453.281 138.615 456.206 135.454 458.836 132.055C461.201 129.031 463.385 125.87 465.375 122.588C467.265 119.568 468.801 116.692 470.14 114.128C470.856 112.737 471.479 111.45 472.05 110.246V110.34C472.05 110.412 476.399 106.707 476.648 106.437C479.627 103.468 483.312 95.8492 481.008 91.7699Z" fill="black"/>
</g>
<path d="M511.745 484.217H1.57812" stroke="#263238" stroke-miterlimit="10"/>
<g opacity="0.3">
<path d="M448.481 82.3247C447.248 81.7031 446.082 80.9552 445.003 80.0931C443.63 79.0258 442.343 77.8528 441.152 76.5846C439.94 75.3152 438.861 73.9238 437.935 72.4326C437.751 72.4785 437.563 72.5029 437.374 72.5053H436.751C432.859 72.5053 429.766 71.7994 427.492 70.4293C425.228 69.0388 423.504 66.9193 422.603 64.4192C421.554 61.4194 421.054 58.2546 421.129 55.0772V35.293C421.049 32.1153 421.549 28.9497 422.603 25.951C423.498 23.4745 425.227 21.3865 427.492 20.0447C429.766 18.685 432.859 17.9688 436.751 17.9688C440.644 17.9688 443.81 18.6642 446.093 20.0447C448.363 21.3896 450.101 23.4753 451.013 25.951C452.068 28.9495 452.568 32.1153 452.487 35.293V55.1188C452.512 57.424 452.282 59.725 451.802 61.98C451.397 63.8728 450.625 65.6678 449.529 67.2634C448.464 68.7754 447.036 69.996 445.377 70.8133C445.938 71.4258 446.529 72.0382 447.142 72.6506C447.754 73.263 448.367 73.8339 448.979 74.3529C449.535 74.8387 450.128 75.2795 450.754 75.6712L448.481 82.3247ZM436.731 64.6787C437.854 64.7814 438.972 64.4384 439.845 63.7238C440.518 63.046 440.974 62.182 441.152 61.243C441.375 60.1044 441.482 58.9465 441.474 57.7864V32.6253C441.484 31.479 441.376 30.3347 441.152 29.2103C440.98 28.2548 440.52 27.3748 439.834 26.6879C438.964 25.9693 437.844 25.6258 436.72 25.733C435.627 25.6396 434.541 25.9829 433.7 26.6879C433.019 27.373 432.572 28.2559 432.423 29.2103C432.217 30.3369 432.116 31.4801 432.122 32.6253V57.7657C432.119 58.9318 432.224 60.0958 432.433 61.243C432.578 62.2078 433.025 63.1019 433.71 63.7965C434.554 64.494 435.64 64.8298 436.731 64.7307V64.6787Z" stroke="black" stroke-miterlimit="10"/>
<path d="M159.614 68.0634C157.729 68.1274 155.858 67.7132 154.175 66.8593C152.711 66.0497 151.555 64.7802 150.885 63.2471C150.07 61.2952 149.633 59.2065 149.598 57.0917L155.826 56.0537C155.855 57.2804 156.008 58.5011 156.282 59.6971C156.451 60.5143 156.842 61.2688 157.414 61.8769C157.928 62.3566 158.611 62.614 159.313 62.5931C159.678 62.6359 160.047 62.5771 160.381 62.4233C160.714 62.2694 160.998 62.0264 161.203 61.7212C161.546 61.1101 161.722 60.4189 161.711 59.7179C161.764 58.3976 161.401 57.094 160.673 55.9914C159.832 54.8634 158.86 53.839 157.777 52.9397L154.123 49.7634C152.852 48.7026 151.768 47.4359 150.916 46.0163C150.041 44.4489 149.61 42.6723 149.67 40.8782C149.589 39.6458 149.776 38.4104 150.216 37.2567C150.657 36.1029 151.342 35.058 152.224 34.1934C154.171 32.5488 156.675 31.713 159.22 31.8579C160.718 31.8016 162.208 32.1004 163.569 32.7299C164.639 33.2566 165.549 34.0593 166.206 35.055C166.829 36.0303 167.272 37.1097 167.514 38.2416C167.762 39.3651 167.915 40.5075 167.97 41.6567L161.825 42.5701C161.786 41.6244 161.692 40.6817 161.545 39.7467C161.464 39.0479 161.195 38.3842 160.767 37.8264C160.544 37.5851 160.269 37.3971 159.964 37.2767C159.658 37.1563 159.329 37.1065 159.002 37.131C158.634 37.1058 158.266 37.1791 157.936 37.3432C157.606 37.5074 157.325 37.7566 157.123 38.0652C156.719 38.6816 156.506 39.4039 156.511 40.1412C156.456 41.2433 156.754 42.3341 157.362 43.2552C158.053 44.1449 158.84 44.9559 159.708 45.6737L163.279 48.7877C164.768 50.0734 166.062 51.5701 167.119 53.2304C168.229 55.0566 168.78 57.1671 168.707 59.3027C168.733 60.871 168.342 62.4182 167.576 63.7868C166.848 65.0946 165.77 66.1731 164.462 66.9008C162.977 67.7088 161.304 68.1099 159.614 68.0634Z" stroke="black" stroke-miterlimit="10"/>
<path d="M476.547 206.366V171.074H491.442V175.953H483.709V185.492H490.248V190.495H483.709V206.356L476.547 206.366Z" stroke="black" stroke-miterlimit="10"/>
</g>
<path d="M414.721 97.7988H144V484.205H414.721V97.7988Z" fill="#263238" stroke="#263238" stroke-linecap="round" stroke-linejoin="round"/>
<path d="M407.268 108.439H151.453V473.577H407.268V108.439Z" fill="white" stroke="#263238" stroke-linecap="round" stroke-linejoin="round"/>
<path d="M305.335 74.1746C305.335 73.4535 305.193 72.7395 304.917 72.0733C304.641 71.4071 304.236 70.8018 303.727 70.2919C303.217 69.782 302.611 69.3775 301.945 69.1016C301.279 68.8256 300.565 68.6836 299.844 68.6836H258.884C258.163 68.6836 257.449 68.8256 256.783 69.1016C256.117 69.3775 255.511 69.782 255.002 70.2919C254.492 70.8018 254.087 71.4071 253.811 72.0733C253.535 72.7395 253.393 73.4535 253.393 74.1746C253.393 78.5628 251.65 82.7713 248.547 85.8742C245.444 88.9771 241.236 90.7203 236.848 90.7203H229.447C226.614 90.7203 223.897 91.8457 221.894 93.8487C219.891 95.8518 218.766 98.5686 218.766 101.401V119.836H339.963V101.401C339.963 98.5686 338.837 95.8518 336.834 93.8487C334.831 91.8457 332.114 90.7203 329.282 90.7203H321.881C317.492 90.7203 313.284 88.9771 310.181 85.8742C307.078 82.7713 305.335 78.5628 305.335 74.1746Z" fill="#BABABA" stroke="#263238" stroke-linecap="round" stroke-linejoin="round"/>
<path d="M228.805 103.311H327.965" stroke="#263238" stroke-linecap="round" stroke-linejoin="round"/>
<path d="M300.062 176.916H376.74" stroke="#263238" stroke-linecap="round" stroke-linejoin="round"/>
<path d="M302.504 208.803H392.571" stroke="#263238" stroke-linecap="round" stroke-linejoin="round"/>
<path d="M162.332 208.803H290.39" stroke="#263238" stroke-linecap="round" stroke-linejoin="round"/>
<path d="M344.531 246.795H392.57" stroke="#263238" stroke-linecap="round" stroke-linejoin="round"/>
<path d="M162.332 246.795H328.858" stroke="#263238" stroke-linecap="round" stroke-linejoin="round"/>
<path d="M351.434 284.795H392.57" stroke="#263238" stroke-linecap="round" stroke-linejoin="round"/>
<path d="M162.332 284.795H305.856" stroke="#263238" stroke-linecap="round" stroke-linejoin="round"/>
<path d="M162.332 322.797H392.571" stroke="#263238" stroke-linecap="round" stroke-linejoin="round"/>
<path d="M189.953 360.787H392.571" stroke="#263238" stroke-linecap="round" stroke-linejoin="round"/>
<path d="M162.332 360.787H180.694" stroke="#263238" stroke-linecap="round" stroke-linejoin="round"/>
<path d="M162.332 398.789H392.571" stroke="#263238" stroke-linecap="round" stroke-linejoin="round"/>
<path d="M162.332 176.916H238.999" stroke="#263238" stroke-linecap="round" stroke-linejoin="round"/>
<path d="M351.434 298.611H392.57" stroke="#263238" stroke-linecap="round" stroke-linejoin="round"/>
<path d="M351.434 312.416H392.57" stroke="#263238" stroke-linecap="round" stroke-linejoin="round"/>
<path d="M333.051 397.967V365.717H347.105V370.253H339.621V378.868H345.393V383.446H339.621V393.556H347.188V398.019L333.051 397.967Z" fill="#263238"/>
<path d="M356.812 209.011V181.297H363.995C365.62 181.261 367.241 181.475 368.801 181.93C370.069 182.293 371.17 183.085 371.915 184.172C372.69 185.519 373.051 187.064 372.953 188.615C372.962 189.632 372.865 190.648 372.663 191.646C372.485 192.476 372.131 193.258 371.625 193.94C371.076 194.626 370.361 195.162 369.549 195.497L373.379 208.991H367.597L364.421 196.431H362.438V208.991L356.812 209.011ZM362.459 193.068H364.099C364.842 193.107 365.582 192.954 366.248 192.621C366.777 192.328 367.177 191.846 367.369 191.272C367.604 190.548 367.712 189.79 367.691 189.03C367.754 188.005 367.508 186.986 366.985 186.103C366.667 185.729 366.262 185.439 365.806 185.258C365.35 185.077 364.857 185.011 364.369 185.065H362.459V193.068Z" fill="#263238"/>
<path d="M332.157 321.924C329.729 322.06 327.309 321.528 325.161 320.388C323.502 319.367 322.262 317.788 321.663 315.935C320.93 313.648 320.579 311.256 320.625 308.855V281.732H328.607V309.987C328.606 310.953 328.679 311.917 328.825 312.872C328.924 313.715 329.263 314.511 329.801 315.166C330.099 315.476 330.462 315.716 330.864 315.869C331.267 316.021 331.697 316.083 332.126 316.049C332.563 316.087 333.003 316.028 333.414 315.875C333.825 315.723 334.197 315.48 334.503 315.166C335.039 314.511 335.371 313.714 335.458 312.872C335.592 311.916 335.658 310.952 335.655 309.987V281.732H343.638V308.855C343.679 311.256 343.328 313.647 342.6 315.935C341.997 317.786 340.757 319.364 339.102 320.388C336.968 321.517 334.568 322.048 332.157 321.924Z" fill="#263238"/>
<path d="M357.694 177.995C357.694 177.995 333.301 181.254 343.556 206.021C353.812 230.788 394.657 218.612 384.755 188.759C374.852 158.906 351.632 182.23 349.722 189.226" stroke="#0F4C81" stroke-width="2" stroke-linecap="round" stroke-linejoin="round"/>
<path d="M310.805 193.959C310.805 193.959 301.463 195.08 298.142 204.017C297.311 206.265 296.989 208.668 297.199 211.055C297.41 213.442 298.147 215.753 299.359 217.82C300.57 219.887 302.225 221.66 304.205 223.01C306.184 224.361 308.439 225.255 310.805 225.628C321.611 227.486 336.89 217.802 333.164 206.633C329.438 195.464 317.511 193.212 308.947 198.433" stroke="#0F4C81" stroke-width="2" stroke-linecap="round" stroke-linejoin="round"/>
<path d="M322.112 193.182C322.112 193.182 321.334 172.868 310.383 156.447" stroke="#0F4C81" stroke-width="2" stroke-linecap="round" stroke-linejoin="round"/>
<path d="M309.208 165.436L308.035 153.322L319.37 159.581" stroke="#0F4C81" stroke-width="2" stroke-linecap="round" stroke-linejoin="round"/>
<path d="M294.945 144.645C294.945 144.645 305.502 146.846 306.82 136.341C308.138 125.837 303.301 130.186 301.101 135.459C298.9 140.732 302.865 148.216 309.893 145.133C316.92 142.05 323.532 133.715 322.203 138.095C320.875 142.476 319.567 147.333 322.65 144.697C325.732 142.06 332.76 133.705 331.441 138.978C330.123 144.251 331.877 145.569 333.196 143.379C334.514 141.189 336.735 139.362 338.479 139.86C340.193 140.37 341.965 140.663 343.752 140.732H350.343C350.343 140.732 346.835 146.451 349.025 145.569C351.215 144.687 354.309 140.296 354.309 140.296L365.301 139.86" stroke="#0F4C81" stroke-width="2" stroke-linecap="round" stroke-linejoin="round"/>
<path d="M335.272 358.93C335.272 358.93 321.716 360.559 316.827 373.576C315.618 376.848 315.151 380.347 315.459 383.821C315.767 387.295 316.842 390.658 318.606 393.667C320.371 396.675 322.781 399.255 325.663 401.219C328.545 403.184 331.827 404.485 335.272 405.027C350.998 407.747 373.242 393.609 367.813 377.365C362.384 361.12 345.039 357.84 332.521 365.438" stroke="#0F4C81" stroke-width="2" stroke-linecap="round" stroke-linejoin="round"/>
<path d="M327.009 403.334L307.516 422.288" stroke="#0F4C81" stroke-width="2" stroke-linecap="round" stroke-linejoin="round"/>
<path d="M309.687 412.541L304.809 426.616L322.143 420.118" stroke="#0F4C81" stroke-width="2" stroke-linecap="round" stroke-linejoin="round"/>
<path d="M293.067 435.897C293.067 435.897 297.27 428.34 292.506 429.742C287.742 431.143 281.597 438.98 285.51 440.651C289.423 442.322 298.381 434.496 297.551 437.018C296.72 439.54 296.43 442.052 298.942 438.98C301.454 435.907 304.267 430.022 304.267 434.496C304.267 438.969 302.305 439.26 304.267 438.98C306.228 438.7 308.74 438.139 308.74 438.139C309.976 438.138 311.205 437.949 312.384 437.579C313.775 437.018 317.138 433.655 315.736 437.018C314.335 440.381 314.615 441.772 317.418 439.26C320.221 436.748 323.013 435.617 323.013 437.018C323.013 438.419 320.221 439.821 323.013 438.419C324.303 437.668 325.734 437.191 327.217 437.018H337.285" stroke="#0F4C81" stroke-width="2" stroke-linecap="round" stroke-linejoin="round"/>
<path d="M283.746 455.681C283.746 455.681 290.919 457.176 291.811 450.014C292.704 442.852 289.424 445.862 287.929 449.412C286.435 452.962 289.123 458.079 293.898 455.982C298.673 453.885 303.167 448.218 302.264 451.207C301.361 454.197 300.479 457.435 302.565 455.681C304.651 453.927 309.437 448.218 308.544 451.799C307.651 455.38 308.835 456.283 309.738 454.789C310.641 453.294 312.135 452.059 313.319 452.401C314.487 452.747 315.693 452.946 316.91 452.993H321.384C321.384 452.993 318.997 456.885 320.491 456.283C321.986 455.681 324.072 452.702 324.072 452.702L331.546 452.401" stroke="#0F4C81" stroke-width="2" stroke-linecap="round" stroke-linejoin="round"/>
<path d="M419.768 210.06L403.524 189.082L399.559 192.57C402.735 199.14 413.603 217.264 414.091 217.98C414.578 218.696 439.075 236.664 439.075 236.664L442.189 221.955L419.768 210.06Z" fill="white" stroke="#263238" stroke-linecap="round" stroke-linejoin="round"/>
<path d="M398.418 178.121L394.888 179.159L392.812 182.273C392.812 182.273 396.747 189.944 396.331 188.906C395.916 187.868 398.407 186.415 398.615 185.169C398.823 183.924 400.483 178.308 400.483 178.308L398.418 178.121Z" fill="white" stroke="#263238" stroke-linecap="round" stroke-linejoin="round"/>
<path d="M403.398 186.021L404.021 174.8L398.592 172.309L393.246 173.295C393.246 173.295 393.454 174.955 394.076 175.163C395.445 175.228 396.817 175.176 398.177 175.007L399.837 175.838C399.837 175.838 396.101 187.681 396.308 188.927C396.516 190.173 399.734 192.996 399.734 192.996L404.405 191.626L403.398 186.021Z" fill="white" stroke="#263238" stroke-linecap="round" stroke-linejoin="round"/>
<path d="M392.499 176.066L388.855 177.177C388.781 177.206 388.716 177.256 388.671 177.322C388.626 177.388 388.602 177.466 388.602 177.546C388.602 177.625 388.626 177.703 388.671 177.769C388.716 177.835 388.781 177.886 388.855 177.914L392.592 178.713L392.499 176.066Z" fill="white" stroke="#263238" stroke-linecap="round" stroke-linejoin="round"/>
<path d="M393.115 178.776C392.741 178.777 392.382 178.635 392.11 178.379C391.838 178.124 391.674 177.774 391.651 177.401C391.629 177.028 391.749 176.661 391.988 176.375C392.228 176.088 392.567 175.904 392.938 175.859L409.048 174.313C409.238 174.288 409.431 174.301 409.617 174.352C409.802 174.402 409.975 174.489 410.126 174.607C410.278 174.724 410.405 174.871 410.499 175.038C410.594 175.205 410.654 175.389 410.677 175.579C410.725 175.964 410.618 176.352 410.381 176.659C410.144 176.966 409.796 177.168 409.411 177.219L393.301 178.766L393.115 178.776Z" fill="white" stroke="#263238" stroke-linecap="round" stroke-linejoin="round"/>
<path d="M403.598 189.197L402.985 183.322L400.494 178.329C400.079 177.499 399.871 174.385 398.211 175.008C396.55 175.63 396.55 177.914 396.965 178.537C397.474 179.753 397.89 181.005 398.211 182.284C398.211 182.284 396.757 186.436 396.965 187.266C397.456 188.25 398.085 189.159 398.833 189.965" fill="white"/>
<path d="M403.598 189.197L402.985 183.322L400.494 178.329C400.079 177.499 399.871 174.385 398.211 175.008C396.55 175.63 396.55 177.914 396.965 178.537C397.474 179.753 397.89 181.005 398.211 182.284C398.211 182.284 396.757 186.436 396.965 187.266C397.456 188.25 398.085 189.159 398.833 189.965" stroke="#263238" stroke-linecap="round" stroke-linejoin="round"/>
<path d="M394.504 179.928C394.504 179.928 396.642 182.855 397.431 183.197" stroke="#263238" stroke-linecap="round" stroke-linejoin="round"/>
<path d="M393.402 183.529C394.434 184.225 395.525 184.83 396.662 185.335" stroke="#263238" stroke-linecap="round" stroke-linejoin="round"/>
<path d="M403.596 189.197L399.766 192.996C403.212 200.117 410.872 219.268 411.37 219.984C411.869 220.701 439.075 236.665 439.075 236.665L442.189 221.957L419.768 210.061L403.596 189.197Z" fill="#0F4C81" stroke="#263238" stroke-linecap="round" stroke-linejoin="round"/>
<path d="M443.395 276.855L445.304 295.768L464.165 296.453L476.777 291.533C477.322 287.477 476.983 283.352 475.782 279.441C474.582 275.529 472.548 271.924 469.822 268.873L443.395 276.855Z" fill="#263238" stroke="#263238" stroke-linecap="round" stroke-linejoin="round"/>
<path d="M436.489 227.126C436.489 227.126 430.427 249.204 433.458 256.252C435.177 260.379 438.063 263.914 441.762 266.424C441.762 266.424 441.7 275.413 443.381 276.856C445.063 278.299 456.533 275.548 460.249 274.479C463.965 273.41 469.674 271.074 469.819 268.874C469.965 266.673 465.667 255.203 465.532 254.498C465.397 253.792 458.889 235.564 456.491 231.08C454.505 227.713 452.148 224.58 449.464 221.738L436.489 227.126Z" fill="#0F4C81" stroke="#263238" stroke-linecap="round" stroke-linejoin="round"/>
<path d="M446.777 368.355L444.4 372.808C444.4 372.808 438.411 376.794 438.639 377.24C438.868 377.687 440.383 378.102 441.805 377.884C443.227 377.666 446.787 376.784 446.787 376.784L453.846 373.431C453.846 373.431 456.586 372.393 456.14 370.504C455.466 368.525 454.629 366.605 453.638 364.764L446.777 368.355Z" fill="white" stroke="#263238" stroke-linecap="round" stroke-linejoin="round"/>
<path d="M444.98 284.287C444.98 284.287 423.38 323.212 425.435 327.219C427.49 331.225 446.776 368.355 446.776 368.355L453.637 364.763L442.219 327.893L460.062 306.832L459.658 285.626" fill="#263238"/>
<path d="M444.98 284.287C444.98 284.287 423.38 323.212 425.435 327.219C427.49 331.225 446.776 368.355 446.776 368.355L453.637 364.763L442.219 327.893L460.062 306.832L459.658 285.626" stroke="#263238" stroke-linecap="round" stroke-linejoin="round"/>
<path d="M468.453 397.835C468.453 397.835 463.408 403.866 462.92 404.53C462.432 405.194 455.758 408.111 455.789 409.274C455.82 410.436 459.09 410.81 459.661 410.716C460.232 410.623 468.1 408.713 469.2 408.817C470.3 408.921 478.542 405.89 478.739 404.987C478.937 404.084 476.248 397.357 476.248 397.357L468.453 397.835Z" fill="white" stroke="#263238" stroke-linecap="round" stroke-linejoin="round"/>
<path d="M450.555 283.062L456.513 342.498L467.453 399.402L476.712 398.685L472.301 340.422L476.785 291.533" fill="#263238"/>
<path d="M450.555 283.062L456.513 342.498L467.453 399.402L476.712 398.685L472.301 340.422L476.785 291.533" stroke="#263238" stroke-linecap="round" stroke-linejoin="round"/>
<path d="M436.491 227.125C435.597 223.76 433.803 220.703 431.301 218.281C431.301 218.281 427.211 219.247 425.53 218.987C423.848 218.728 423.973 215.738 424.212 214.43C424.45 213.122 423.485 208.96 423.485 208.96C422.808 208.254 422.212 207.474 421.71 206.635C421.544 206.064 424.409 204.673 425.011 203.76C425.613 202.846 425.104 201.507 425.405 198.705C425.706 195.902 428.322 191.501 428.322 191.501C428.322 191.501 429.194 189.871 432.1 190.286C435.007 190.702 441.121 198.829 443.923 201.871C446.726 204.912 447.203 211.213 447.037 212.52C446.871 213.828 445.293 216.102 445.231 217.565C445.169 219.029 444.525 220.222 447.058 222.662" fill="white"/>
<path d="M436.491 227.125C435.597 223.76 433.803 220.703 431.301 218.281C431.301 218.281 427.211 219.247 425.53 218.987C423.848 218.728 423.973 215.738 424.212 214.43C424.45 213.122 423.485 208.96 423.485 208.96C422.808 208.254 422.212 207.474 421.71 206.635C421.544 206.064 424.409 204.673 425.011 203.76C425.613 202.846 425.104 201.507 425.405 198.705C425.706 195.902 428.322 191.501 428.322 191.501C428.322 191.501 429.194 189.871 432.1 190.286C435.007 190.702 441.121 198.829 443.923 201.871C446.726 204.912 447.203 211.213 447.037 212.52C446.871 213.828 445.293 216.102 445.231 217.565C445.169 219.029 444.525 220.222 447.058 222.662" stroke="#263238" stroke-linecap="round" stroke-linejoin="round"/>
<path d="M426.962 202.359L426.578 204.539" stroke="#263238" stroke-linecap="round" stroke-linejoin="round"/>
<path d="M426.027 199.983C426.027 199.983 427.449 197.263 428.498 200.377" stroke="#263238" stroke-linecap="round" stroke-linejoin="round"/>
<path d="M426.203 210.082L426.618 210.829C426.359 211.065 426.053 211.245 425.721 211.357C425.389 211.47 425.037 211.513 424.688 211.483" stroke="#263238" stroke-linecap="round" stroke-linejoin="round"/>
<path d="M455.165 211.431C455.165 209.739 457.708 205.203 457.148 201.56C456.587 197.916 450.359 190.318 450.359 190.318C445.709 184.495 436.315 184.682 434.602 185.367C432.89 186.052 432.35 185.273 429.308 186.093C426.267 186.913 426.309 190.661 426.309 190.661L426.641 191.802L426.994 192.384C427.347 192.955 430.108 190.443 429.63 192.114C429.153 193.785 431.519 196.691 433.699 198.477C435.879 200.262 434.737 201.331 434.467 202.629C434.197 203.926 437.779 204.258 437.779 204.258C438.198 204.348 438.606 204.487 438.993 204.674C437.955 206.283 437.114 207.476 437.114 207.476L437.716 210.642C437.716 210.642 437.114 212.272 437.716 216.216C438.318 220.161 437.145 229.471 437.145 229.471L447.868 226.648C450.52 225.399 452.986 223.789 455.196 221.863C459.805 217.254 461.123 216.496 461.123 216.496C461.123 216.496 455.165 213.123 455.165 211.431Z" fill="#263238" stroke="#263238" stroke-linecap="round" stroke-linejoin="round"/>
<path d="M436.628 204.974C436.628 204.974 440.177 200.822 441.952 203.314C443.727 205.805 439.42 210.341 437.717 210.652C437.307 210.787 436.862 210.778 436.458 210.625C436.054 210.472 435.714 210.185 435.496 209.811" fill="white"/>
<path d="M436.628 204.974C436.628 204.974 440.177 200.822 441.952 203.314C443.727 205.805 439.42 210.341 437.717 210.652C437.307 210.787 436.862 210.778 436.458 210.625C436.054 210.472 435.714 210.185 435.496 209.811" stroke="#263238" stroke-linecap="round" stroke-linejoin="round"/>
<path d="M447.225 342.146H399.633V347.482H447.225V342.146Z" fill="white" stroke="#263238" stroke-linecap="round" stroke-linejoin="round"/>
<path d="M460.394 378.984L459.761 374.801H445.613L443.34 378.984H460.394Z" fill="white" stroke="#263238" stroke-linecap="round" stroke-linejoin="round"/>
<path d="M471.636 413.467L471.003 409.273H456.855L454.582 413.467H471.636Z" fill="white" stroke="#263238" stroke-linecap="round" stroke-linejoin="round"/>
<path d="M483.658 447.939L483.025 443.756H468.877L466.594 447.939H483.658Z" fill="white" stroke="#263238" stroke-linecap="round" stroke-linejoin="round"/>
<path d="M365.917 494.088C385.328 429.629 415.648 331.413 418.668 326.119C421.648 321.479 429.152 321.002 429.308 320.991C430.134 320.951 430.91 320.585 431.466 319.973C432.022 319.361 432.311 318.553 432.271 317.727C432.232 316.901 431.865 316.125 431.253 315.569C430.641 315.013 429.833 314.723 429.007 314.763C428.561 314.763 418.181 315.365 413.437 322.735C409.493 328.859 367.921 465.834 359.461 494.005L365.917 494.088Z" fill="white" stroke="#263238" stroke-linecap="round" stroke-linejoin="round"/>
<path d="M423.641 315.792L425.53 321.304L427.575 321.138L425.374 315.314L423.641 315.792Z" fill="#263238" stroke="#263238" stroke-linecap="round" stroke-linejoin="round"/>
<path d="M488.9 494.089H495.502L413.739 263.653C413.405 262.962 412.828 262.418 412.117 262.126C411.407 261.834 410.614 261.815 409.89 262.073C409.167 262.33 408.564 262.846 408.198 263.521C407.831 264.196 407.727 264.982 407.905 265.729L488.9 494.089Z" fill="white" stroke="#263238" stroke-linecap="round" stroke-linejoin="round"/>
<path d="M437.281 237.702C437.791 239.377 438.631 240.934 439.752 242.279C441.828 245.061 464.591 251.621 464.591 251.621C464.591 251.621 468.743 260.6 470.892 264.347C473.04 268.094 479.902 285.606 479.902 285.606L486.13 282.492L475.293 244.667C475.097 243.992 474.646 243.419 474.037 243.068L450.889 229.969" fill="#0F4C81"/>
<path d="M437.281 237.702C437.791 239.377 438.631 240.934 439.752 242.279C441.828 245.061 464.591 251.621 464.591 251.621C464.591 251.621 468.743 260.6 470.892 264.347C473.04 268.094 479.902 285.606 479.902 285.606L486.13 282.492L475.293 244.667C475.097 243.992 474.646 243.419 474.037 243.068L450.889 229.969" stroke="#263238" stroke-linecap="round" stroke-linejoin="round"/>
<path d="M490.403 291.597C490.206 291.14 489.801 290.361 489.417 289.645C489.417 289.593 489.417 289.541 489.417 289.489C489.292 287.465 486.095 282.607 486.095 282.607L479.867 285.721L480.5 292.904L480.23 296.994C480.387 297.115 480.567 297.202 480.759 297.25C480.951 297.298 481.151 297.305 481.346 297.272C481.541 297.239 481.727 297.166 481.892 297.057C482.058 296.949 482.199 296.807 482.306 296.641C482.838 295.527 483.053 294.288 482.929 293.06L484.497 295.686L487.206 300.876C487.472 300.956 487.754 300.972 488.028 300.923C488.302 300.874 488.561 300.762 488.784 300.596C489.5 300.025 486.708 295.24 486.708 295.24L488.192 297.046C488.192 297.046 488.763 300.627 489.334 301.053C489.905 301.478 490.912 301.053 490.766 300.627C490.549 299.45 490.549 298.244 490.766 297.067C491.015 295.237 490.891 293.377 490.403 291.597Z" fill="white" stroke="#263238" stroke-linecap="round" stroke-linejoin="round"/>
<path d="M486.555 293.703L486.773 295.229" stroke="#263238" stroke-linecap="round" stroke-linejoin="round"/>
<path d="M488.371 291.887L488.828 293.028L490.852 297.066" stroke="#263238" stroke-linecap="round" stroke-linejoin="round"/>
<path d="M489.688 289.707L490.404 291.596" stroke="#263238" stroke-linecap="round" stroke-linejoin="round"/>
<path d="M263.31 478.434L265.064 477.396C265.064 477.396 264.888 473.712 265.241 473.006C265.593 472.3 281.371 431.486 281.371 431.486C281.371 431.486 276.461 403.792 272.776 395.374C269.091 386.956 265.241 379.908 265.241 379.908L261.379 369.922L221.759 369.393L221.406 372.195L217.544 436.894L205.275 476.857C205.275 476.857 203.199 486.676 202.992 487.725C202.784 488.773 204.746 492.281 207.206 493.164C209.666 494.046 214.918 493.859 215.614 491.762C216.309 489.666 215.448 480.542 215.448 480.542L215.79 477.21L234.9 441.087C234.9 441.087 241.221 409.003 241.74 408.65C242.259 408.297 247.179 404.269 247.179 404.269L263.486 433.551L253.49 474.75L252.608 480.012C252.608 480.012 251.57 487.725 252.266 488.607C252.961 489.489 255.38 489.302 256.469 489.645C257.559 489.987 263.486 493.506 265.407 493.33C267.327 493.153 272.569 493.859 272.922 491.752C273.275 489.645 270.493 487.195 268.562 484.912C266.631 482.628 263.31 478.434 263.31 478.434Z" fill="#263238" stroke="#263238" stroke-linecap="round" stroke-linejoin="round"/>
<path d="M278.31 269.879L274.158 267.949C274.158 267.949 269.32 268.364 268.77 268.084C268.22 267.803 266.144 267.388 265.729 266.288C265.314 265.188 267.66 265.592 267.66 265.592L269.871 266.423C269.871 266.423 272.777 262.831 275.538 263.527L278.299 264.212C278.299 264.212 280.52 262.966 281.621 263.797C282.721 264.627 283.697 268.499 283.697 268.499L278.31 269.879Z" fill="white" stroke="#263238" stroke-linecap="round" stroke-linejoin="round"/>
<path d="M213.111 270.918C214.042 270.456 215.015 270.084 216.018 269.808C216.568 269.808 218.644 270.503 219.889 269.808C220.646 269.347 221.429 268.931 222.235 268.562C223.221 268.311 224.155 267.889 224.996 267.317C225.827 266.631 226.387 264.836 225.277 265.106C224.166 265.375 223.616 266.071 223.066 266.216C222.515 266.362 219.609 265.521 218.644 265.386C217.678 265.251 215.602 264.42 214.357 264.42C213.111 264.42 211.866 263.31 209.935 264.14C208.004 264.971 206.977 270.648 206.977 270.648L213.111 270.918Z" fill="white" stroke="#263238" stroke-linecap="round" stroke-linejoin="round"/>
<path d="M238.739 307.862L216.059 302.921L204.786 293.849L213.09 270.878L205.627 270.317C205.627 270.317 190.171 296.267 190.586 298.914C190.794 300.212 196.534 309.221 203.354 315.948C207.903 320.32 212.944 324.151 218.374 327.366L219.671 382.38L268.613 383.013L271.042 327.905C271.042 327.905 274.353 323.629 274.768 322.933C279.416 320.268 283.677 316.978 287.432 313.155C295.009 305.267 303.106 293.35 303.106 293.35L284.65 267.037L278.308 269.881L288.335 292.053L272.443 304.509L257.174 309.17L238.739 307.862Z" fill="#0F4C81" stroke="#263238" stroke-linecap="round" stroke-linejoin="round"/>
<path d="M237.066 310.289C237.066 310.289 237.783 319.704 241.634 324.094" stroke="#263238" stroke-linecap="round" stroke-linejoin="round"/>
<path d="M256.812 323.244C255.525 327.479 253.49 331.984 250.324 334.776" stroke="#263238" stroke-linecap="round" stroke-linejoin="round"/>
<path d="M258.909 312.512C258.656 315.181 258.208 317.828 257.57 320.432" stroke="#263238" stroke-linecap="round" stroke-linejoin="round"/>
<path d="M267.866 337.35C267.534 338.689 267.171 340.069 266.828 341.502" stroke="#263238" stroke-linecap="round" stroke-linejoin="round"/>
<path d="M271.708 319.871C271.708 319.871 270.597 325.975 268.594 334.465" stroke="#263238" stroke-linecap="round" stroke-linejoin="round"/>
<path d="M225.379 345.52C225.939 347.471 226.541 349.35 227.175 351.083" stroke="#263238" stroke-linecap="round" stroke-linejoin="round"/>
<path d="M219.465 314.266C220.597 323.662 222.275 332.986 224.489 342.188" stroke="#263238" stroke-linecap="round" stroke-linejoin="round"/>
<path d="M259.635 280.52C259.635 280.52 258.202 276.368 251.964 276.036C245.725 275.704 246.213 279.555 246.213 279.555L244.77 280.52L244.615 281.953C242.307 284.726 240.374 287.79 238.864 291.066C236.394 297.18 239.56 298.841 240.94 300.688C242.051 302.131 240.411 305.131 239.446 307.529C238.48 309.927 237.66 308.826 237.66 308.826L246.276 314.847L258.161 310.134C257.872 308.8 257.872 307.42 258.161 306.086C258.638 304.01 263.755 303.688 265.665 297.938C267.575 292.187 264.71 286.748 263.112 284.828C261.513 282.908 259.635 280.52 259.635 280.52Z" fill="white" stroke="#263238" stroke-linecap="round" stroke-linejoin="round"/>
<path d="M263.152 284.828C261.553 282.918 259.633 280.521 259.633 280.521C259.751 279.146 259.432 277.768 258.722 276.585C258.012 275.402 256.947 274.472 255.678 273.929C251.111 271.718 249.689 273.296 251.111 274.085C251.296 274.155 251.466 274.261 251.61 274.398C251.754 274.535 251.869 274.699 251.949 274.881C252.028 275.063 252.07 275.259 252.072 275.457C252.075 275.656 252.037 275.853 251.962 276.036C251.962 276.036 247.011 273.774 245.433 275.974C244.981 276.63 244.685 277.381 244.57 278.17C244.455 278.958 244.523 279.763 244.769 280.521L244.613 281.953C245.275 281.295 246.018 280.723 246.824 280.251C248.921 279.959 251 279.55 253.052 279.026C257.868 280.002 259.83 283.738 259.435 284.911C258.868 286.034 258.728 287.326 259.041 288.544C259.435 290.516 259.342 292.873 260.027 292.769C260.712 292.665 261.262 291.876 263.141 293.07C264.708 294.046 265.497 297.585 262.84 298.758C261.446 299.47 259.84 299.648 258.325 299.256C258.325 299.256 259.363 303.18 260.287 304.062C262.83 302.794 264.78 300.587 265.726 297.907C267.625 292.177 264.75 286.749 263.152 284.828Z" fill="#263238" stroke="#263238" stroke-linecap="round" stroke-linejoin="round"/>
<path d="M243.649 286.686C243.256 286.367 242.944 285.961 242.738 285.499C242.533 285.037 242.439 284.533 242.465 284.028C242.662 282.461 246.005 283.935 246.005 283.935" fill="white"/>
<path d="M243.649 286.686C243.256 286.367 242.944 285.961 242.738 285.499C242.533 285.037 242.439 284.533 242.465 284.028C242.662 282.461 246.005 283.935 246.005 283.935" stroke="#263238" stroke-linecap="round" stroke-linejoin="round"/>
<path d="M251.372 283.966C251.224 284.119 251.141 284.324 251.141 284.537C251.141 284.75 251.224 284.955 251.372 285.108C251.558 285.209 251.777 285.233 251.981 285.175C252.184 285.116 252.357 284.981 252.462 284.796C252.536 284.722 252.595 284.634 252.636 284.537C252.676 284.44 252.697 284.336 252.697 284.231C252.697 284.126 252.676 284.022 252.636 283.924C252.595 283.827 252.536 283.739 252.462 283.665C252.277 283.563 252.059 283.537 251.856 283.594C251.652 283.65 251.478 283.784 251.372 283.966Z" fill="#263238"/>
<path d="M249.73 282.335C249.73 282.335 252.844 279.688 254.453 282.927" stroke="#263238" stroke-miterlimit="10"/>
<path d="M246.793 282.336C246.495 282.087 246.138 281.919 245.756 281.849C245.374 281.778 244.981 281.806 244.613 281.931" stroke="#263238" stroke-linecap="round" stroke-linejoin="round"/>
<path d="M242.27 289.041C243.31 288.778 244.41 288.881 245.384 289.332" stroke="#263238" stroke-linecap="round" stroke-linejoin="round"/>
<path d="M257.103 298.664C256.628 299.357 255.939 299.875 255.141 300.138C254.103 300.335 251.113 299.256 251.113 299.256" stroke="#263238" stroke-linecap="round" stroke-linejoin="round"/>
<path d="M217.834 265.728L203.707 156.738H222.547L230.083 223.347L239.632 156.915H254.569L264.523 223.17L272.059 156.738H290.64L276.637 265.728H257.797L247.168 196.701L237.079 265.728H217.834Z" fill="#263238"/>
<path d="M60.2026 272.869C60.2026 272.869 65.5794 276.544 63.6903 279.865C61.8011 283.187 59.7563 281.536 59.7563 281.536L57.4727 275.194C57.4727 275.194 58.2823 272.859 60.2026 272.869Z" fill="#263238" stroke="#263238" stroke-linecap="round" stroke-linejoin="round"/>
<path d="M56.1851 272.735C56.1851 272.735 60.6382 274.749 61.4789 278.797C62.3197 282.845 61.5516 285.17 62.1329 286.343C62.7142 287.516 64.9978 288.99 64.458 290.038C63.9304 290.812 63.2165 291.44 62.382 291.865C62.382 291.865 60.7627 295.145 59.8078 297.221C58.8528 299.297 58.8424 300.273 57.794 300.699C56.4734 300.948 55.1226 300.997 53.7874 300.844C53.7874 300.844 51.8982 302.058 52.1785 303.429C52.3456 304.856 52.3456 306.298 52.1785 307.726L43.3555 307.165L45.6702 274.354C47.1474 273.226 48.8841 272.487 50.7212 272.204C52.5583 271.921 54.437 272.103 56.1851 272.735Z" fill="white" stroke="#263238" stroke-linecap="round" stroke-linejoin="round"/>
<path d="M59.8605 287.743C60.2905 287.743 60.639 287.163 60.639 286.446C60.639 285.729 60.2905 285.148 59.8605 285.148C59.4306 285.148 59.082 285.729 59.082 286.446C59.082 287.163 59.4306 287.743 59.8605 287.743Z" fill="#263238"/>
<path d="M58.0352 283.197C58.0352 283.197 59.3327 280.997 60.7651 282.294" stroke="#263238" stroke-linecap="round" stroke-linejoin="round"/>
<path d="M60.2048 293.846C59.7498 293.945 59.2761 293.913 58.8388 293.753C58.4015 293.593 58.0185 293.312 57.7344 292.943" stroke="#263238" stroke-linecap="round" stroke-linejoin="round"/>
<path d="M62.3329 273.96C62.3329 273.96 54.9838 275.963 53.8836 280.977C52.7833 285.99 53.3853 293.266 53.4476 295.612C53.5099 297.958 52.2954 298.27 52.8352 299.173C53.3749 300.076 56.0737 300.522 56.053 303.325C56.0322 306.127 51.901 308.359 52.5445 308.961C53.1881 309.563 54.3818 311.193 54.2261 312.075C54.0704 312.957 50.1364 308.629 46.1816 309.179C42.2268 309.729 40.1923 310.02 38.7184 312.293C37.6072 313.981 36.1537 315.417 34.4522 316.507C33.0717 317.545 35.5629 323.431 33.7464 325.351C32.5555 326.837 31.8329 328.644 31.6704 330.541C32.0276 330.933 32.2789 331.409 32.4007 331.925C32.5224 332.441 32.5104 332.979 32.3658 333.489C31.743 334.973 30.5286 335.274 30.3936 336.271C30.4226 337.121 30.6847 337.947 31.1514 338.658C31.1514 338.658 27.6118 336.24 26.2624 333.52C24.913 330.801 27.1239 326.877 27.1239 326.877C27.1239 326.877 24.9649 327.313 23.7919 323.877C22.619 320.441 22.2142 316.611 23.9995 314.535C25.7849 312.459 27.1135 312.708 25.297 309.906C23.4805 307.103 23.0342 302.733 25.297 300.885C27.5599 299.038 30.103 295.633 29.366 294.346C28.629 293.059 25.951 292.415 26.989 289.208C27.7572 286.991 29.1134 285.025 30.9126 283.52C31.6496 282.855 34.3899 282.606 33.954 277.541C33.518 272.475 43.7527 267.275 49.8665 268.354L55.9907 269.392C55.9907 269.392 64.6995 267.098 62.3329 273.96Z" fill="#263238" stroke="#263238" stroke-linecap="round" stroke-linejoin="round"/>
<path d="M30.101 409.439L29.7792 422.996C29.7792 422.996 24.5892 433.801 23.1672 440.102C21.7451 446.403 12.5173 474.356 12.5173 474.356C12.5173 474.356 9.93268 477.584 10.4413 479.837C10.9499 482.089 23.9976 486.615 26.904 487.58C29.8104 488.545 34.6475 489.521 35.291 488.39C35.9346 487.258 31.575 483.874 31.575 483.874C31.575 483.874 24.6411 475.643 24.4751 474.678C24.309 473.712 23.6758 474.034 24.4751 471.564C25.2743 469.093 41.4256 433.967 42.1211 432.514C42.8165 431.061 45.3492 426.546 46.2731 423.961C47.1969 421.376 49.1795 409.927 49.1795 409.927L56.6012 428.964C56.6012 428.964 55.6358 441.711 59.1858 449.133C62.7357 456.554 66.6075 471.886 66.9293 473.505C67.251 475.124 66.7736 478.186 67.0953 480.439C67.4171 482.691 67.8946 482.868 68.5485 483.189C69.2025 483.511 75.3163 482.546 76.7695 482.546C78.2227 482.546 82.4266 484.622 85.0008 484.964C87.5751 485.307 92.7547 484.798 93.72 483.833C94.6854 482.868 91.779 481.414 90.8136 481.414C89.8483 481.414 78.2227 473.505 77.5791 472.695C76.9848 471.73 76.4975 470.704 76.1259 469.633L70.801 429.151L67.251 410.104L30.101 409.439Z" fill="white" stroke="#263238" stroke-linecap="round" stroke-linejoin="round"/>
<path d="M29.9961 414.285L48.1922 414.41L48.7009 411.607L50.3617 411.991L51.3789 415.168L67.416 413.009L49.1472 409.926L30.2452 411.483L29.9961 414.285Z" fill="#263238" stroke="#263238" stroke-linecap="round" stroke-linejoin="round"/>
<path d="M103.498 306.396L76.5103 322.029L55.4805 315.697L60.6912 329.658L77.4445 331.516L102.377 312.905L103.498 306.396Z" fill="white" stroke="#263238" stroke-linecap="round" stroke-linejoin="round"/>
<path d="M37.8852 309.584C37.8852 309.584 34.2729 311.898 31.9582 319.372C29.6434 326.846 35.0722 343.194 35.0722 343.194L35.5808 345.644C35.5808 345.644 35.0722 347.066 35.9649 347.066C36.8575 347.066 32.363 353.117 29.0103 362.387C25.6575 371.656 26.052 366.642 26.052 375.528C26.052 384.413 24.9102 412.626 24.9102 412.626L68.9629 412.885C68.9629 412.885 63.6795 370.888 63.6795 369.86C63.6795 368.833 63.939 348.477 63.939 348.477C63.939 348.477 64.977 330.707 63.0359 324.905C60.7712 318.727 56.6298 313.413 51.1923 309.708C46.1269 306.49 40.584 307.518 37.8852 309.584Z" fill="#0F4C81" stroke="#263238" stroke-linecap="round" stroke-linejoin="round"/>
<path d="M26.5517 476.441L20.2614 484.673C20.2614 484.673 9.6115 481.123 9.12364 481.559C8.63578 481.995 8.0026 492.063 9.34162 493.049C10.6806 494.036 16.1198 493.215 16.1198 493.215C16.1198 493.215 35.8418 495.79 37.5856 495.291C39.3294 494.793 39.6616 489.157 39.0388 488.991C38.416 488.825 26.9357 487.538 26.9357 487.538L30.8075 482.057L26.5517 476.441Z" fill="#C7C7C7" stroke="#263238" stroke-linecap="round" stroke-linejoin="round"/>
<path d="M66.8984 484.32C66.8984 484.32 66.8984 490.61 67.3863 491.254C67.9453 491.701 68.5961 492.019 69.2922 492.186C69.9884 492.353 70.7128 492.364 71.4137 492.219C74.0293 491.708 76.6692 491.33 79.3233 491.088C80.6208 491.088 90.6167 491.898 92.8796 491.254C95.1424 490.61 97.3949 488.836 97.3949 487.87C97.2144 486.348 96.9475 484.837 96.5956 483.344L89.1739 484.642L89.8175 480.282L83.5168 476.732L80.6208 483.511L66.8984 484.32Z" fill="#C7C7C7" stroke="#263238" stroke-linecap="round" stroke-linejoin="round"/>
<path d="M112.105 301.02C112.105 301.02 113.04 302.504 112.666 303.438C112.292 304.372 109.137 305.296 109.137 305.296L112.105 301.02Z" fill="white" stroke="#263238" stroke-linecap="round" stroke-linejoin="round"/>
<path d="M110.94 303.604C110.94 303.604 111.864 305.088 111.501 306.022C111.137 306.956 107.961 307.88 107.961 307.88L110.94 303.604Z" fill="white" stroke="#263238" stroke-linecap="round" stroke-linejoin="round"/>
<path d="M110.026 305.836C110.026 305.836 110.96 307.32 110.586 308.254C110.213 309.189 107.047 310.112 107.047 310.112L110.026 305.836Z" fill="white" stroke="#263238" stroke-linecap="round" stroke-linejoin="round"/>
<path d="M108.147 307.133C108.147 307.133 109.081 308.628 108.708 309.562C108.334 310.496 105.168 311.42 105.168 311.42L108.147 307.133Z" fill="white" stroke="#263238" stroke-linecap="round" stroke-linejoin="round"/>
<path d="M181.246 274.229C174.573 285.002 164.313 293.075 152.273 297.026C140.233 300.978 127.185 300.554 115.426 295.83C115.314 296.075 115.189 296.314 115.052 296.546L97.7387 324.572C97.4284 325.041 97.0813 325.486 96.7007 325.9C97.4206 327.945 97.674 330.125 97.4423 332.28C97.2106 334.435 96.4997 336.512 95.3616 338.356L65.3946 386.841C64.4691 388.609 63.1894 390.167 61.6354 391.419C60.0813 392.671 58.2862 393.589 56.3618 394.116C54.4374 394.644 52.4249 394.769 50.4499 394.485C48.4749 394.201 46.5796 393.513 44.882 392.464C43.1845 391.415 41.7212 390.028 40.5832 388.389C39.4452 386.75 38.657 384.894 38.2676 382.937C37.8783 380.98 37.8961 378.964 38.32 377.014C38.744 375.064 39.5649 373.222 40.7317 371.604L70.7195 323.087C71.8562 321.248 73.3909 319.687 75.2107 318.52C77.0304 317.352 79.0889 316.607 81.2345 316.34C81.4359 315.822 81.6825 315.321 81.9714 314.846L99.2853 286.82C99.4306 286.591 99.5967 286.373 99.7524 286.166C92.0845 279.362 86.5193 270.51 83.7112 260.651C80.9031 250.792 80.9691 240.336 83.9013 230.513C86.8335 220.691 92.5101 211.91 100.263 205.203C108.016 198.497 117.523 194.144 127.666 192.657C137.809 191.17 148.165 192.611 157.517 196.809C166.869 201.008 174.827 207.79 180.455 216.358C186.084 224.926 189.148 234.923 189.288 245.173C189.428 255.423 186.638 265.5 181.246 274.218V274.229ZM98.3718 222.983C93.8417 230.317 91.5876 238.83 91.8946 247.445C92.2015 256.06 95.0557 264.391 100.096 271.384C105.137 278.378 112.138 283.72 120.214 286.735C128.29 289.75 137.079 290.303 145.469 288.325C153.86 286.346 161.475 281.924 167.353 275.618C173.231 269.312 177.108 261.405 178.493 252.897C179.878 244.388 178.709 235.66 175.134 227.815C171.56 219.971 165.74 213.362 158.41 208.824C153.539 205.809 148.121 203.783 142.467 202.863C136.813 201.943 131.032 202.146 125.456 203.461C119.881 204.775 114.619 207.176 109.971 210.526C105.324 213.876 101.382 218.109 98.3718 222.983Z" fill="#263238"/>
<path d="M36.3314 313.475C34.8179 316.832 34.4107 320.584 35.1688 324.187C36.3314 330.613 38.7811 332.024 38.7811 332.024C38.7811 332.024 47.6663 357.279 48.3099 357.528C48.7157 357.687 49.1563 357.735 49.5867 357.667C50.0171 357.6 50.4218 357.419 50.7596 357.144C51.4031 356.5 76.1387 339.114 76.1387 339.114C76.1387 339.114 82.5743 338.595 82.9583 338.595C84.0033 338.041 84.9968 337.395 85.927 336.664L89.4043 335.118C89.4043 335.118 90.3074 333.706 89.6638 333.571C89.0203 333.436 80.9031 331.9 80.5087 331.495C80.1142 331.09 85.024 329.948 85.024 329.948C85.024 329.948 84.7645 328.277 83.7368 328.526C82.7092 328.775 80.5087 329.429 79.097 329.813C77.2087 330.446 75.6388 331.785 74.7166 333.55C74.2161 334.661 73.3522 335.569 72.2669 336.124L54.4964 342.446C54.4964 342.446 54.3614 323.253 53.2093 317.326C52.0571 311.399 48.0193 308.565 44.3136 308.431C40.6079 308.296 38.0337 310.205 36.3314 313.475Z" fill="white" stroke="#263238" stroke-linecap="round" stroke-linejoin="round"/>
<path d="M38.8117 331.973L36.7461 324.115" stroke="#263238" stroke-linecap="round" stroke-linejoin="round"/>
<defs>
<filter id="filter0_d_518_139" x="89.5617" y="412.642" width="94.3883" height="80.775" filterUnits="userSpaceOnUse" color-interpolation-filters="sRGB">
<feFlood flood-opacity="0" result="BackgroundImageFix"/>
<feColorMatrix in="SourceAlpha" type="matrix" values="0 0 0 0 0 0 0 0 0 0 0 0 0 0 0 0 0 0 127 0" result="hardAlpha"/>
<feOffset/>
<feGaussianBlur stdDeviation="4.35"/>
<feComposite in2="hardAlpha" operator="out"/>
<feColorMatrix type="matrix" values="0 0 0 0 1 0 0 0 0 1 0 0 0 0 1 0 0 0 1 0"/>
<feBlend mode="normal" in2="BackgroundImageFix" result="effect1_dropShadow_518_139"/>
<feBlend mode="normal" in="SourceGraphic" in2="effect1_dropShadow_518_139" result="shape"/>
</filter>
<filter id="filter1_d_518_139" x="376.015" y="412.642" width="94.3531" height="80.775" filterUnits="userSpaceOnUse" color-interpolation-filters="sRGB">
<feFlood flood-opacity="0" result="BackgroundImageFix"/>
<feColorMatrix in="SourceAlpha" type="matrix" values="0 0 0 0 0 0 0 0 0 0 0 0 0 0 0 0 0 0 127 0" result="hardAlpha"/>
<feOffset/>
<feGaussianBlur stdDeviation="4.35"/>
<feComposite in2="hardAlpha" operator="out"/>
<feColorMatrix type="matrix" values="0 0 0 0 1 0 0 0 0 1 0 0 0 0 1 0 0 0 1 0"/>
<feBlend mode="normal" in2="BackgroundImageFix" result="effect1_dropShadow_518_139"/>
<feBlend mode="normal" in="SourceGraphic" in2="effect1_dropShadow_518_139" result="shape"/>
</filter>
<filter id="filter2_d_518_139" x="38.1" y="41.6527" width="156.706" height="162.236" filterUnits="userSpaceOnUse" color-interpolation-filters="sRGB">
<feFlood flood-opacity="0" result="BackgroundImageFix"/>
<feColorMatrix in="SourceAlpha" type="matrix" values="0 0 0 0 0 0 0 0 0 0 0 0 0 0 0 0 0 0 127 0" result="hardAlpha"/>
<feOffset dy="4"/>
<feGaussianBlur stdDeviation="6.95"/>
<feComposite in2="hardAlpha" operator="out"/>
<feColorMatrix type="matrix" values="0 0 0 0 1 0 0 0 0 1 0 0 0 0 1 0 0 0 1 0"/>
<feBlend mode="normal" in2="BackgroundImageFix" result="effect1_dropShadow_518_139"/>
<feBlend mode="normal" in="SourceGraphic" in2="effect1_dropShadow_518_139" result="shape"/>
</filter>
<filter id="filter3_d_518_139" x="347.682" y="37.9203" width="147.933" height="164.812" filterUnits="userSpaceOnUse" color-interpolation-filters="sRGB">
<feFlood flood-opacity="0" result="BackgroundImageFix"/>
<feColorMatrix in="SourceAlpha" type="matrix" values="0 0 0 0 0 0 0 0 0 0 0 0 0 0 0 0 0 0 127 0" result="hardAlpha"/>
<feOffset/>
<feGaussianBlur stdDeviation="5.2"/>
<feComposite in2="hardAlpha" operator="out"/>
<feColorMatrix type="matrix" values="0 0 0 0 1 0 0 0 0 1 0 0 0 0 1 0 0 0 1 0"/>
<feBlend mode="normal" in2="BackgroundImageFix" result="effect1_dropShadow_518_139"/>
<feBlend mode="normal" in="SourceGraphic" in2="effect1_dropShadow_518_139" result="shape"/>
</filter>
</defs>
</svg>
