<svg width="500" height="500" viewBox="0 0 500 500" fill="none" xmlns="http://www.w3.org/2000/svg">
<path d="M161 207L142.403 163H112.852L94 207H161Z" fill="url(#paint0_radial_332_176)"/>
<path d="M411.28 333.357C418.756 272.304 382.536 191.159 344.983 157.651C277.19 97.1594 220.868 108.857 177.063 130.525C133.258 152.193 127 224.53 96.7545 257.259C66.5085 289.988 49.3025 334.01 95.1935 377.833C141.084 421.656 178.106 399.388 226.083 396.611C274.061 393.834 337.682 415.715 372.102 396.688C396.135 383.401 407.976 360.342 411.28 333.357Z" fill="#0F4C81"/>
<path opacity="0.7" d="M411.28 333.357C418.756 272.304 382.536 191.159 344.983 157.651C277.19 97.1594 220.868 108.857 177.063 130.525C133.258 152.193 127 224.53 96.7545 257.259C66.5085 289.988 49.3025 334.01 95.1935 377.833C141.084 421.656 178.106 399.388 226.083 396.611C274.061 393.834 337.682 415.715 372.102 396.688C396.135 383.401 407.976 360.342 411.28 333.357Z" fill="white"/>
<path d="M220.609 330.953V106.014" stroke="#263238" stroke-miterlimit="10" stroke-linecap="round" stroke-linejoin="round"/>
<path d="M74.3945 333.178H216.287L431.854 402.76" stroke="#263238" stroke-miterlimit="10" stroke-linecap="round" stroke-linejoin="round"/>
<path d="M139.032 327.903H129.203V165.838H149.433L140.701 134.328H114.505L105.773 165.838H126.002V327.903H116.173C110.932 327.903 106.68 332.104 106.582 337.321C106.58 337.345 106.573 337.369 106.573 337.393C106.573 337.404 106.577 337.414 106.577 337.424C106.577 337.45 106.573 337.476 106.573 337.503H106.587C106.881 339.763 116.165 341.578 127.583 341.578C139.002 341.578 148.286 339.763 148.58 337.503H148.632C148.632 332.201 144.334 327.903 139.032 327.903Z" fill="white"/>
<path d="M269.59 94.8587V285.684L413.257 309.32V71.2227L269.59 94.8587ZM409.533 149.499L336.484 153.636V87.3427L409.533 75.7187V149.499ZM336.484 160.614L409.533 157.265V223.926L336.484 220.511V160.614ZM330.556 220.233L272.004 217.496V163.571L330.556 160.886V220.233ZM330.556 88.2857V153.972L272.004 157.288V97.6027L330.556 88.2857ZM272.004 223.779L330.556 227.148V292.257L272.004 282.94V223.779ZM336.484 293.2V227.488L409.533 231.691V304.824L336.484 293.2Z" fill="white" stroke="#263238" stroke-miterlimit="10" stroke-linecap="round" stroke-linejoin="round"/>
<path d="M213.809 235.154L242.555 252.16L296.003 248.5L277.504 235.154L213.809 235.154Z" fill="url(#paint1_radial_332_176)"/>
<path d="M220.04 425.954C283.523 425.954 334.986 409.92 334.986 390.14C334.986 370.361 283.523 354.326 220.04 354.326C156.557 354.326 105.094 370.361 105.094 390.14C105.094 409.92 156.557 425.954 220.04 425.954Z" fill="#0F4C81"/>
<path opacity="0.5" d="M220.04 425.954C283.523 425.954 334.986 409.92 334.986 390.14C334.986 370.361 283.523 354.326 220.04 354.326C156.557 354.326 105.094 370.361 105.094 390.14C105.094 409.92 156.557 425.954 220.04 425.954Z" fill="white"/>
<path d="M210.329 232.239C210.329 232.239 184.279 229.154 167.141 242.522C150.003 255.89 135.264 311.759 135.607 338.494C135.95 365.229 145.89 378.597 170.911 389.565C195.932 400.533 242.548 396.42 268.597 388.194C294.647 379.968 303.216 351.176 302.873 335.752C302.53 320.328 285.392 302.504 279.565 298.734C273.738 294.964 257.286 287.08 249.059 274.741C240.834 262.401 228.837 235.666 210.329 232.239Z" fill="#0F4C81"/>
<mask id="mask0_332_176" style="mask-type:luminance" maskUnits="userSpaceOnUse" x="135" y="231" width="168" height="166">
<path d="M210.329 232.239C210.329 232.239 184.279 229.154 167.141 242.522C150.003 255.89 135.264 311.759 135.607 338.494C135.95 365.229 145.89 378.597 170.911 389.565C195.932 400.533 242.548 396.42 268.597 388.194C294.647 379.968 303.216 351.176 302.873 335.752C302.53 320.328 285.392 302.504 279.565 298.734C273.738 294.964 257.286 287.08 249.059 274.741C240.834 262.401 228.837 235.666 210.329 232.239Z" fill="white"/>
</mask>
<g mask="url(#mask0_332_176)">
<path opacity="0.13" d="M273.375 386.374C263.525 385.044 251.845 382.371 243.003 377.002C224.336 365.669 219.67 344.335 213.003 336.335C206.336 328.335 194.336 329.002 189.003 320.335C183.67 311.668 192.336 247.668 177.003 243.668C172.883 242.593 169.781 242.244 167.437 242.303C167.339 242.378 167.238 242.446 167.141 242.521C150.003 255.889 135.264 311.758 135.607 338.494C135.95 365.229 145.89 378.597 170.911 389.565C195.932 400.533 242.548 396.42 268.597 388.194C270.261 387.67 271.852 387.058 273.375 386.374Z" fill="black"/>
</g>
<path d="M210.329 232.239C210.329 232.239 184.279 229.154 167.141 242.522C150.003 255.89 135.264 311.759 135.607 338.494C135.95 365.229 145.89 378.597 170.911 389.565C195.932 400.533 242.548 396.42 268.597 388.194C294.647 379.968 303.216 351.176 302.873 335.752C302.53 320.328 285.392 302.504 279.565 298.734C273.738 294.964 257.286 287.08 249.059 274.741C240.834 262.401 228.837 235.666 210.329 232.239Z" stroke="#263238" stroke-miterlimit="10" stroke-linecap="round" stroke-linejoin="round"/>
<path d="M200.07 244.32C200.07 244.32 183.07 247.57 180.07 250.57C177.07 253.57 164.57 300.57 164.57 300.57C164.57 300.57 170.07 299.07 175.07 301.07C180.07 303.07 180.57 308.32 181.07 310.82C181.57 313.32 181.82 319.82 181.82 319.82C181.82 319.82 232.354 315.306 243.104 312.806C253.854 310.306 270.214 309.156 270.214 309.156C270.214 309.156 242.57 246.82 238.32 244.57C234.07 242.32 216.32 242.07 213.82 242.57C211.32 243.07 200.07 244.32 200.07 244.32Z" fill="#263238" stroke="#263238" stroke-miterlimit="10" stroke-linecap="round" stroke-linejoin="round"/>
<path d="M183.32 302.07L187.57 267.32" stroke="white" stroke-miterlimit="10" stroke-linecap="round" stroke-linejoin="round"/>
<path d="M186.57 276.57L192.32 269.07" stroke="white" stroke-miterlimit="10" stroke-linecap="round" stroke-linejoin="round"/>
<path d="M203.82 281.07C203.82 281.07 220.07 275.82 230.82 275.82" stroke="white" stroke-miterlimit="10" stroke-linecap="round" stroke-linejoin="round"/>
<path d="M219.158 266.736L218.07 275.069C218.07 275.069 220.82 275.069 221.07 276.319C221.32 277.569 220.07 278.819 220.07 278.819C220.07 278.819 227.82 283.069 228.82 288.069" stroke="white" stroke-miterlimit="10" stroke-linecap="round" stroke-linejoin="round"/>
<path d="M209.403 234.987C209.403 234.987 200.07 237.987 198.736 240.32C197.403 242.653 198.403 258.987 198.403 260.987C198.403 262.987 199.57 259.82 200.57 257.487C201.57 255.154 205.07 251.654 206.237 251.987C207.404 252.32 208.07 253.654 208.07 255.82C208.07 257.987 210.737 260.987 213.07 262.653C215.403 264.32 217.57 265.986 217.57 265.986C217.57 265.986 222.403 258.986 223.57 257.153C224.737 255.32 224.57 251.486 224.737 250.153C224.904 248.82 227.904 253.82 228.57 252.486C229.237 251.153 227.07 249.986 224.737 246.319C222.404 242.652 223.07 238.819 219.57 236.152C216.07 233.487 212.07 234.32 209.403 234.987Z" fill="white"/>
<mask id="mask1_332_176" style="mask-type:luminance" maskUnits="userSpaceOnUse" x="198" y="234" width="31" height="32">
<path d="M209.403 234.987C209.403 234.987 200.07 237.987 198.736 240.32C197.403 242.653 198.403 258.987 198.403 260.987C198.403 262.987 199.57 259.82 200.57 257.487C201.57 255.154 205.07 251.654 206.237 251.987C207.404 252.32 208.07 253.654 208.07 255.82C208.07 257.987 210.737 260.987 213.07 262.653C215.403 264.32 217.57 265.986 217.57 265.986C217.57 265.986 222.403 258.986 223.57 257.153C224.737 255.32 224.57 251.486 224.737 250.153C224.904 248.82 227.904 253.82 228.57 252.486C229.237 251.153 227.07 249.986 224.737 246.319C222.404 242.652 223.07 238.819 219.57 236.152C216.07 233.487 212.07 234.32 209.403 234.987Z" fill="white"/>
</mask>
<g mask="url(#mask1_332_176)">
<path d="M198.736 240.319C197.846 241.876 197.996 249.663 198.193 255.27C200.318 252.527 204.707 247.355 207.25 248.333C210.487 249.578 211.732 258.791 211.732 258.791L209.545 234.951C209.498 234.963 209.448 234.974 209.402 234.986C209.402 234.986 200.069 237.986 198.736 240.319Z" fill="#0F4C81"/>
</g>
<mask id="mask2_332_176" style="mask-type:luminance" maskUnits="userSpaceOnUse" x="198" y="234" width="31" height="32">
<path d="M209.403 234.987C209.403 234.987 200.07 237.987 198.736 240.32C197.403 242.653 198.403 258.987 198.403 260.987C198.403 262.987 199.57 259.82 200.57 257.487C201.57 255.154 205.07 251.654 206.237 251.987C207.404 252.32 208.07 253.654 208.07 255.82C208.07 257.987 210.737 260.987 213.07 262.653C215.403 264.32 217.57 265.986 217.57 265.986C217.57 265.986 222.403 258.986 223.57 257.153C224.737 255.32 224.57 251.486 224.737 250.153C224.904 248.82 227.904 253.82 228.57 252.486C229.237 251.153 227.07 249.986 224.737 246.319C222.404 242.652 223.07 238.819 219.57 236.152C216.07 233.487 212.07 234.32 209.403 234.987Z" fill="white"/>
</mask>
<g mask="url(#mask2_332_176)">
<path opacity="0.5" d="M198.736 240.319C197.846 241.876 197.996 249.663 198.193 255.27C200.318 252.527 204.707 247.355 207.25 248.333C210.487 249.578 211.732 258.791 211.732 258.791L209.545 234.951C209.498 234.963 209.448 234.974 209.402 234.986C209.402 234.986 200.069 237.986 198.736 240.319Z" fill="white"/>
</g>
<path d="M209.403 234.987C209.403 234.987 200.07 237.987 198.736 240.32C197.403 242.653 198.403 258.987 198.403 260.987C198.403 262.987 199.57 259.82 200.57 257.487C201.57 255.154 205.07 251.654 206.237 251.987C207.404 252.32 208.07 253.654 208.07 255.82C208.07 257.987 210.737 260.987 213.07 262.653C215.403 264.32 217.57 265.986 217.57 265.986C217.57 265.986 222.403 258.986 223.57 257.153C224.737 255.32 224.57 251.486 224.737 250.153C224.904 248.82 227.904 253.82 228.57 252.486C229.237 251.153 227.07 249.986 224.737 246.319C222.404 242.652 223.07 238.819 219.57 236.152C216.07 233.487 212.07 234.32 209.403 234.987Z" stroke="#263238" stroke-miterlimit="10" stroke-linecap="round" stroke-linejoin="round"/>
<path d="M187.321 302.569C187.321 302.569 181.571 294.319 174.571 293.569C167.571 292.819 159.071 298.569 158.821 300.569C158.571 302.569 156.821 313.319 158.071 314.819C159.321 316.319 164.071 317.569 173.321 314.569C182.571 311.569 186.321 307.819 187.321 302.569Z" fill="white"/>
<mask id="mask3_332_176" style="mask-type:luminance" maskUnits="userSpaceOnUse" x="157" y="293" width="31" height="24">
<path d="M187.321 302.569C187.321 302.569 181.571 294.319 174.571 293.569C167.571 292.819 159.071 298.569 158.821 300.569C158.571 302.569 156.821 313.319 158.071 314.819C159.321 316.319 164.071 317.569 173.321 314.569C182.571 311.569 186.321 307.819 187.321 302.569Z" fill="white"/>
</mask>
<g mask="url(#mask3_332_176)">
<path d="M163.928 314.565C163.928 314.565 161.936 308.838 162.932 306.846C163.928 304.854 167.912 301.866 170.402 298.878C172.892 295.89 164.571 300.569 164.177 298.878C163.86 297.517 168.561 294.803 170.412 293.793C164.592 294.907 159.022 298.955 158.821 300.569C158.571 302.569 156.821 313.319 158.071 314.819C158.716 315.593 160.303 316.296 162.952 316.387C163.555 315.335 163.928 314.565 163.928 314.565Z" fill="#0F4C81"/>
</g>
<mask id="mask4_332_176" style="mask-type:luminance" maskUnits="userSpaceOnUse" x="157" y="293" width="31" height="24">
<path d="M187.321 302.569C187.321 302.569 181.571 294.319 174.571 293.569C167.571 292.819 159.071 298.569 158.821 300.569C158.571 302.569 156.821 313.319 158.071 314.819C159.321 316.319 164.071 317.569 173.321 314.569C182.571 311.569 186.321 307.819 187.321 302.569Z" fill="white"/>
</mask>
<g mask="url(#mask4_332_176)">
<path opacity="0.5" d="M163.928 314.565C163.928 314.565 161.936 308.838 162.932 306.846C163.928 304.854 167.912 301.866 170.402 298.878C172.892 295.89 164.571 300.569 164.177 298.878C163.86 297.517 168.561 294.803 170.412 293.793C164.592 294.907 159.022 298.955 158.821 300.569C158.571 302.569 156.821 313.319 158.071 314.819C158.716 315.593 160.303 316.296 162.952 316.387C163.555 315.335 163.928 314.565 163.928 314.565Z" fill="white"/>
</g>
<path d="M187.321 302.569C187.321 302.569 181.571 294.319 174.571 293.569C167.571 292.819 159.071 298.569 158.821 300.569C158.571 302.569 156.821 313.319 158.071 314.819C159.321 316.319 164.071 317.569 173.321 314.569C182.571 311.569 186.321 307.819 187.321 302.569Z" stroke="#263238" stroke-miterlimit="10" stroke-linecap="round" stroke-linejoin="round"/>
<path d="M167.821 304.82C167.821 304.82 158.439 308.544 158.071 315.82C157.867 319.846 164.571 321.57 171.571 321.57C178.571 321.57 188.571 312.82 195.071 309.07C201.571 305.32 216.571 296.57 218.321 295.82C220.071 295.07 226.071 297.07 228.571 297.82C231.071 298.57 235.821 298.57 235.821 298.57C235.821 298.57 239.321 304.07 241.071 304.07C242.821 304.07 237.321 295.82 236.571 294.07C235.821 292.32 223.571 288.32 222.071 288.32C220.571 288.32 185.571 297.07 180.321 299.07C175.071 301.07 167.821 304.82 167.821 304.82Z" fill="white"/>
<mask id="mask5_332_176" style="mask-type:luminance" maskUnits="userSpaceOnUse" x="158" y="288" width="84" height="34">
<path d="M167.821 304.82C167.821 304.82 158.439 308.544 158.071 315.82C157.867 319.846 164.571 321.57 171.571 321.57C178.571 321.57 188.571 312.82 195.071 309.07C201.571 305.32 216.571 296.57 218.321 295.82C220.071 295.07 226.071 297.07 228.571 297.82C231.071 298.57 235.821 298.57 235.821 298.57C235.821 298.57 239.321 304.07 241.071 304.07C242.821 304.07 237.321 295.82 236.571 294.07C235.821 292.32 223.571 288.32 222.071 288.32C220.571 288.32 185.571 297.07 180.321 299.07C175.071 301.07 167.821 304.82 167.821 304.82Z" fill="white"/>
</mask>
<g mask="url(#mask5_332_176)">
<path d="M187.428 303.779C201.724 296.631 222.071 288.32 222.071 288.32C220.571 288.32 185.571 297.07 180.321 299.07C175.071 301.07 167.821 304.82 167.821 304.82C167.821 304.82 158.439 308.544 158.071 315.82C157.867 319.846 164.571 321.57 171.571 321.57C178.571 321.57 188.571 312.82 195.071 309.07C196.174 308.434 197.524 307.652 199.01 306.791C189.459 308.021 176.698 309.144 187.428 303.779Z" fill="#0F4C81"/>
</g>
<mask id="mask6_332_176" style="mask-type:luminance" maskUnits="userSpaceOnUse" x="158" y="288" width="84" height="34">
<path d="M167.821 304.82C167.821 304.82 158.439 308.544 158.071 315.82C157.867 319.846 164.571 321.57 171.571 321.57C178.571 321.57 188.571 312.82 195.071 309.07C201.571 305.32 216.571 296.57 218.321 295.82C220.071 295.07 226.071 297.07 228.571 297.82C231.071 298.57 235.821 298.57 235.821 298.57C235.821 298.57 239.321 304.07 241.071 304.07C242.821 304.07 237.321 295.82 236.571 294.07C235.821 292.32 223.571 288.32 222.071 288.32C220.571 288.32 185.571 297.07 180.321 299.07C175.071 301.07 167.821 304.82 167.821 304.82Z" fill="white"/>
</mask>
<g mask="url(#mask6_332_176)">
<path opacity="0.5" d="M187.428 303.779C201.724 296.631 222.071 288.32 222.071 288.32C220.571 288.32 185.571 297.07 180.321 299.07C175.071 301.07 167.821 304.82 167.821 304.82C167.821 304.82 158.439 308.544 158.071 315.82C157.867 319.846 164.571 321.57 171.571 321.57C178.571 321.57 188.571 312.82 195.071 309.07C196.174 308.434 197.524 307.652 199.01 306.791C189.459 308.021 176.698 309.144 187.428 303.779Z" fill="white"/>
</g>
<path d="M167.821 304.82C167.821 304.82 158.439 308.544 158.071 315.82C157.867 319.846 164.571 321.57 171.571 321.57C178.571 321.57 188.571 312.82 195.071 309.07C201.571 305.32 216.571 296.57 218.321 295.82C220.071 295.07 226.071 297.07 228.571 297.82C231.071 298.57 235.821 298.57 235.821 298.57C235.821 298.57 239.321 304.07 241.071 304.07C242.821 304.07 237.321 295.82 236.571 294.07C235.821 292.32 223.571 288.32 222.071 288.32C220.571 288.32 185.571 297.07 180.321 299.07C175.071 301.07 167.821 304.82 167.821 304.82Z" stroke="#263238" stroke-miterlimit="10" stroke-linecap="round" stroke-linejoin="round"/>
<path d="M240.938 249.217L233.32 292.07L288.32 292.32L296.501 251.684C296.81 250.151 295.665 248.71 294.103 248.663L243.501 247.136C242.248 247.097 241.158 247.983 240.938 249.217Z" fill="black" stroke="#263238" stroke-miterlimit="10" stroke-linecap="round" stroke-linejoin="round"/>
<path d="M233.32 292.068L206.539 311.01L267.789 309.26L288.32 292.318L233.32 292.068Z" fill="white"/>
<mask id="mask7_332_176" style="mask-type:luminance" maskUnits="userSpaceOnUse" x="206" y="292" width="83" height="20">
<path d="M233.32 292.068L206.539 311.01L267.789 309.26L288.32 292.318L233.32 292.068Z" fill="white"/>
</mask>
<g mask="url(#mask7_332_176)">
<path d="M233.32 292.068L206.539 311.01L267.789 309.26L288.32 292.318L233.32 292.068Z" fill="#0F4C81"/>
</g>
<mask id="mask8_332_176" style="mask-type:luminance" maskUnits="userSpaceOnUse" x="206" y="292" width="83" height="20">
<path d="M233.32 292.068L206.539 311.01L267.789 309.26L288.32 292.318L233.32 292.068Z" fill="white"/>
</mask>
<g mask="url(#mask8_332_176)">
<path opacity="0.5" d="M233.32 292.068L206.539 311.01L267.789 309.26L288.32 292.318L233.32 292.068Z" fill="white"/>
</g>
<path d="M233.32 292.068L206.539 311.01L267.789 309.26L288.32 292.318L233.32 292.068Z" stroke="#263238" stroke-miterlimit="10" stroke-linecap="round" stroke-linejoin="round"/>
<path d="M253.57 310.82C253.57 310.82 275.57 291.57 297.32 285.07C319.07 278.57 323.57 279.57 323.07 289.32C322.57 299.07 312.07 350.07 305.07 363.07C298.07 376.07 289.32 399.82 289.57 404.32C289.82 408.82 298.32 422.07 305.82 426.82C313.32 431.57 312.57 437.32 307.82 438.32C303.07 439.32 297.57 441.07 281.32 430.57C265.07 420.07 258.32 405.07 259.32 401.32C260.32 397.57 270.82 392.57 275.07 385.07C279.32 377.57 286.32 349.57 286.82 336.82C287.32 324.07 291.82 313.32 291.82 313.32C291.82 313.32 264.32 318.32 256.32 323.32L253.57 310.82Z" fill="white"/>
<mask id="mask9_332_176" style="mask-type:luminance" maskUnits="userSpaceOnUse" x="253" y="280" width="71" height="160">
<path d="M253.57 310.82C253.57 310.82 275.57 291.57 297.32 285.07C319.07 278.57 323.57 279.57 323.07 289.32C322.57 299.07 312.07 350.07 305.07 363.07C298.07 376.07 289.32 399.82 289.57 404.32C289.82 408.82 298.32 422.07 305.82 426.82C313.32 431.57 312.57 437.32 307.82 438.32C303.07 439.32 297.57 441.07 281.32 430.57C265.07 420.07 258.32 405.07 259.32 401.32C260.32 397.57 270.82 392.57 275.07 385.07C279.32 377.57 286.32 349.57 286.82 336.82C287.32 324.07 291.82 313.32 291.82 313.32C291.82 313.32 264.32 318.32 256.32 323.32L253.57 310.82Z" fill="white"/>
</mask>
<g mask="url(#mask9_332_176)">
<path d="M253.57 310.82C253.57 310.82 275.57 291.57 297.32 285.07C319.07 278.57 323.57 279.57 323.07 289.32C322.57 299.07 312.07 350.07 305.07 363.07C298.07 376.07 289.32 399.82 289.57 404.32C289.82 408.82 298.32 422.07 305.82 426.82C313.32 431.57 312.57 437.32 307.82 438.32C303.07 439.32 297.57 441.07 281.32 430.57C265.07 420.07 258.32 405.07 259.32 401.32C260.32 397.57 270.82 392.57 275.07 385.07C279.32 377.57 286.32 349.57 286.82 336.82C287.32 324.07 291.82 313.32 291.82 313.32C291.82 313.32 264.32 318.32 256.32 323.32L253.57 310.82Z" fill="#0F4C81"/>
</g>
<mask id="mask10_332_176" style="mask-type:luminance" maskUnits="userSpaceOnUse" x="253" y="280" width="71" height="160">
<path d="M253.57 310.82C253.57 310.82 275.57 291.57 297.32 285.07C319.07 278.57 323.57 279.57 323.07 289.32C322.57 299.07 312.07 350.07 305.07 363.07C298.07 376.07 289.32 399.82 289.57 404.32C289.82 408.82 298.32 422.07 305.82 426.82C313.32 431.57 312.57 437.32 307.82 438.32C303.07 439.32 297.57 441.07 281.32 430.57C265.07 420.07 258.32 405.07 259.32 401.32C260.32 397.57 270.82 392.57 275.07 385.07C279.32 377.57 286.32 349.57 286.82 336.82C287.32 324.07 291.82 313.32 291.82 313.32C291.82 313.32 264.32 318.32 256.32 323.32L253.57 310.82Z" fill="white"/>
</mask>
<g mask="url(#mask10_332_176)">
<path opacity="0.5" d="M253.57 310.82C253.57 310.82 275.57 291.57 297.32 285.07C319.07 278.57 323.57 279.57 323.07 289.32C322.57 299.07 312.07 350.07 305.07 363.07C298.07 376.07 289.32 399.82 289.57 404.32C289.82 408.82 298.32 422.07 305.82 426.82C313.32 431.57 312.57 437.32 307.82 438.32C303.07 439.32 297.57 441.07 281.32 430.57C265.07 420.07 258.32 405.07 259.32 401.32C260.32 397.57 270.82 392.57 275.07 385.07C279.32 377.57 286.32 349.57 286.82 336.82C287.32 324.07 291.82 313.32 291.82 313.32C291.82 313.32 264.32 318.32 256.32 323.32L253.57 310.82Z" fill="white"/>
</g>
<path d="M253.57 310.82C253.57 310.82 275.57 291.57 297.32 285.07C319.07 278.57 323.57 279.57 323.07 289.32C322.57 299.07 312.07 350.07 305.07 363.07C298.07 376.07 289.32 399.82 289.57 404.32C289.82 408.82 298.32 422.07 305.82 426.82C313.32 431.57 312.57 437.32 307.82 438.32C303.07 439.32 297.57 441.07 281.32 430.57C265.07 420.07 258.32 405.07 259.32 401.32C260.32 397.57 270.82 392.57 275.07 385.07C279.32 377.57 286.32 349.57 286.82 336.82C287.32 324.07 291.82 313.32 291.82 313.32C291.82 313.32 264.32 318.32 256.32 323.32L253.57 310.82Z" stroke="#263238" stroke-miterlimit="10" stroke-linecap="round" stroke-linejoin="round"/>
<path d="M275.07 385.07C274.752 385.632 274.389 386.175 274.007 386.709C277.863 387.142 283.428 388.508 288.07 392.57C289.425 393.756 290.542 394.855 291.489 395.876C294.417 386.531 300.17 372.17 305.07 363.07C312.07 350.07 322.57 299.07 323.07 289.32C323.57 279.57 319.07 278.57 297.32 285.07C275.57 291.57 253.57 310.82 253.57 310.82L256.32 323.32C264.32 318.32 291.82 313.32 291.82 313.32C291.82 313.32 287.32 324.07 286.82 336.82C286.32 349.57 279.32 377.57 275.07 385.07Z" fill="white" stroke="#263238" stroke-miterlimit="10" stroke-linecap="round" stroke-linejoin="round"/>
<path d="M275.07 385.07C274.752 385.632 274.389 386.175 274.007 386.709C277.863 387.142 283.428 388.508 288.07 392.57C289.425 393.756 290.542 394.855 291.489 395.876C296.282 389.444 301.669 369.126 307.751 360.77C323.466 339.18 322.57 299.07 323.07 289.32C323.57 279.57 319.07 278.57 297.32 285.07C275.57 291.57 253.57 310.82 253.57 310.82L256.32 323.32C264.32 318.32 291.82 313.32 291.82 313.32C291.82 313.32 287.32 324.07 286.82 336.82C286.32 349.57 279.32 377.57 275.07 385.07Z" fill="#263238"/>
<mask id="mask11_332_176" style="mask-type:luminance" maskUnits="userSpaceOnUse" x="253" y="280" width="71" height="116">
<path d="M275.07 385.07C274.752 385.632 274.389 386.175 274.007 386.709C277.863 387.142 283.428 388.508 288.07 392.57C289.425 393.756 290.542 394.855 291.489 395.876C296.282 389.444 301.669 369.126 307.751 360.77C323.466 339.18 322.57 299.07 323.07 289.32C323.57 279.57 319.07 278.57 297.32 285.07C275.57 291.57 253.57 310.82 253.57 310.82L256.32 323.32C264.32 318.32 291.82 313.32 291.82 313.32C291.82 313.32 287.32 324.07 286.82 336.82C286.32 349.57 279.32 377.57 275.07 385.07Z" fill="white"/>
</mask>
<g mask="url(#mask11_332_176)">
<path opacity="0.53" d="M275.07 385.07C274.752 385.632 274.389 386.175 274.007 386.709C277.863 387.142 283.428 388.508 288.07 392.57C289.425 393.756 290.542 394.855 291.489 395.876C296.282 389.444 301.669 369.126 307.751 360.77C323.466 339.18 322.57 299.07 323.07 289.32C323.57 279.57 319.07 278.57 297.32 285.07C275.57 291.57 253.57 310.82 253.57 310.82L256.32 323.32C264.32 318.32 291.82 313.32 291.82 313.32C291.82 313.32 287.32 324.07 286.82 336.82C286.32 349.57 279.32 377.57 275.07 385.07Z" fill="white"/>
</g>
<mask id="mask12_332_176" style="mask-type:luminance" maskUnits="userSpaceOnUse" x="253" y="280" width="71" height="116">
<path d="M275.07 385.07C274.752 385.632 274.389 386.175 274.007 386.709C277.863 387.142 283.428 388.508 288.07 392.57C289.425 393.756 290.542 394.855 291.489 395.876C296.282 389.444 301.669 369.126 307.751 360.77C323.466 339.18 322.57 299.07 323.07 289.32C323.57 279.57 319.07 278.57 297.32 285.07C275.57 291.57 253.57 310.82 253.57 310.82L256.32 323.32C264.32 318.32 291.82 313.32 291.82 313.32C291.82 313.32 287.32 324.07 286.82 336.82C286.32 349.57 279.32 377.57 275.07 385.07Z" fill="white"/>
</mask>
<g mask="url(#mask12_332_176)">
<path opacity="0.14" d="M312.502 288.002C312.107 284.452 273.439 300.817 257.132 307.884C254.869 309.687 253.57 310.821 253.57 310.821L256.32 323.321C264.32 318.321 291.82 313.321 291.82 313.321C291.82 313.321 287.32 324.071 286.82 336.821C286.32 349.571 279.32 377.571 275.07 385.071C274.752 385.633 274.389 386.176 274.007 386.71C276.258 386.963 279.091 387.539 281.982 388.778C288.038 375.974 294.455 361.13 297.501 349.502C303.002 328.502 313.002 292.502 312.502 288.002Z" fill="black"/>
</g>
<mask id="mask13_332_176" style="mask-type:luminance" maskUnits="userSpaceOnUse" x="253" y="280" width="71" height="116">
<path d="M275.07 385.07C274.752 385.632 274.389 386.175 274.007 386.709C277.863 387.142 283.428 388.508 288.07 392.57C289.425 393.756 290.542 394.855 291.489 395.876C296.282 389.444 301.669 369.126 307.751 360.77C323.466 339.18 322.57 299.07 323.07 289.32C323.57 279.57 319.07 278.57 297.32 285.07C275.57 291.57 253.57 310.82 253.57 310.82L256.32 323.32C264.32 318.32 291.82 313.32 291.82 313.32C291.82 313.32 287.32 324.07 286.82 336.82C286.32 349.57 279.32 377.57 275.07 385.07Z" fill="white"/>
</mask>
<g mask="url(#mask13_332_176)">
<path d="M291.82 313.32C291.82 313.32 299.32 298.07 305.82 291.82" stroke="#263238" stroke-miterlimit="10" stroke-linecap="round" stroke-linejoin="round"/>
</g>
<path d="M275.07 385.07C274.752 385.632 274.389 386.175 274.007 386.709C277.863 387.142 283.428 388.508 288.07 392.57C289.425 393.756 290.542 394.855 291.489 395.876C296.282 389.444 301.669 369.126 307.751 360.77C323.466 339.18 322.57 299.07 323.07 289.32C323.57 279.57 319.07 278.57 297.32 285.07C275.57 291.57 253.57 310.82 253.57 310.82L256.32 323.32C264.32 318.32 291.82 313.32 291.82 313.32C291.82 313.32 287.32 324.07 286.82 336.82C286.32 349.57 279.32 377.57 275.07 385.07Z" stroke="#263238" stroke-miterlimit="10" stroke-linecap="round" stroke-linejoin="round"/>
<path d="M220.611 330.953C220.611 330.953 232.95 330.61 244.261 326.497C255.572 322.384 235.006 314.843 227.123 318.956C219.24 323.07 220.611 330.953 220.611 330.953Z" fill="#263238" stroke="#263238" stroke-miterlimit="10" stroke-linecap="round" stroke-linejoin="round"/>
<path d="M188.069 314.819C188.069 314.819 180.069 319.319 177.319 324.319C174.569 329.319 186.402 337.652 198.902 337.152C211.402 336.652 234.319 323.069 234.319 323.069C234.319 323.069 234.569 345.069 238.819 353.069C243.069 361.069 262.569 380.569 270.319 385.569C278.069 390.569 304.069 409.319 308.069 412.319C312.069 415.319 319.569 420.819 321.319 421.069C323.069 421.319 341.319 399.069 345.569 391.569C349.819 384.069 353.569 368.319 352.069 364.819C350.569 361.319 347.569 364.319 344.569 366.819C341.569 369.319 314.069 387.569 311.569 388.819C309.069 390.069 307.319 390.569 307.319 390.569C307.319 390.569 284.819 369.069 272.819 352.569C260.819 336.069 259.819 314.819 255.319 306.819C250.819 298.819 244.319 295.319 234.569 296.319C224.819 297.319 204.569 302.569 188.069 314.819Z" fill="white"/>
<mask id="mask14_332_176" style="mask-type:luminance" maskUnits="userSpaceOnUse" x="176" y="296" width="177" height="126">
<path d="M188.069 314.819C188.069 314.819 180.069 319.319 177.319 324.319C174.569 329.319 186.402 337.652 198.902 337.152C211.402 336.652 234.319 323.069 234.319 323.069C234.319 323.069 234.569 345.069 238.819 353.069C243.069 361.069 262.569 380.569 270.319 385.569C278.069 390.569 304.069 409.319 308.069 412.319C312.069 415.319 319.569 420.819 321.319 421.069C323.069 421.319 341.319 399.069 345.569 391.569C349.819 384.069 353.569 368.319 352.069 364.819C350.569 361.319 347.569 364.319 344.569 366.819C341.569 369.319 314.069 387.569 311.569 388.819C309.069 390.069 307.319 390.569 307.319 390.569C307.319 390.569 284.819 369.069 272.819 352.569C260.819 336.069 259.819 314.819 255.319 306.819C250.819 298.819 244.319 295.319 234.569 296.319C224.819 297.319 204.569 302.569 188.069 314.819Z" fill="white"/>
</mask>
<g mask="url(#mask14_332_176)">
<path d="M293.855 402.021C300.531 406.805 306.346 411.026 308.07 412.319C312.07 415.319 319.57 420.819 321.32 421.069C321.941 421.158 324.64 418.41 328.051 414.5L299.42 396.084L293.855 402.021Z" fill="#0F4C81"/>
</g>
<mask id="mask15_332_176" style="mask-type:luminance" maskUnits="userSpaceOnUse" x="176" y="296" width="177" height="126">
<path d="M188.069 314.819C188.069 314.819 180.069 319.319 177.319 324.319C174.569 329.319 186.402 337.652 198.902 337.152C211.402 336.652 234.319 323.069 234.319 323.069C234.319 323.069 234.569 345.069 238.819 353.069C243.069 361.069 262.569 380.569 270.319 385.569C278.069 390.569 304.069 409.319 308.069 412.319C312.069 415.319 319.569 420.819 321.319 421.069C323.069 421.319 341.319 399.069 345.569 391.569C349.819 384.069 353.569 368.319 352.069 364.819C350.569 361.319 347.569 364.319 344.569 366.819C341.569 369.319 314.069 387.569 311.569 388.819C309.069 390.069 307.319 390.569 307.319 390.569C307.319 390.569 284.819 369.069 272.819 352.569C260.819 336.069 259.819 314.819 255.319 306.819C250.819 298.819 244.319 295.319 234.569 296.319C224.819 297.319 204.569 302.569 188.069 314.819Z" fill="white"/>
</mask>
<g mask="url(#mask15_332_176)">
<path opacity="0.5" d="M293.855 402.021C300.531 406.805 306.346 411.026 308.07 412.319C312.07 415.319 319.57 420.819 321.32 421.069C321.941 421.158 324.64 418.41 328.051 414.5L299.42 396.084L293.855 402.021Z" fill="white"/>
</g>
<path d="M188.069 314.819C188.069 314.819 180.069 319.319 177.319 324.319C174.569 329.319 186.402 337.652 198.902 337.152C211.402 336.652 234.319 323.069 234.319 323.069C234.319 323.069 234.569 345.069 238.819 353.069C243.069 361.069 262.569 380.569 270.319 385.569C278.069 390.569 304.069 409.319 308.069 412.319C312.069 415.319 319.569 420.819 321.319 421.069C323.069 421.319 341.319 399.069 345.569 391.569C349.819 384.069 353.569 368.319 352.069 364.819C350.569 361.319 347.569 364.319 344.569 366.819C341.569 369.319 314.069 387.569 311.569 388.819C309.069 390.069 307.319 390.569 307.319 390.569C307.319 390.569 284.819 369.069 272.819 352.569C260.819 336.069 259.819 314.819 255.319 306.819C250.819 298.819 244.319 295.319 234.569 296.319C224.819 297.319 204.569 302.569 188.069 314.819Z" stroke="#263238" stroke-miterlimit="10" stroke-linecap="round" stroke-linejoin="round"/>
<path d="M305.768 389.066C300.481 383.908 280.648 357.298 272.821 342C261.351 319.582 260.116 311.941 255.616 303.941C251.116 295.941 244.32 295.318 234.57 296.318C224.82 297.318 207.375 299.128 185.971 311.267C185.971 311.267 176.987 316.151 174.237 321.151C171.487 326.151 181.499 338.741 198.904 337.151C211.362 336.013 234.321 323.068 234.321 323.068C234.321 323.068 234.571 345.068 238.821 353.068C243.071 361.068 262.571 380.568 270.321 385.568C275.236 388.739 287.486 397.436 296.814 404.143C299.154 395.772 303.286 391.185 305.768 389.066Z" fill="#263238"/>
<mask id="mask16_332_176" style="mask-type:luminance" maskUnits="userSpaceOnUse" x="173" y="295" width="133" height="110">
<path d="M305.768 389.066C300.481 383.908 280.648 357.298 272.821 342C261.351 319.582 260.116 311.941 255.616 303.941C251.116 295.941 244.32 295.318 234.57 296.318C224.82 297.318 207.375 299.128 185.971 311.267C185.971 311.267 176.987 316.151 174.237 321.151C171.487 326.151 181.499 338.741 198.904 337.151C211.362 336.013 234.321 323.068 234.321 323.068C234.321 323.068 234.571 345.068 238.821 353.068C243.071 361.068 262.571 380.568 270.321 385.568C275.236 388.739 287.486 397.436 296.814 404.143C299.154 395.772 303.286 391.185 305.768 389.066Z" fill="white"/>
</mask>
<g mask="url(#mask16_332_176)">
<path opacity="0.53" d="M305.768 389.066C300.481 383.908 280.648 357.298 272.821 342C261.351 319.582 260.116 311.941 255.616 303.941C251.116 295.941 244.32 295.318 234.57 296.318C224.82 297.318 207.375 299.128 185.971 311.267C185.971 311.267 176.987 316.151 174.237 321.151C171.487 326.151 181.499 338.741 198.904 337.151C211.362 336.013 234.321 323.068 234.321 323.068C234.321 323.068 234.571 345.068 238.821 353.068C243.071 361.068 262.571 380.568 270.321 385.568C275.236 388.739 287.486 397.436 296.814 404.143C299.154 395.772 303.286 391.185 305.768 389.066Z" fill="white"/>
</g>
<mask id="mask17_332_176" style="mask-type:luminance" maskUnits="userSpaceOnUse" x="173" y="295" width="133" height="110">
<path d="M305.768 389.066C300.481 383.908 280.648 357.298 272.821 342C261.351 319.582 260.116 311.941 255.616 303.941C251.116 295.941 244.32 295.318 234.57 296.318C224.82 297.318 207.375 299.128 185.971 311.267C185.971 311.267 176.987 316.151 174.237 321.151C171.487 326.151 181.499 338.741 198.904 337.151C211.362 336.013 234.321 323.068 234.321 323.068C234.321 323.068 234.571 345.068 238.821 353.068C243.071 361.068 262.571 380.568 270.321 385.568C275.236 388.739 287.486 397.436 296.814 404.143C299.154 395.772 303.286 391.185 305.768 389.066Z" fill="white"/>
</mask>
<g mask="url(#mask17_332_176)">
<path opacity="0.14" d="M255.501 353.5C248.001 334.5 252.501 296.5 231.501 301.5C216.198 305.144 188.155 318.078 174.062 324.829C175.727 330.567 184.928 338.43 198.902 337.153C211.36 336.015 234.318 323.07 234.318 323.07C234.318 323.07 234.568 345.07 238.818 353.07C243.068 361.07 262.568 380.57 270.318 385.57C275.233 388.741 287.484 397.438 296.812 404.145C297.759 400.76 298.999 398.003 300.304 395.768C281.684 382.013 259.687 364.106 255.501 353.5Z" fill="black"/>
</g>
<mask id="mask18_332_176" style="mask-type:luminance" maskUnits="userSpaceOnUse" x="173" y="295" width="133" height="110">
<path d="M305.768 389.066C300.481 383.908 280.648 357.298 272.821 342C261.351 319.582 260.116 311.941 255.616 303.941C251.116 295.941 244.32 295.318 234.57 296.318C224.82 297.318 207.375 299.128 185.971 311.267C185.971 311.267 176.987 316.151 174.237 321.151C171.487 326.151 181.499 338.741 198.904 337.151C211.362 336.013 234.321 323.068 234.321 323.068C234.321 323.068 234.571 345.068 238.821 353.068C243.071 361.068 262.571 380.568 270.321 385.568C275.236 388.739 287.486 397.436 296.814 404.143C299.154 395.772 303.286 391.185 305.768 389.066Z" fill="white"/>
</mask>
<g mask="url(#mask18_332_176)">
<path d="M234.32 323.068L233.57 310.068" stroke="#263238" stroke-miterlimit="10" stroke-linecap="round" stroke-linejoin="round"/>
</g>
<path d="M305.768 389.066C300.481 383.908 280.648 357.298 272.821 342C261.351 319.582 260.116 311.941 255.616 303.941C251.116 295.941 244.32 295.318 234.57 296.318C224.82 297.318 207.375 299.128 185.971 311.267C185.971 311.267 176.987 316.151 174.237 321.151C171.487 326.151 181.499 338.741 198.904 337.151C211.362 336.013 234.321 323.068 234.321 323.068C234.321 323.068 234.571 345.068 238.821 353.068C243.071 361.068 262.571 380.568 270.321 385.568C275.236 388.739 287.486 397.436 296.814 404.143C299.154 395.772 303.286 391.185 305.768 389.066Z" stroke="#263238" stroke-miterlimit="10" stroke-linecap="round" stroke-linejoin="round"/>
<path d="M308.071 412.32C312.071 415.32 319.571 420.82 321.321 421.07C323.071 421.32 341.321 399.07 345.571 391.57C349.821 384.07 353.571 368.32 352.071 364.82C350.571 361.32 347.571 364.32 344.571 366.82C341.571 369.32 314.071 387.57 311.571 388.82C310.916 389.147 310.317 389.421 309.783 389.65C309.059 391.018 308.187 393.144 308.821 394.57C309.821 396.82 314.071 399.82 314.071 399.82L306.508 411.165C307.181 411.659 307.716 412.054 308.071 412.32Z" fill="#263238" stroke="#263238" stroke-miterlimit="10" stroke-linecap="round" stroke-linejoin="round"/>
<path d="M345.569 391.57C349.819 384.07 353.569 368.32 352.069 364.82C351.2 362.792 349.826 362.952 348.242 363.926C349.294 368.604 348.232 377.614 343.069 387.32C338.462 395.98 324.222 411.286 317.047 418.741C318.994 420.024 320.619 420.97 321.319 421.07C323.069 421.32 341.319 399.07 345.569 391.57Z" fill="white"/>
<mask id="mask19_332_176" style="mask-type:luminance" maskUnits="userSpaceOnUse" x="317" y="363" width="36" height="59">
<path d="M345.569 391.57C349.819 384.07 353.569 368.32 352.069 364.82C351.2 362.792 349.826 362.952 348.242 363.926C349.294 368.604 348.232 377.614 343.069 387.32C338.462 395.98 324.222 411.286 317.047 418.741C318.994 420.024 320.619 420.97 321.319 421.07C323.069 421.32 341.319 399.07 345.569 391.57Z" fill="white"/>
</mask>
<g mask="url(#mask19_332_176)">
<path d="M321.574 421.005C321.638 420.976 321.709 420.937 321.787 420.888C321.81 420.873 321.831 420.863 321.855 420.846C321.956 420.779 322.068 420.696 322.19 420.601C322.228 420.571 322.269 420.536 322.309 420.504C322.401 420.429 322.498 420.347 322.6 420.258C322.654 420.211 322.707 420.165 322.763 420.114C322.886 420.003 323.016 419.884 323.151 419.756C323.229 419.682 323.311 419.603 323.393 419.524C323.5 419.421 323.608 419.315 323.721 419.203C323.813 419.111 323.908 419.016 324.004 418.919C324.094 418.828 324.187 418.733 324.28 418.637C324.509 418.401 324.747 418.153 324.995 417.89C325.033 417.849 325.07 417.811 325.109 417.77C325.254 417.615 325.405 417.453 325.556 417.289C325.614 417.226 325.673 417.163 325.732 417.098C326.255 416.529 326.809 415.913 327.388 415.257C327.403 415.24 327.418 415.223 327.433 415.206C327.635 414.977 327.839 414.744 328.047 414.507L328.05 414.503L323.685 411.695C321.196 414.396 318.887 416.83 317.047 418.743C317.278 418.895 317.504 419.042 317.724 419.184C317.756 419.204 317.786 419.224 317.818 419.244C318.029 419.379 318.236 419.51 318.436 419.634C318.44 419.637 318.444 419.639 318.448 419.642C318.79 419.854 319.107 420.041 319.408 420.213C319.502 420.266 319.598 420.323 319.687 420.372C319.785 420.426 319.875 420.473 319.967 420.521C320.077 420.579 320.184 420.634 320.285 420.684C320.361 420.721 320.433 420.756 320.504 420.788C320.613 420.838 320.714 420.88 320.809 420.917C320.86 420.937 320.913 420.959 320.96 420.976C321.095 421.023 321.219 421.059 321.319 421.073C321.368 421.08 321.434 421.063 321.508 421.036C321.528 421.026 321.551 421.015 321.574 421.005Z" fill="#0F4C81"/>
</g>
<mask id="mask20_332_176" style="mask-type:luminance" maskUnits="userSpaceOnUse" x="317" y="363" width="36" height="59">
<path d="M345.569 391.57C349.819 384.07 353.569 368.32 352.069 364.82C351.2 362.792 349.826 362.952 348.242 363.926C349.294 368.604 348.232 377.614 343.069 387.32C338.462 395.98 324.222 411.286 317.047 418.741C318.994 420.024 320.619 420.97 321.319 421.07C323.069 421.32 341.319 399.07 345.569 391.57Z" fill="white"/>
</mask>
<g mask="url(#mask20_332_176)">
<path opacity="0.5" d="M321.574 421.005C321.638 420.976 321.709 420.937 321.787 420.888C321.81 420.873 321.831 420.863 321.855 420.846C321.956 420.779 322.068 420.696 322.19 420.601C322.228 420.571 322.269 420.536 322.309 420.504C322.401 420.429 322.498 420.347 322.6 420.258C322.654 420.211 322.707 420.165 322.763 420.114C322.886 420.003 323.016 419.884 323.151 419.756C323.229 419.682 323.311 419.603 323.393 419.524C323.5 419.421 323.608 419.315 323.721 419.203C323.813 419.111 323.908 419.016 324.004 418.919C324.094 418.828 324.187 418.733 324.28 418.637C324.509 418.401 324.747 418.153 324.995 417.89C325.033 417.849 325.07 417.811 325.109 417.77C325.254 417.615 325.405 417.453 325.556 417.289C325.614 417.226 325.673 417.163 325.732 417.098C326.255 416.529 326.809 415.913 327.388 415.257C327.403 415.24 327.418 415.223 327.433 415.206C327.635 414.977 327.839 414.744 328.047 414.507L328.05 414.503L323.685 411.695C321.196 414.396 318.887 416.83 317.047 418.743C317.278 418.895 317.504 419.042 317.724 419.184C317.756 419.204 317.786 419.224 317.818 419.244C318.029 419.379 318.236 419.51 318.436 419.634C318.44 419.637 318.444 419.639 318.448 419.642C318.79 419.854 319.107 420.041 319.408 420.213C319.502 420.266 319.598 420.323 319.687 420.372C319.785 420.426 319.875 420.473 319.967 420.521C320.077 420.579 320.184 420.634 320.285 420.684C320.361 420.721 320.433 420.756 320.504 420.788C320.613 420.838 320.714 420.88 320.809 420.917C320.86 420.937 320.913 420.959 320.96 420.976C321.095 421.023 321.219 421.059 321.319 421.073C321.368 421.08 321.434 421.063 321.508 421.036C321.528 421.026 321.551 421.015 321.574 421.005Z" fill="white"/>
</g>
<path d="M345.569 391.57C349.819 384.07 353.569 368.32 352.069 364.82C351.2 362.792 349.826 362.952 348.242 363.926C349.294 368.604 348.232 377.614 343.069 387.32C338.462 395.98 324.222 411.286 317.047 418.741C318.994 420.024 320.619 420.97 321.319 421.07C323.069 421.32 341.319 399.07 345.569 391.57Z" stroke="#263238" stroke-miterlimit="10" stroke-linecap="round" stroke-linejoin="round"/>
<path d="M305.819 426.82C298.319 422.07 289.819 408.82 289.569 404.32C289.549 403.954 289.594 403.45 289.686 402.846C287.311 402.875 285.569 404.32 285.569 404.32C285.569 404.32 280.069 399.32 275.819 396.57C272.774 394.6 268.843 394.044 266.851 393.885C263.22 396.866 259.863 399.28 259.319 401.32C258.319 405.07 265.069 420.07 281.319 430.57C297.569 441.07 303.069 439.32 307.819 438.32C312.569 437.32 313.319 431.57 305.819 426.82Z" fill="#263238" stroke="#263238" stroke-miterlimit="10" stroke-linecap="round" stroke-linejoin="round"/>
<path d="M305.819 426.819C303.605 425.417 301.307 423.265 299.156 420.825C293.996 418.634 287.112 415.788 281.069 412.069C274.569 408.069 276.069 405.569 272.319 401.819C269.441 398.941 263.78 398.568 261.295 398.549C260.27 399.547 259.546 400.466 259.319 401.319C258.319 405.069 265.069 420.069 281.319 430.569C297.569 441.069 303.069 439.319 307.819 438.319C312.569 437.319 313.319 431.569 305.819 426.819Z" fill="white"/>
<mask id="mask21_332_176" style="mask-type:luminance" maskUnits="userSpaceOnUse" x="259" y="398" width="53" height="42">
<path d="M305.819 426.819C303.605 425.417 301.307 423.265 299.156 420.825C293.996 418.634 287.112 415.788 281.069 412.069C274.569 408.069 276.069 405.569 272.319 401.819C269.441 398.941 263.78 398.568 261.295 398.549C260.27 399.547 259.546 400.466 259.319 401.319C258.319 405.069 265.069 420.069 281.319 430.569C297.569 441.069 303.069 439.319 307.819 438.319C312.569 437.319 313.319 431.569 305.819 426.819Z" fill="white"/>
</mask>
<g mask="url(#mask21_332_176)">
<path d="M305.819 426.819C303.605 425.417 301.307 423.265 299.156 420.825C293.996 418.634 287.112 415.788 281.069 412.069C274.569 408.069 276.069 405.569 272.319 401.819C269.441 398.941 263.78 398.568 261.295 398.549C260.27 399.547 259.546 400.466 259.319 401.319C258.319 405.069 265.069 420.069 281.319 430.569C297.569 441.069 303.069 439.319 307.819 438.319C312.569 437.319 313.319 431.569 305.819 426.819Z" fill="#0F4C81"/>
</g>
<mask id="mask22_332_176" style="mask-type:luminance" maskUnits="userSpaceOnUse" x="259" y="398" width="53" height="42">
<path d="M305.819 426.819C303.605 425.417 301.307 423.265 299.156 420.825C293.996 418.634 287.112 415.788 281.069 412.069C274.569 408.069 276.069 405.569 272.319 401.819C269.441 398.941 263.78 398.568 261.295 398.549C260.27 399.547 259.546 400.466 259.319 401.319C258.319 405.069 265.069 420.069 281.319 430.569C297.569 441.069 303.069 439.319 307.819 438.319C312.569 437.319 313.319 431.569 305.819 426.819Z" fill="white"/>
</mask>
<g mask="url(#mask22_332_176)">
<path opacity="0.5" d="M305.819 426.819C303.605 425.417 301.307 423.265 299.156 420.825C293.996 418.634 287.112 415.788 281.069 412.069C274.569 408.069 276.069 405.569 272.319 401.819C269.441 398.941 263.78 398.568 261.295 398.549C260.27 399.547 259.546 400.466 259.319 401.319C258.319 405.069 265.069 420.069 281.319 430.569C297.569 441.069 303.069 439.319 307.819 438.319C312.569 437.319 313.319 431.569 305.819 426.819Z" fill="white"/>
</g>
<path d="M305.819 426.819C303.605 425.417 301.307 423.265 299.156 420.825C293.996 418.634 287.112 415.788 281.069 412.069C274.569 408.069 276.069 405.569 272.319 401.819C269.441 398.941 263.78 398.568 261.295 398.549C260.27 399.547 259.546 400.466 259.319 401.319C258.319 405.069 265.069 420.069 281.319 430.569C297.569 441.069 303.069 439.319 307.819 438.319C312.569 437.319 313.319 431.569 305.819 426.819Z" stroke="#263238" stroke-miterlimit="10" stroke-linecap="round" stroke-linejoin="round"/>
<path d="M307.072 428.569C300.572 424.819 287.322 422.319 278.822 416.569C270.322 410.819 272.572 405.819 266.322 401.819C263.45 399.981 261.056 400.414 259.304 401.418C258.436 405.316 265.203 420.154 281.322 430.569C297.572 441.069 303.072 439.319 307.822 438.319C310.979 437.654 312.351 434.889 310.726 431.715C309.7 430.483 308.487 429.386 307.072 428.569Z" fill="#263238"/>
<mask id="mask23_332_176" style="mask-type:luminance" maskUnits="userSpaceOnUse" x="259" y="400" width="53" height="40">
<path d="M307.072 428.569C300.572 424.819 287.322 422.319 278.822 416.569C270.322 410.819 272.572 405.819 266.322 401.819C263.45 399.981 261.056 400.414 259.304 401.418C258.436 405.316 265.203 420.154 281.322 430.569C297.572 441.069 303.072 439.319 307.822 438.319C310.979 437.654 312.351 434.889 310.726 431.715C309.7 430.483 308.487 429.386 307.072 428.569Z" fill="white"/>
</mask>
<g mask="url(#mask23_332_176)">
<path opacity="0.53" d="M307.072 428.569C300.572 424.819 287.322 422.319 278.822 416.569C270.322 410.819 272.572 405.819 266.322 401.819C263.45 399.981 261.056 400.414 259.304 401.418C258.436 405.316 265.203 420.154 281.322 430.569C297.572 441.069 303.072 439.319 307.822 438.319C310.979 437.654 312.351 434.889 310.726 431.715C309.7 430.483 308.487 429.386 307.072 428.569Z" fill="white"/>
</g>
<path d="M307.072 428.569C300.572 424.819 287.322 422.319 278.822 416.569C270.322 410.819 272.572 405.819 266.322 401.819C263.45 399.981 261.056 400.414 259.304 401.418C258.436 405.316 265.203 420.154 281.322 430.569C297.572 441.069 303.072 439.319 307.822 438.319C310.979 437.654 312.351 434.889 310.726 431.715C309.7 430.483 308.487 429.386 307.072 428.569Z" stroke="#263238" stroke-miterlimit="10" stroke-linecap="round" stroke-linejoin="round"/>
<path d="M182.493 380.749C182.493 380.749 187.292 374.922 187.977 379.378C188.663 383.834 187.634 392.06 184.207 395.145C180.779 398.23 179.066 393.431 179.066 393.431L181.122 390.689C181.122 390.689 182.836 394.117 184.207 388.632C185.578 383.148 181.465 383.833 181.465 383.833L182.493 380.749Z" fill="white" stroke="#263238" stroke-miterlimit="10" stroke-linecap="round" stroke-linejoin="round"/>
<path d="M178.82 402.685C175.98 404.787 166.728 404.787 163.888 402.685C157.878 398.236 158.911 376.74 158.911 376.74H183.775C183.775 376.74 184.83 398.236 178.82 402.685Z" fill="white" stroke="#263238" stroke-miterlimit="10" stroke-linecap="round" stroke-linejoin="round"/>
<path d="M161.613 372.523C161.613 369.816 164.119 369.816 164.119 367.109C164.119 364.404 161.613 364.404 161.613 361.698C161.613 358.99 164.119 358.99 164.119 356.283C164.119 353.573 161.613 353.573 161.613 350.864C161.613 348.154 164.119 348.154 164.119 345.445" stroke="#263238" stroke-miterlimit="10" stroke-linecap="round" stroke-linejoin="round"/>
<path d="M170.203 372.524C170.203 370.469 172.709 370.469 172.709 368.415C172.709 366.36 170.203 366.36 170.203 364.305C170.203 362.248 172.709 362.248 172.709 360.191C172.709 358.133 170.203 358.133 170.203 356.075C170.203 354.017 172.709 354.017 172.709 351.959" stroke="#263238" stroke-miterlimit="10" stroke-linecap="round" stroke-linejoin="round"/>
<path d="M179.652 372.523C179.652 369.816 182.158 369.816 182.158 367.109C182.158 364.404 179.652 364.404 179.652 361.698C179.652 358.99 182.158 358.99 182.158 356.283C182.158 353.573 179.652 353.573 179.652 350.864C179.652 348.154 182.158 348.154 182.158 345.445" stroke="#263238" stroke-miterlimit="10" stroke-linecap="round" stroke-linejoin="round"/>
<path d="M183.774 376.739C183.774 377.365 178.208 377.872 171.342 377.872C164.476 377.872 158.91 377.365 158.91 376.739C158.91 376.114 164.476 375.607 171.342 375.607C178.208 375.607 183.774 376.114 183.774 376.739Z" fill="white" stroke="#263238" stroke-miterlimit="10" stroke-linecap="round" stroke-linejoin="round"/>
<path d="M206.723 222.024C206.723 222.024 207.887 234.655 208.378 238.638C208.868 242.622 209.987 254.087 211.137 257.878C212.287 261.669 218.551 268.261 219.158 266.736C219.765 265.211 222.863 254.914 221.621 248.792C220.379 242.669 220.003 237.347 220.777 235.815C221.551 234.283 224.316 232.507 224.316 232.507C224.316 232.507 219.381 230.032 214.927 227.039C210.472 224.045 207.337 220.665 206.723 222.024Z" fill="white"/>
<mask id="mask24_332_176" style="mask-type:luminance" maskUnits="userSpaceOnUse" x="206" y="221" width="19" height="46">
<path d="M206.723 222.024C206.723 222.024 207.887 234.655 208.378 238.638C208.868 242.622 209.987 254.087 211.137 257.878C212.287 261.669 218.551 268.261 219.158 266.736C219.765 265.211 222.863 254.914 221.621 248.792C220.379 242.669 220.003 237.347 220.777 235.815C221.551 234.283 224.316 232.507 224.316 232.507C224.316 232.507 219.381 230.032 214.927 227.039C210.472 224.045 207.337 220.665 206.723 222.024Z" fill="white"/>
</mask>
<g mask="url(#mask24_332_176)">
<path d="M222.769 233.093L221.747 231.147C219.911 230.14 217.35 228.669 214.926 227.039C210.472 224.045 207.336 220.666 206.723 222.024C206.723 222.024 207.887 234.655 208.378 238.638C208.868 242.622 209.987 254.087 211.137 257.878C211.418 258.803 212.006 259.896 212.739 260.996C211.529 253.455 212.842 239.843 212.842 239.843L222.769 233.093Z" fill="#0F4C81"/>
</g>
<mask id="mask25_332_176" style="mask-type:luminance" maskUnits="userSpaceOnUse" x="206" y="221" width="19" height="46">
<path d="M206.723 222.024C206.723 222.024 207.887 234.655 208.378 238.638C208.868 242.622 209.987 254.087 211.137 257.878C212.287 261.669 218.551 268.261 219.158 266.736C219.765 265.211 222.863 254.914 221.621 248.792C220.379 242.669 220.003 237.347 220.777 235.815C221.551 234.283 224.316 232.507 224.316 232.507C224.316 232.507 219.381 230.032 214.927 227.039C210.472 224.045 207.337 220.665 206.723 222.024Z" fill="white"/>
</mask>
<g mask="url(#mask25_332_176)">
<path opacity="0.5" d="M222.769 233.093L221.747 231.147C219.911 230.14 217.35 228.669 214.926 227.039C210.472 224.045 207.336 220.666 206.723 222.024C206.723 222.024 207.887 234.655 208.378 238.638C208.868 242.622 209.987 254.087 211.137 257.878C211.418 258.803 212.006 259.896 212.739 260.996C211.529 253.455 212.842 239.843 212.842 239.843L222.769 233.093Z" fill="white"/>
</g>
<path d="M206.723 222.024C206.723 222.024 207.887 234.655 208.378 238.638C208.868 242.622 209.987 254.087 211.137 257.878C212.287 261.669 218.551 268.261 219.158 266.736C219.765 265.211 222.863 254.914 221.621 248.792C220.379 242.669 220.003 237.347 220.777 235.815C221.551 234.283 224.316 232.507 224.316 232.507C224.316 232.507 219.381 230.032 214.927 227.039C210.472 224.045 207.337 220.665 206.723 222.024Z" stroke="#263238" stroke-miterlimit="10" stroke-linecap="round" stroke-linejoin="round"/>
<path d="M206.256 223.828C206.256 223.828 213.457 229.856 218.984 232.032C224.51 234.208 232.994 234.092 234.186 231.216C235.379 228.34 232.09 205.618 229.243 199.637C226.396 193.656 223.345 193.558 218.322 193.103C213.299 192.648 203.231 196.744 201.464 201.601C199.697 206.458 201.709 213.343 203.175 217.421C204.641 221.498 206.256 223.828 206.256 223.828Z" fill="white"/>
<mask id="mask26_332_176" style="mask-type:luminance" maskUnits="userSpaceOnUse" x="200" y="193" width="35" height="41">
<path d="M206.256 223.828C206.256 223.828 213.457 229.856 218.984 232.032C224.51 234.208 232.994 234.092 234.186 231.216C235.379 228.34 232.09 205.618 229.243 199.637C226.396 193.656 223.345 193.558 218.322 193.103C213.299 192.648 203.231 196.744 201.464 201.601C199.697 206.458 201.709 213.343 203.175 217.421C204.641 221.498 206.256 223.828 206.256 223.828Z" fill="white"/>
</mask>
<g mask="url(#mask26_332_176)">
<path d="M219.194 223.563C216.642 215.979 216.017 204.105 216.017 200.928C216.017 198.477 222.397 195.791 225.313 194.691C223.404 193.509 221.184 193.362 218.322 193.103C213.299 192.648 203.231 196.744 201.464 201.601C199.697 206.458 201.709 213.343 203.175 217.421C204.641 221.498 206.256 223.829 206.256 223.829C206.256 223.829 213.457 229.857 218.984 232.033C222.666 233.483 227.65 233.909 230.926 233.185C227.021 231.692 220.894 228.615 219.194 223.563Z" fill="#0F4C81"/>
</g>
<mask id="mask27_332_176" style="mask-type:luminance" maskUnits="userSpaceOnUse" x="200" y="193" width="35" height="41">
<path d="M206.256 223.828C206.256 223.828 213.457 229.856 218.984 232.032C224.51 234.208 232.994 234.092 234.186 231.216C235.379 228.34 232.09 205.618 229.243 199.637C226.396 193.656 223.345 193.558 218.322 193.103C213.299 192.648 203.231 196.744 201.464 201.601C199.697 206.458 201.709 213.343 203.175 217.421C204.641 221.498 206.256 223.828 206.256 223.828Z" fill="white"/>
</mask>
<g mask="url(#mask27_332_176)">
<path opacity="0.5" d="M219.194 223.563C216.642 215.979 216.017 204.105 216.017 200.928C216.017 198.477 222.397 195.791 225.313 194.691C223.404 193.509 221.184 193.362 218.322 193.103C213.299 192.648 203.231 196.744 201.464 201.601C199.697 206.458 201.709 213.343 203.175 217.421C204.641 221.498 206.256 223.829 206.256 223.829C206.256 223.829 213.457 229.857 218.984 232.033C222.666 233.483 227.65 233.909 230.926 233.185C227.021 231.692 220.894 228.615 219.194 223.563Z" fill="white"/>
</g>
<path d="M206.256 223.828C206.256 223.828 213.457 229.856 218.984 232.032C224.51 234.208 232.994 234.092 234.186 231.216C235.379 228.34 232.09 205.618 229.243 199.637C226.396 193.656 223.345 193.558 218.322 193.103C213.299 192.648 203.231 196.744 201.464 201.601C199.697 206.458 201.709 213.343 203.175 217.421C204.641 221.498 206.256 223.828 206.256 223.828Z" stroke="#263238" stroke-miterlimit="10" stroke-linecap="round" stroke-linejoin="round"/>
<path d="M229.785 208.975C229.898 211.855 228.093 214.265 225.753 214.357C223.413 214.449 221.424 212.189 221.31 209.309C221.197 206.429 223.002 204.019 225.342 203.927C227.682 203.834 229.671 206.094 229.785 208.975Z" stroke="#263238" stroke-miterlimit="10" stroke-linecap="round" stroke-linejoin="round"/>
<path d="M235.443 207.88C235.556 210.76 234.627 213.135 233.367 213.185C232.107 213.235 230.994 210.94 230.88 208.06C230.767 205.18 231.696 202.805 232.956 202.755C234.216 202.706 235.33 205 235.443 207.88Z" stroke="#263238" stroke-miterlimit="10" stroke-linecap="round" stroke-linejoin="round"/>
<path d="M230.078 207.938C230.078 207.938 238.338 209.508 237.546 211.498C236.754 213.488 231.164 215.638 231.164 215.638" fill="white"/>
<path d="M230.078 207.938C230.078 207.938 238.338 209.508 237.546 211.498C236.754 213.488 231.164 215.638 231.164 215.638" stroke="#263238" stroke-miterlimit="10" stroke-linecap="round" stroke-linejoin="round"/>
<path d="M229.57 207.018C229.57 207.018 229.686 205.997 230.963 206.65" stroke="#263238" stroke-miterlimit="10" stroke-linecap="round" stroke-linejoin="round"/>
<path d="M221.079 209.777L206.059 215.687" stroke="#263238" stroke-miterlimit="10" stroke-linecap="round" stroke-linejoin="round"/>
<path d="M221.277 204.92C221.277 204.92 222.2 202.537 225.021 202.661" stroke="#263238" stroke-width="2" stroke-miterlimit="10" stroke-linecap="round" stroke-linejoin="round"/>
<path d="M231.281 202.727L228.969 203.601" stroke="#263238" stroke-width="2" stroke-miterlimit="10" stroke-linecap="round" stroke-linejoin="round"/>
<path d="M224.137 219.505C224.137 219.505 227.109 218.721 228.846 220.487" stroke="#263238" stroke-miterlimit="10" stroke-linecap="round" stroke-linejoin="round"/>
<path d="M226.077 209.523C226.214 210.526 226.03 211.38 225.665 211.43C225.3 211.48 224.893 210.707 224.756 209.704C224.619 208.701 224.803 207.847 225.168 207.797C225.533 207.747 225.94 208.52 226.077 209.523Z" fill="#263238"/>
<path d="M207.461 215.727C207.461 215.727 206.451 217.725 209.285 217.831C212.118 217.937 214.023 216.556 212.65 214.869C211.278 213.182 209.254 211.521 211.341 209.262C213.429 207.004 217.489 205.103 215.213 202.581C212.937 200.059 204.54 202.348 206.636 200.307C208.732 198.266 218.442 196.143 222.805 196.406C227.168 196.67 235.306 193.302 237.09 188.88C238.875 184.457 236.377 176.286 230.518 176.734C224.66 177.182 220.293 182.36 217.694 182.679C215.095 182.999 209.76 180.162 205.291 182.732C200.822 185.302 200.67 192.49 200.269 193.376C199.869 194.262 193.827 195.588 192.763 201.724C191.699 207.86 194.503 212.755 197.004 215.485C199.505 218.216 200.635 219.26 200.635 219.26L207.461 215.727Z" fill="#263238" stroke="#263238" stroke-miterlimit="10" stroke-linecap="round" stroke-linejoin="round"/>
<path d="M194.736 204.652C194.637 206.168 195.382 207.311 195.382 207.311" stroke="white" stroke-width="0.75" stroke-miterlimit="10" stroke-linecap="round" stroke-linejoin="round"/>
<path d="M220.231 188.822C220.231 188.822 218.044 184.051 223.611 184.051C229.178 184.051 229.973 191.009 224.207 193.594C218.442 196.178 205.917 196.775 199.157 199.757C197.467 200.503 196.386 201.347 195.715 202.196" stroke="white" stroke-width="0.75" stroke-miterlimit="10" stroke-linecap="round" stroke-linejoin="round"/>
<path d="M210.163 205.762C208.165 206.477 205.573 207.478 202.935 208.703C197.368 211.288 198.561 213.872 198.561 213.872" stroke="white" stroke-width="0.75" stroke-miterlimit="10" stroke-linecap="round" stroke-linejoin="round"/>
<path d="M213.872 204.527C213.872 204.527 213.386 204.671 212.555 204.943" stroke="white" stroke-width="0.75" stroke-miterlimit="10" stroke-linecap="round" stroke-linejoin="round"/>
<path d="M208.416 217.867C208.416 217.867 205.186 213.206 201.777 215.081C198.369 216.956 201.024 223.598 203.074 225.911C205.124 228.224 209.09 223.933 209.482 222.83" fill="white"/>
<mask id="mask28_332_176" style="mask-type:luminance" maskUnits="userSpaceOnUse" x="200" y="214" width="10" height="13">
<path d="M208.416 217.867C208.416 217.867 205.186 213.206 201.777 215.081C198.369 216.956 201.024 223.598 203.074 225.911C205.124 228.224 209.09 223.933 209.482 222.83" fill="white"/>
</mask>
<g mask="url(#mask28_332_176)">
<path d="M208.416 217.867C208.416 217.867 205.186 213.206 201.777 215.081C198.369 216.956 201.024 223.598 203.074 225.911C205.124 228.224 209.09 223.933 209.482 222.83" fill="#0F4C81"/>
</g>
<mask id="mask29_332_176" style="mask-type:luminance" maskUnits="userSpaceOnUse" x="200" y="214" width="10" height="13">
<path d="M208.416 217.867C208.416 217.867 205.186 213.206 201.777 215.081C198.369 216.956 201.024 223.598 203.074 225.911C205.124 228.224 209.09 223.933 209.482 222.83" fill="white"/>
</mask>
<g mask="url(#mask29_332_176)">
<path opacity="0.5" d="M208.416 217.867C208.416 217.867 205.186 213.206 201.777 215.081C198.369 216.956 201.024 223.598 203.074 225.911C205.124 228.224 209.09 223.933 209.482 222.83" fill="white"/>
</g>
<path d="M208.416 217.867C208.416 217.867 205.186 213.206 201.777 215.081C198.369 216.956 201.024 223.598 203.074 225.911C205.124 228.224 209.09 223.933 209.482 222.83" stroke="#263238" stroke-miterlimit="10" stroke-linecap="round" stroke-linejoin="round"/>
<path d="M167.618 276.258H95.9403C93.1123 276.258 90.8203 273.966 90.8203 271.138V218.735C90.8203 215.907 93.1123 213.615 95.9403 213.615H167.618C170.446 213.615 172.738 215.907 172.738 218.735V271.138C172.738 273.966 170.445 276.258 167.618 276.258Z" fill="white" stroke="#263238" stroke-miterlimit="10" stroke-linecap="round" stroke-linejoin="round"/>
<path d="M171.18 258.68L219.18 271.18L171.18 247.68" fill="white"/>
<path d="M171.18 258.68L219.18 271.18L171.18 247.68" stroke="#263238" stroke-miterlimit="10" stroke-linecap="round" stroke-linejoin="round"/>
<path d="M116.72 219.639H97.4453V270.235H116.72V219.639Z" fill="#0F4C81" stroke="#263238" stroke-miterlimit="10" stroke-linecap="round" stroke-linejoin="round"/>
<path d="M168.487 219.639H166.078V270.235H168.487V219.639Z" fill="#0F4C81" stroke="#263238" stroke-miterlimit="10" stroke-linecap="round" stroke-linejoin="round"/>
<path d="M168.487 242.775H166.078V247.099H168.487V242.775Z" fill="#263238" stroke="#263238" stroke-miterlimit="10" stroke-linecap="round" stroke-linejoin="round"/>
<path d="M122.746 220.844H160.693" stroke="#263238" stroke-miterlimit="10" stroke-linecap="round" stroke-linejoin="round"/>
<path d="M122.746 226.264H160.693" stroke="#263238" stroke-miterlimit="10" stroke-linecap="round" stroke-linejoin="round"/>
<path d="M122.746 231.686H160.693" stroke="#263238" stroke-miterlimit="10" stroke-linecap="round" stroke-linejoin="round"/>
<path d="M122.746 237.105H160.693" stroke="#263238" stroke-miterlimit="10" stroke-linecap="round" stroke-linejoin="round"/>
<path d="M122.746 250.357H160.693" stroke="#263238" stroke-miterlimit="10" stroke-linecap="round" stroke-linejoin="round"/>
<path d="M122.746 255.176H160.693" stroke="#263238" stroke-miterlimit="10" stroke-linecap="round" stroke-linejoin="round"/>
<path d="M122.746 259.996H160.693" stroke="#263238" stroke-miterlimit="10" stroke-linecap="round" stroke-linejoin="round"/>
<path d="M122.746 269.996H160.693" stroke="#263238" stroke-miterlimit="10" stroke-linecap="round" stroke-linejoin="round"/>
<path d="M97.4453 270.235L116.719 219.639" stroke="#263238" stroke-miterlimit="10" stroke-linecap="round" stroke-linejoin="round"/>
<path d="M202.001 280.999L231.71 292.051L241.501 246L224.5 232.5L202.001 280.999Z" fill="url(#paint2_radial_332_176)"/>
<path d="M387.867 410.262C397.104 410.262 404.593 406.902 404.593 402.758C404.593 398.614 397.104 395.254 387.867 395.254C378.629 395.254 371.141 398.614 371.141 402.758C371.141 406.902 378.629 410.262 387.867 410.262Z" fill="#0F4C81"/>
<path opacity="0.5" d="M387.867 410.262C397.104 410.262 404.593 406.902 404.593 402.758C404.593 398.614 397.104 395.254 387.867 395.254C378.629 395.254 371.141 398.614 371.141 402.758C371.141 406.902 378.629 410.262 387.867 410.262Z" fill="white"/>
<path d="M368.297 291.777C370.087 292.559 374.466 292.461 374.469 292.46C374.515 292.459 373.528 289.593 373.445 289.42C372.484 287.41 369.446 284.092 366.974 284.426C365.193 284.667 364.203 286.449 364.605 288.126C365.016 289.839 366.773 291.111 368.297 291.777Z" fill="#263238"/>
<path d="M425.656 276.871C423.176 276.604 420.228 280.003 419.322 282.038C419.244 282.214 418.335 285.105 418.381 285.105C418.381 285.105 418.424 285.105 418.434 285.104C417.964 285.637 417.467 286.214 416.937 286.855C415.967 288.047 414.881 289.403 413.8 290.958C412.715 292.509 411.58 294.225 410.547 296.14C409.509 298.059 408.516 300.129 407.768 302.396C407.759 302.421 407.754 302.449 407.746 302.475C407.759 301.744 407.727 299.7 407.706 299.543C407.42 297.334 405.568 293.233 403.115 292.78C401.348 292.454 399.851 293.838 399.71 295.557C399.567 297.312 400.839 299.069 402.08 300.178C403.479 301.428 407.364 302.639 407.674 302.734C406.982 304.899 406.447 307.176 406.033 309.511C405.795 310.846 405.596 312.197 405.415 313.555C405.406 312.923 405.393 312.358 405.382 312.279C405.095 310.07 403.244 305.97 400.791 305.516C399.023 305.189 397.527 306.574 397.386 308.293C397.242 310.048 398.515 311.805 399.756 312.913C401.015 314.038 404.306 315.136 405.181 315.416C405.117 315.937 405.047 316.458 404.985 316.979C404.686 319.482 404.398 321.982 404.041 324.425C403.916 325.286 403.76 326.129 403.608 326.974C403.599 326.413 403.587 325.94 403.578 325.868C403.292 323.659 401.44 319.558 398.987 319.105C397.22 318.778 395.723 320.163 395.582 321.882C395.438 323.637 396.711 325.394 397.952 326.502C399.153 327.575 402.182 328.617 403.22 328.953C403.038 329.813 402.857 330.675 402.642 331.5C402.482 332.06 402.368 332.61 402.176 333.164C401.998 333.716 401.821 334.263 401.647 334.804C401.272 335.834 400.892 336.899 400.501 337.895C400.235 338.589 399.967 339.246 399.701 339.909C399.836 339.054 400.065 337.373 400.068 337.23C400.102 335.75 399.577 333.345 398.531 331.653C398.537 331.434 398.525 331.216 398.49 331C398.217 329.297 396.617 328.033 394.88 328.495C392.469 329.137 390.94 333.368 390.826 335.593C390.819 335.724 390.905 337.156 390.974 338.059C390.853 337.534 390.741 337.024 390.609 336.486C390.356 335.42 390.072 334.363 389.771 333.225C389.607 332.681 389.44 332.131 389.272 331.576C389.117 331.022 388.883 330.456 388.69 329.89C388.213 328.587 387.667 327.288 387.087 325.993C388.02 325.769 391.322 324.927 392.648 323.91C393.968 322.897 395.368 321.24 395.355 319.479C395.343 317.755 393.954 316.262 392.167 316.456C389.687 316.725 387.534 320.676 387.084 322.858C387.056 322.994 386.909 324.596 386.845 325.477C386.49 324.701 386.14 323.925 385.756 323.152C384.648 320.919 383.456 318.694 382.277 316.469C381.915 315.787 381.564 315.104 381.208 314.422C381.541 314.346 385.488 313.43 386.973 312.291C388.293 311.278 389.693 309.621 389.681 307.86C389.669 306.136 388.279 304.644 386.492 304.838C384.012 305.107 381.86 309.058 381.409 311.24C381.375 311.404 381.167 313.71 381.143 314.298C380.362 312.794 379.597 311.289 378.904 309.773C377.944 307.684 377.118 305.581 376.469 303.485C376.624 303.45 380.747 302.513 382.269 301.346C383.589 300.333 384.989 298.676 384.976 296.915C384.964 295.191 383.574 293.699 381.788 293.893C379.308 294.162 377.155 298.113 376.705 300.295C376.67 300.467 376.447 302.946 376.439 303.399C376.401 303.274 376.347 303.149 376.31 303.024C375.645 300.777 375.283 298.517 375.048 296.384C374.909 295.145 374.845 293.953 374.809 292.792C375.595 292.696 379.182 292.219 380.667 291.32C382.09 290.458 383.664 288.965 383.845 287.213C384.022 285.498 382.805 283.862 381.008 283.859C378.513 283.854 375.94 287.545 375.253 289.664C375.216 289.779 374.966 290.993 374.796 291.879C374.788 291.355 374.77 290.814 374.772 290.311C374.776 288.425 374.895 286.697 375.013 285.168C375.087 284.299 375.171 283.515 375.258 282.782C375.98 282.285 378.865 280.249 379.753 278.793C380.619 277.372 381.327 275.322 380.681 273.684C380.048 272.08 378.214 271.189 376.617 272.014C374.401 273.16 373.818 277.621 374.184 279.818C374.216 280.008 375.053 282.921 375.091 282.895C375.091 282.895 375.126 282.871 375.135 282.865C375.038 283.569 374.941 284.324 374.853 285.151C374.701 286.68 374.544 288.41 374.5 290.304C374.451 292.196 374.45 294.254 374.646 296.421C374.839 298.593 375.153 300.869 375.779 303.171C375.786 303.197 375.797 303.223 375.804 303.249C375.412 302.633 374.257 300.945 374.153 300.826C372.696 299.141 368.889 296.743 366.593 297.718C364.939 298.421 364.454 300.401 365.285 301.913C366.134 303.456 368.164 304.219 369.811 304.459C371.668 304.73 375.576 303.597 375.886 303.505C376.503 305.693 377.314 307.887 378.256 310.063C378.793 311.308 379.374 312.545 379.971 313.777C379.615 313.255 379.292 312.791 379.24 312.73C377.782 311.045 373.976 308.647 371.68 309.622C370.025 310.324 369.541 312.305 370.372 313.816C371.22 315.359 373.251 316.123 374.898 316.362C376.569 316.605 379.92 315.706 380.803 315.456C381.037 315.926 381.266 316.399 381.501 316.868C382.633 319.121 383.772 321.365 384.821 323.6C385.191 324.388 385.527 325.176 385.866 325.965C385.549 325.501 385.278 325.114 385.231 325.059C383.773 323.374 379.967 320.976 377.671 321.951C376.017 322.654 375.532 324.634 376.363 326.145C377.211 327.688 379.242 328.451 380.888 328.691C382.482 328.923 385.583 328.121 386.634 327.829C386.956 328.647 387.281 329.465 387.557 330.272C387.733 330.827 387.941 331.35 388.086 331.917C388.242 332.476 388.396 333.029 388.549 333.577C388.805 334.643 389.075 335.741 389.298 336.787C389.459 337.513 389.599 338.209 389.741 338.908C389.382 338.12 388.645 336.592 388.569 336.471C387.384 334.585 383.984 331.638 381.567 332.254C379.826 332.698 379.046 334.582 379.639 336.202C380.244 337.856 382.135 338.918 383.726 339.405C385.478 339.94 389.357 339.451 389.841 339.387C390.074 340.546 390.289 341.675 390.474 342.744C391.127 346.448 391.53 349.559 391.782 351.736C391.827 352.123 391.865 352.468 391.899 352.794H384.392L386.806 399.897C386.99 403.477 389.945 406.285 393.53 406.285C397.115 406.285 400.071 403.477 400.254 399.897L402.668 352.794H395.673C395.725 352.686 395.774 352.586 395.828 352.473C396.788 350.474 398.119 347.6 399.556 344.084C400.013 342.974 400.479 341.779 400.946 340.547C401.415 340.645 405.255 341.425 407.044 341.021C408.667 340.654 410.632 339.736 411.359 338.132C412.07 336.561 411.434 334.624 409.73 334.052C407.366 333.258 403.756 335.943 402.433 337.736C402.355 337.842 401.636 339.084 401.196 339.874C401.384 339.37 401.572 338.882 401.76 338.361C402.137 337.332 402.484 336.295 402.86 335.179C403.023 334.634 403.188 334.084 403.354 333.528C403.531 332.98 403.648 332.379 403.799 331.8C404.12 330.45 404.381 329.066 404.612 327.666C405.514 327.994 408.732 329.114 410.4 328.997C412.059 328.88 414.141 328.271 415.102 326.795C416.043 325.35 415.707 323.339 414.11 322.515C411.893 321.372 407.918 323.48 406.339 325.051C406.241 325.149 405.234 326.404 404.695 327.104C404.828 326.261 404.964 325.421 405.07 324.564C405.377 322.091 405.611 319.577 405.855 317.071C405.929 316.303 406.013 315.539 406.093 314.774C406.412 314.894 410.209 316.308 412.077 316.177C413.737 316.061 415.819 315.451 416.78 313.975C417.721 312.53 417.385 310.519 415.788 309.695C413.571 308.551 409.596 310.659 408.017 312.231C407.898 312.349 406.453 314.157 406.108 314.635C406.286 312.95 406.479 311.272 406.737 309.626C407.089 307.354 407.56 305.144 408.175 303.038C408.324 303.094 412.28 304.587 414.193 304.453C415.853 304.337 417.935 303.727 418.896 302.251C419.837 300.806 419.501 298.795 417.904 297.971C415.687 296.827 411.712 298.935 410.133 300.507C410.009 300.63 408.455 302.576 408.199 302.949C408.236 302.824 408.26 302.69 408.299 302.566C408.984 300.325 409.929 298.24 410.909 296.332C411.476 295.222 412.081 294.193 412.692 293.204C413.4 293.558 416.655 295.138 418.39 295.207C420.053 295.274 422.189 294.896 423.306 293.535C424.4 292.202 424.287 290.166 422.79 289.172C420.712 287.792 416.53 289.451 414.788 290.839C414.693 290.914 413.815 291.789 413.185 292.434C413.467 291.992 413.75 291.531 414.03 291.113C415.073 289.541 416.126 288.167 417.068 286.957C417.609 286.273 418.112 285.666 418.589 285.102C419.465 285.086 422.995 284.979 424.538 284.255C426.044 283.548 427.766 282.228 428.13 280.506C428.482 278.819 427.443 277.064 425.656 276.871ZM398.193 343.511C396.694 346.961 395.314 349.778 394.323 351.732C394.123 352.126 393.943 352.474 393.777 352.796H393.611C393.562 352.414 393.508 351.997 393.443 351.529C393.14 349.332 392.665 346.201 391.924 342.475C391.693 341.297 391.422 340.044 391.132 338.759C391.423 338.643 393.078 337.974 394.543 337.155C395.82 338.538 399.092 340.156 399.515 340.362C399.072 341.456 398.628 342.517 398.193 343.511Z" fill="#263238"/>
<path d="M412.586 292.739C412.625 292.763 413.382 289.829 413.409 289.638C413.716 287.431 413.013 282.988 410.767 281.903C409.149 281.121 407.34 282.061 406.75 283.682C406.148 285.337 406.911 287.367 407.816 288.764C408.876 290.404 412.583 292.737 412.586 292.739Z" fill="#263238"/>
<defs>
<radialGradient id="paint0_radial_332_176" cx="0" cy="0" r="1" gradientUnits="userSpaceOnUse" gradientTransform="translate(127.373 167.046) rotate(2.79156) scale(72.6908 47.6528)">
<stop stop-color="white"/>
<stop offset="1" stop-color="#999999" stop-opacity="0"/>
</radialGradient>
<radialGradient id="paint1_radial_332_176" cx="0" cy="0" r="1" gradientUnits="userSpaceOnUse" gradientTransform="translate(265.984 250.939) rotate(-178.57) scale(113.099 18.0279)">
<stop stop-color="white"/>
<stop offset="1" stop-color="#999999" stop-opacity="0"/>
</radialGradient>
<radialGradient id="paint2_radial_332_176" cx="0" cy="0" r="1" gradientUnits="userSpaceOnUse" gradientTransform="translate(234.7 270.044) rotate(102.117) scale(107.07 16.917)">
<stop stop-color="white"/>
<stop offset="1" stop-color="#999999" stop-opacity="0"/>
</radialGradient>
</defs>
</svg>
