<svg width="500" height="500" viewBox="0 0 500 500" fill="none" xmlns="http://www.w3.org/2000/svg">
<path d="M432.223 329.136C440.125 259.402 401.838 166.719 362.141 128.446C290.477 59.3519 230.941 72.7139 184.636 97.4629C138.33 122.212 131.715 204.834 99.7423 242.217C67.7693 279.599 49.5813 329.881 98.0923 379.935C146.603 429.989 185.738 404.555 236.454 401.383C287.17 398.211 354.423 423.203 390.808 401.471C416.214 386.296 428.73 359.958 432.223 329.136Z" fill="#0F4C81"/>
<path opacity="0.7" d="M432.223 329.136C440.125 259.402 401.838 166.719 362.141 128.446C290.477 59.3519 230.941 72.7139 184.636 97.4629C138.33 122.212 131.715 204.834 99.7423 242.217C67.7693 279.599 49.5813 329.881 98.0923 379.935C146.603 429.989 185.738 404.555 236.454 401.383C287.17 398.211 354.423 423.203 390.808 401.471C416.214 386.296 428.73 359.958 432.223 329.136Z" fill="white"/>
<path d="M250.641 192.749C244.266 189.272 241.369 192.17 239.051 189.272C236.733 186.374 245.425 178.84 228.04 171.307C228.04 171.307 226.881 155.081 203.121 154.501C179.361 153.922 185.736 170.728 179.361 174.784C172.986 178.84 171.248 172.466 164.873 176.522C158.498 180.579 161.396 188.692 156.181 189.851C150.965 191.01 144.011 184.636 137.637 188.692C131.262 192.749 131.262 196.226 128.364 196.226C125.467 196.226 119.671 193.908 116.194 196.226C112.717 198.544 108.66 201.442 108.66 201.442H255.277C255.277 201.442 257.015 196.226 250.641 192.749Z" fill="white"/>
<path d="M345.101 146.485C342.514 145.074 341.338 146.25 340.397 145.074C339.456 143.898 342.984 140.841 335.928 137.783C335.928 137.783 335.458 131.198 325.815 130.963C316.173 130.728 318.76 137.548 316.173 139.194C313.586 140.84 312.88 138.253 310.293 139.9C307.706 141.546 308.882 144.839 306.765 145.309C304.648 145.779 301.826 143.192 299.239 144.838C296.652 146.484 296.652 147.895 295.476 147.895C294.3 147.895 291.948 146.954 290.537 147.895C289.126 148.836 287.48 150.012 287.48 150.012H346.981C346.981 150.012 347.687 147.896 345.101 146.485Z" fill="white"/>
<path d="M261.448 268.573C258.861 267.162 257.685 268.338 256.745 267.162C255.804 265.986 259.332 262.929 252.276 259.871C252.276 259.871 251.806 253.286 242.163 253.051C232.521 252.816 235.108 259.636 232.521 261.282C229.934 262.928 229.229 260.341 226.641 261.988C224.054 263.634 225.23 266.927 223.113 267.397C220.996 267.867 218.174 265.28 215.587 266.927C213 268.573 213 269.984 211.824 269.984C210.648 269.984 208.296 269.043 206.885 269.984C205.474 270.925 203.828 272.101 203.828 272.101H263.329C263.329 272.101 264.035 269.984 261.448 268.573Z" fill="white"/>
<path d="M323 173.5L286.5 130H228.5L191.5 173.5H323Z" fill="url(#paint0_radial_332_4)"/>
<path d="M200.07 309.534L315.866 294.684L322.103 247.559L214.211 202.69L200.07 309.534Z" fill="url(#paint1_radial_332_4)"/>
<path d="M70.168 286.259V283.871H441.168V286.259H70.168Z" fill="white" stroke="white"/>
<path d="M355 285.37V123.369" stroke="white" stroke-miterlimit="10" stroke-linecap="round" stroke-linejoin="round"/>
<path d="M187 285.37V98.7031" stroke="white" stroke-miterlimit="10" stroke-linecap="round" stroke-linejoin="round"/>
<path d="M79.7539 193.162H428.241" stroke="white" stroke-miterlimit="10" stroke-linecap="round" stroke-linejoin="round"/>
<path d="M264.785 117.546H249.152V107.899C249.152 106.343 250.413 105.082 251.969 105.082H261.968C263.524 105.082 264.785 106.343 264.785 107.899V117.546Z" fill="white" stroke="white"/>
<path d="M264.004 130.453C264.004 134.457 260.758 137.703 256.754 137.703C252.75 137.703 249.504 134.457 249.504 130.453C249.504 126.449 252.75 123.203 256.754 123.203C260.758 123.203 264.004 126.449 264.004 130.453Z" fill="white" stroke="white"/>
<path d="M265.019 117.854L287.954 130.318H225.975L248.86 117.854H265.019Z" fill="white" stroke="white"/>
<path d="M256.074 105.933V79.9902H257.861V105.933H256.074Z" fill="white" stroke="white"/>
<path d="M367.411 218.4C368.455 218.856 371.008 218.798 371.01 218.798C371.036 218.797 370.461 217.127 370.413 217.025C369.853 215.853 368.081 213.919 366.64 214.113C365.602 214.253 365.024 215.293 365.259 216.27C365.498 217.27 366.522 218.012 367.411 218.4Z" fill="#263238"/>
<path d="M400.853 209.711C399.407 209.555 397.689 211.537 397.16 212.723C397.114 212.826 396.585 214.511 396.611 214.511C396.611 214.511 396.636 214.511 396.642 214.511C396.368 214.822 396.078 215.158 395.769 215.532C395.203 216.227 394.571 217.017 393.94 217.924C393.307 218.828 392.646 219.829 392.044 220.945C391.439 222.063 390.86 223.271 390.424 224.592C390.419 224.607 390.416 224.623 390.411 224.638C390.419 224.212 390.4 223.02 390.388 222.929C390.221 221.641 389.142 219.25 387.711 218.986C386.681 218.796 385.808 219.603 385.726 220.605C385.642 221.628 386.384 222.652 387.108 223.299C387.924 224.028 390.189 224.734 390.369 224.789C389.965 226.051 389.654 227.379 389.412 228.74C389.273 229.518 389.157 230.306 389.051 231.098C389.046 230.729 389.038 230.4 389.032 230.354C388.865 229.066 387.785 226.676 386.355 226.411C385.325 226.221 384.452 227.028 384.37 228.03C384.286 229.053 385.028 230.078 385.752 230.724C386.486 231.38 388.405 232.02 388.915 232.183C388.878 232.487 388.837 232.79 388.8 233.094C388.626 234.554 388.458 236.011 388.249 237.435C388.176 237.937 388.085 238.429 387.997 238.921C387.992 238.594 387.985 238.318 387.979 238.276C387.812 236.988 386.733 234.597 385.302 234.333C384.272 234.142 383.399 234.95 383.317 235.952C383.233 236.975 383.975 238 384.699 238.646C385.399 239.272 387.165 239.879 387.77 240.075C387.664 240.576 387.559 241.079 387.433 241.56C387.34 241.887 387.273 242.207 387.161 242.53C387.057 242.852 386.954 243.171 386.852 243.486C386.633 244.087 386.412 244.708 386.184 245.288C386.029 245.693 385.873 246.076 385.717 246.462C385.796 245.963 385.929 244.983 385.931 244.9C385.951 244.037 385.645 242.635 385.035 241.649C385.039 241.522 385.031 241.394 385.011 241.268C384.852 240.275 383.919 239.538 382.906 239.808C381.5 240.182 380.609 242.649 380.543 243.946C380.539 244.022 380.589 244.857 380.629 245.384C380.558 245.078 380.493 244.781 380.416 244.467C380.269 243.845 380.103 243.229 379.928 242.566C379.832 242.249 379.735 241.928 379.637 241.604C379.547 241.281 379.41 240.951 379.298 240.621C379.02 239.861 378.701 239.104 378.363 238.349C378.907 238.218 380.832 237.728 381.605 237.134C382.375 236.544 383.191 235.577 383.184 234.551C383.177 233.546 382.367 232.676 381.325 232.789C379.879 232.946 378.624 235.25 378.362 236.522C378.346 236.601 378.26 237.535 378.223 238.049C378.016 237.597 377.812 237.144 377.588 236.693C376.942 235.391 376.247 234.094 375.56 232.797C375.349 232.4 375.144 232.001 374.937 231.603C375.131 231.559 377.432 231.025 378.298 230.361C379.068 229.771 379.884 228.804 379.877 227.778C379.87 226.773 379.06 225.903 378.018 226.016C376.572 226.173 375.317 228.476 375.055 229.748C375.035 229.844 374.914 231.188 374.9 231.531C374.445 230.654 373.999 229.776 373.595 228.893C373.036 227.675 372.554 226.449 372.175 225.227C372.265 225.207 374.669 224.66 375.556 223.98C376.326 223.39 377.142 222.423 377.134 221.397C377.127 220.392 376.317 219.522 375.275 219.635C373.829 219.792 372.574 222.095 372.312 223.367C372.291 223.467 372.161 224.913 372.157 225.177C372.135 225.104 372.103 225.031 372.082 224.959C371.694 223.649 371.483 222.331 371.346 221.088C371.265 220.366 371.228 219.671 371.207 218.994C371.665 218.938 373.756 218.66 374.622 218.136C375.452 217.633 376.369 216.763 376.475 215.742C376.578 214.742 375.868 213.788 374.821 213.786C373.367 213.783 371.866 215.935 371.466 217.17C371.444 217.237 371.298 217.945 371.199 218.461C371.194 218.155 371.184 217.84 371.185 217.547C371.187 216.447 371.256 215.44 371.325 214.549C371.368 214.042 371.417 213.585 371.468 213.158C371.889 212.868 373.571 211.681 374.089 210.832C374.594 210.004 375.007 208.808 374.63 207.853C374.261 206.918 373.191 206.398 372.261 206.88C370.969 207.548 370.629 210.149 370.843 211.43C370.862 211.541 371.35 213.239 371.372 213.224C371.372 213.224 371.393 213.21 371.397 213.206C371.34 213.616 371.284 214.057 371.232 214.539C371.143 215.431 371.052 216.439 371.026 217.543C370.997 218.646 370.997 219.846 371.111 221.109C371.224 222.376 371.406 223.702 371.772 225.045C371.776 225.06 371.782 225.076 371.787 225.091C371.558 224.732 370.885 223.748 370.825 223.678C369.975 222.696 367.756 221.298 366.417 221.866C365.453 222.276 365.17 223.43 365.654 224.311C366.149 225.211 367.333 225.656 368.292 225.796C369.375 225.954 371.653 225.293 371.834 225.24C372.194 226.515 372.666 227.795 373.216 229.063C373.529 229.789 373.867 230.51 374.216 231.228C374.008 230.924 373.82 230.653 373.79 230.618C372.94 229.636 370.721 228.238 369.382 228.806C368.417 229.216 368.135 230.37 368.619 231.251C369.113 232.151 370.297 232.596 371.257 232.736C372.231 232.878 374.185 232.354 374.7 232.208C374.837 232.482 374.97 232.758 375.107 233.031C375.767 234.345 376.431 235.653 377.043 236.956C377.259 237.415 377.455 237.875 377.652 238.335C377.467 238.065 377.309 237.839 377.281 237.807C376.431 236.825 374.212 235.427 372.873 235.995C371.909 236.405 371.626 237.559 372.11 238.44C372.605 239.34 373.788 239.785 374.748 239.924C375.678 240.059 377.485 239.592 378.098 239.422C378.286 239.899 378.475 240.376 378.636 240.846C378.739 241.17 378.86 241.474 378.945 241.805C379.036 242.131 379.126 242.453 379.215 242.773C379.364 243.395 379.522 244.035 379.652 244.645C379.746 245.068 379.827 245.474 379.911 245.882C379.701 245.423 379.272 244.532 379.228 244.461C378.537 243.361 376.555 241.643 375.146 242.002C374.131 242.261 373.676 243.359 374.022 244.303C374.375 245.267 375.477 245.886 376.405 246.17C377.426 246.482 379.688 246.197 379.97 246.159C380.106 246.835 380.231 247.493 380.339 248.116C380.72 250.276 380.955 252.089 381.101 253.358C381.127 253.583 381.149 253.785 381.169 253.975H376.792L378.39 285.161H385.849L387.447 253.975H383.369C383.399 253.912 383.428 253.854 383.459 253.788C384.019 252.622 384.795 250.947 385.633 248.897C385.899 248.25 386.171 247.553 386.443 246.835C386.717 246.892 388.955 247.347 389.999 247.111C390.945 246.897 392.091 246.362 392.515 245.427C392.93 244.511 392.559 243.382 391.565 243.048C390.186 242.585 388.082 244.151 387.311 245.196C387.265 245.258 386.847 245.982 386.59 246.443C386.7 246.149 386.81 245.865 386.919 245.561C387.139 244.961 387.341 244.356 387.561 243.706C387.656 243.388 387.752 243.067 387.849 242.743C387.952 242.424 388.02 242.073 388.108 241.736C388.295 240.949 388.447 240.142 388.582 239.325C389.108 239.516 390.984 240.169 391.956 240.101C392.923 240.033 394.137 239.678 394.698 238.817C395.247 237.975 395.051 236.802 394.12 236.322C392.827 235.655 390.51 236.884 389.589 237.801C389.532 237.858 388.945 238.59 388.63 238.998C388.707 238.507 388.787 238.017 388.849 237.517C389.028 236.075 389.164 234.61 389.307 233.149C389.35 232.701 389.399 232.256 389.446 231.81C389.632 231.88 391.846 232.704 392.935 232.628C393.903 232.56 395.116 232.205 395.677 231.344C396.225 230.502 396.03 229.329 395.099 228.849C393.806 228.182 391.489 229.411 390.568 230.327C390.499 230.396 389.656 231.45 389.455 231.729C389.559 230.747 389.671 229.769 389.821 228.809C390.026 227.484 390.301 226.196 390.659 224.968C390.746 225.001 393.052 225.871 394.167 225.793C395.135 225.725 396.348 225.37 396.909 224.509C397.457 223.667 397.262 222.494 396.331 222.014C395.038 221.347 392.721 222.576 391.8 223.492C391.728 223.564 390.822 224.698 390.672 224.916C390.694 224.843 390.708 224.765 390.73 224.692C391.129 223.386 391.68 222.17 392.252 221.058C392.583 220.411 392.935 219.811 393.291 219.234C393.704 219.44 395.602 220.362 396.613 220.402C397.582 220.441 398.828 220.221 399.479 219.427C400.117 218.65 400.051 217.463 399.178 216.883C397.966 216.078 395.528 217.046 394.513 217.855C394.458 217.899 393.946 218.409 393.578 218.785C393.743 218.527 393.908 218.259 394.07 218.015C394.678 217.099 395.292 216.297 395.841 215.592C396.157 215.193 396.45 214.839 396.728 214.511C397.239 214.502 399.297 214.439 400.197 214.017C401.075 213.605 402.079 212.836 402.291 211.831C402.5 210.846 401.895 209.823 400.853 209.711ZM384.841 248.563C383.967 250.574 383.163 252.217 382.585 253.356C382.468 253.586 382.364 253.789 382.267 253.976H382.17C382.142 253.753 382.11 253.51 382.072 253.237C381.896 251.956 381.619 250.131 381.187 247.958C381.052 247.271 380.894 246.54 380.725 245.791C380.895 245.723 381.859 245.333 382.714 244.856C383.458 245.662 385.366 246.606 385.613 246.726C385.354 247.365 385.095 247.983 384.841 248.563Z" fill="#263238"/>
<path d="M393.231 218.962C393.253 218.976 393.695 217.265 393.711 217.154C393.89 215.868 393.48 213.277 392.17 212.644C391.227 212.188 390.172 212.736 389.828 213.681C389.477 214.646 389.922 215.83 390.449 216.644C391.068 217.6 393.229 218.961 393.231 218.962Z" fill="#263238"/>
<path d="M179.967 246.422L171.903 270.208L164.044 323.95L134.906 396.449H144.057L186.445 327.228L199.502 284.482L217.804 329.161L221.034 396.987H230.7L236.645 324.854L224.798 269.048L222.272 257.198L179.967 246.422Z" fill="#263238" stroke="#263238" stroke-miterlimit="10" stroke-linecap="round" stroke-linejoin="round"/>
<path d="M232.832 183.166C232.832 183.166 218.09 180.709 204.688 183.613C191.286 186.517 173.463 192.208 160.389 201.469C156.771 204.032 153.035 208.006 153.035 208.006L162.806 215.336C162.806 215.336 178.609 211.038 183.815 211.002C187.722 210.975 192.851 210.192 192.851 210.192L179.966 246.422C179.966 246.422 179.296 255.133 188.677 258.93C198.058 262.727 215.505 264.824 222.502 259.441C226.186 256.607 243.776 211.085 243.776 211.085C243.776 211.085 248.932 237.846 250.495 241.867C252.059 245.888 255.186 249.238 255.186 249.238L265.014 241.867C265.014 241.867 259.635 215.553 257.625 206.842C255.615 198.131 248.021 184.506 232.832 183.166Z" fill="#0F4C81" stroke="#263238" stroke-miterlimit="10" stroke-linecap="round" stroke-linejoin="round"/>
<path d="M208.263 208.184L192.852 210.194L204.913 213.321" stroke="#263238" stroke-miterlimit="10" stroke-linecap="round" stroke-linejoin="round"/>
<path d="M207.816 186.07C207.816 186.07 213.177 195.004 208.263 204.162" stroke="#263238" stroke-miterlimit="10" stroke-linecap="round" stroke-linejoin="round"/>
<path d="M243.777 211.086L254.052 209.523" stroke="#263238" stroke-miterlimit="10" stroke-linecap="round" stroke-linejoin="round"/>
<path d="M244.227 211.98L257.852 213.99" stroke="#263238" stroke-miterlimit="10" stroke-linecap="round" stroke-linejoin="round"/>
<path d="M231.714 180.486C231.714 180.486 224.566 182.72 222.779 184.953C220.992 187.187 220.992 208.406 220.992 208.406L230.15 206.396L237.968 212.427C237.968 212.427 237.521 199.695 236.181 190.984C234.841 182.273 231.714 180.486 231.714 180.486Z" fill="#0F4C81" stroke="#263238" stroke-miterlimit="10" stroke-linecap="round" stroke-linejoin="round"/>
<path d="M235.065 174.902C235.065 174.902 229.258 183.166 227.918 184.953C226.578 186.74 227.471 196.344 228.141 199.695C228.811 203.045 230.151 206.396 230.151 206.396L239.309 196.791C239.309 196.791 235.735 192.547 236.405 187.187C237.075 181.826 239.979 176.019 239.755 174.455C239.532 172.891 235.065 174.902 235.065 174.902Z" fill="white" stroke="#263238" stroke-miterlimit="10" stroke-linecap="round" stroke-linejoin="round"/>
<path d="M234.838 178.699C234.838 178.699 230.818 188.527 231.711 192.101C232.604 195.675 241.986 203.939 246.453 202.599C250.92 201.259 251.59 192.994 251.59 192.994C251.59 192.994 253.6 193.887 254.27 193.441C254.94 192.994 255.163 187.41 255.163 187.41C255.163 187.41 257.173 185.176 258.067 183.836C258.96 182.496 259.63 180.932 259.63 180.932C259.63 180.932 267.001 180.709 266.331 174.008C265.661 167.307 253.153 157.703 244.218 157.703C235.284 157.703 231.933 167.978 231.933 171.105C231.935 174.232 234.838 178.699 234.838 178.699Z" fill="white" stroke="#263238" stroke-miterlimit="10" stroke-linecap="round" stroke-linejoin="round"/>
<path d="M251.462 185.83C251.462 185.83 249.268 183.322 246.133 183.322L251.462 185.83Z" fill="white"/>
<path d="M251.462 185.83C251.462 185.83 249.268 183.322 246.133 183.322" stroke="#263238" stroke-miterlimit="10" stroke-linecap="round" stroke-linejoin="round"/>
<path d="M249.524 186.996L248.73 188.347C248.73 188.347 246.849 188.837 246.133 187.693" fill="white"/>
<path d="M249.524 186.996L248.73 188.347C248.73 188.347 246.849 188.837 246.133 187.693" stroke="#263238" stroke-miterlimit="10" stroke-linecap="round" stroke-linejoin="round"/>
<path d="M266.333 174.008C265.663 167.307 253.155 157.703 244.22 157.703C235.286 157.703 231.935 167.978 231.935 171.105C231.935 174.232 234.839 178.699 234.839 178.699C234.839 178.699 230.818 188.527 231.712 192.101C232.605 195.675 241.987 203.939 246.454 202.599C249.979 201.541 251.136 196.185 251.469 193.968C248.291 190.542 243.542 194.183 240.87 195.005C237.966 195.898 235.063 191.878 235.063 189.644C235.063 187.41 237.967 181.38 238.637 180.263C239.307 179.146 242.881 180.04 244.891 179.816C246.901 179.593 243.998 176.242 244.444 174.232C244.891 172.222 251.592 179.146 254.272 180.709C256.952 182.273 259.633 180.932 259.633 180.932C259.633 180.932 267.004 180.709 266.333 174.008ZM246.901 195.898C250.251 195.451 250.251 196.791 250.251 196.791C249.033 199.615 248.464 199.025 247.347 198.578C246.231 198.131 243.551 196.344 246.901 195.898Z" fill="#263238" stroke="#263238" stroke-miterlimit="10" stroke-linecap="round" stroke-linejoin="round"/>
<path d="M235.734 180.71C235.734 180.71 236.404 176.243 233.724 175.796C231.044 175.349 230.82 179.147 230.82 181.603C230.82 184.06 233.724 184.06 235.064 183.613" fill="white"/>
<path d="M235.734 180.71C235.734 180.71 236.404 176.243 233.724 175.796C231.044 175.349 230.82 179.147 230.82 181.603C230.82 184.06 233.724 184.06 235.064 183.613" stroke="#263238" stroke-miterlimit="10" stroke-linecap="round" stroke-linejoin="round"/>
<path d="M234.052 168.209C233.48 168.577 233.012 169.027 232.684 169.519" stroke="white" stroke-width="0.5" stroke-miterlimit="10" stroke-linecap="round" stroke-linejoin="round"/>
<path d="M252.024 176.646C252.024 176.646 247.544 175.017 243.472 170.334C241.083 167.587 238.345 166.942 236.16 167.371" stroke="white" stroke-width="0.5" stroke-miterlimit="10" stroke-linecap="round" stroke-linejoin="round"/>
<path d="M242.861 177.867C242.861 177.867 240.825 170.944 232.477 173.184" stroke="white" stroke-width="0.5" stroke-miterlimit="10" stroke-linecap="round" stroke-linejoin="round"/>
<path d="M151.126 219.174C151.126 219.174 154.092 214.443 157.89 215.783C161.687 217.123 165.261 220.474 165.261 220.474L168.612 215.113C168.612 215.113 169.282 209.529 163.251 206.625C157.22 203.721 153.87 206.178 153.87 206.178C151.572 206.606 148.679 217.884 151.126 219.174Z" fill="#0F4C81" stroke="#263238" stroke-miterlimit="10" stroke-linecap="round" stroke-linejoin="round"/>
<path d="M265.906 237.4C265.906 237.4 260.099 238.964 256.078 241.867C252.057 244.771 251.387 248.568 251.387 248.568C251.387 248.568 256.524 254.152 257.641 254.152C258.758 254.152 267.246 244.771 268.139 243.877C269.033 242.984 265.906 237.4 265.906 237.4Z" fill="#0F4C81" stroke="#263238" stroke-miterlimit="10" stroke-linecap="round" stroke-linejoin="round"/>
<path d="M305.218 262.642C305.218 262.642 304.995 265.769 304.101 266.439C303.208 267.109 299.187 266.439 299.187 266.439C299.187 266.439 296.507 262.642 297.623 261.078C298.74 259.514 300.75 259.961 302.09 260.408C303.431 260.855 305.218 262.642 305.218 262.642Z" fill="white" stroke="#263238" stroke-miterlimit="10" stroke-linecap="round" stroke-linejoin="round"/>
<path d="M268.142 243.879L292.042 256.164L300.753 257.281C300.753 257.281 311.474 262.642 311.474 263.535C311.474 264.428 310.357 264.875 309.464 264.652C308.571 264.429 302.093 261.748 300.753 261.748C299.413 261.748 298.296 262.195 298.519 263.312C298.742 264.429 301.869 269.119 300.083 269.119C298.296 269.119 296.509 264.652 295.616 264.205C294.722 263.758 291.595 260.408 291.595 260.408C291.595 260.408 271.046 256.164 266.355 255.494C261.664 254.824 258.984 252.814 258.984 252.814L268.142 243.879Z" fill="white" stroke="#263238" stroke-miterlimit="10" stroke-linecap="round" stroke-linejoin="round"/>
<path d="M144.055 396.448L146.919 400.554C148.118 402.273 149.718 403.673 151.581 404.633L157.135 407.494C157.518 407.691 157.759 408.086 157.759 408.517C157.759 409.175 157.211 409.7 156.554 409.666C151.331 409.4 130.883 408.361 130.168 408.361C129.348 408.361 129.075 407.268 129.348 403.99C129.621 400.712 134.903 396.447 134.903 396.447H144.055V396.448Z" fill="white" stroke="#263238" stroke-miterlimit="10" stroke-linecap="round" stroke-linejoin="round"/>
<path d="M230.652 396.448L233.516 400.554C234.715 402.273 236.315 403.673 238.178 404.633L243.733 407.494C244.116 407.691 244.357 408.086 244.357 408.517C244.357 409.175 243.809 409.7 243.152 409.666C237.929 409.4 217.481 408.361 216.766 408.361C215.946 408.361 215.673 407.268 215.946 403.99C216.219 400.712 221.501 396.447 221.501 396.447H230.652V396.448Z" fill="white" stroke="#263238" stroke-miterlimit="10" stroke-linecap="round" stroke-linejoin="round"/>
<path d="M155.844 255.601C155.844 255.601 152.852 260.385 153.668 264.324C154.484 268.264 161.829 285.429 167.27 301.188C172.711 316.947 171.622 334.112 171.622 339.178C171.622 344.243 171.35 347.901 175.158 349.871C178.966 351.841 184.951 350.715 186.583 347.057C188.215 343.399 189.303 320.042 186.311 305.972C183.319 291.902 172.709 267.138 169.989 261.51C167.269 255.883 165.909 248.004 155.844 255.601Z" fill="white"/>
<mask id="mask0_332_4" style="mask-type:luminance" maskUnits="userSpaceOnUse" x="153" y="252" width="36" height="99">
<path d="M155.844 255.601C155.844 255.601 152.852 260.385 153.668 264.324C154.484 268.264 161.829 285.429 167.27 301.188C172.711 316.947 171.622 334.112 171.622 339.178C171.622 344.243 171.35 347.901 175.158 349.871C178.966 351.841 184.951 350.715 186.583 347.057C188.215 343.399 189.303 320.042 186.311 305.972C183.319 291.902 172.709 267.138 169.989 261.51C167.269 255.883 165.909 248.004 155.844 255.601Z" fill="white"/>
</mask>
<g mask="url(#mask0_332_4)">
<path opacity="0.25" d="M155.844 255.601C155.844 255.601 152.852 260.385 153.668 264.324C154.484 268.264 161.829 285.429 167.27 301.188C172.711 316.947 171.622 334.112 171.622 339.178C171.622 344.243 171.35 347.901 175.158 349.871C178.966 351.841 184.951 350.715 186.583 347.057C188.215 343.399 189.303 320.042 186.311 305.972C183.319 291.902 172.709 267.138 169.989 261.51C167.269 255.883 165.909 248.004 155.844 255.601Z" fill="black"/>
</g>
<mask id="mask1_332_4" style="mask-type:luminance" maskUnits="userSpaceOnUse" x="153" y="252" width="36" height="99">
<path d="M155.844 255.601C155.844 255.601 152.852 260.385 153.668 264.324C154.484 268.264 161.829 285.429 167.27 301.188C172.711 316.947 171.622 334.112 171.622 339.178C171.622 344.243 171.35 347.901 175.158 349.871C178.966 351.841 184.951 350.715 186.583 347.057C188.215 343.399 189.303 320.042 186.311 305.972C183.319 291.902 172.709 267.138 169.989 261.51C167.269 255.883 165.909 248.004 155.844 255.601Z" fill="white"/>
</mask>
<g mask="url(#mask1_332_4)">
<path opacity="0.25" d="M151.844 258.602C151.844 258.602 148.852 263.386 149.668 267.325C150.484 271.265 157.829 288.43 163.27 304.189C168.711 319.948 167.622 337.113 167.622 342.179C167.622 347.244 167.35 350.902 171.158 352.872C174.966 354.842 180.951 353.716 182.583 350.058C184.215 346.4 185.303 323.043 182.311 308.973C179.319 294.903 168.709 270.139 165.989 264.511C163.269 258.883 161.909 251.004 151.844 258.602Z" fill="black"/>
</g>
<path d="M155.844 255.601C155.844 255.601 152.852 260.385 153.668 264.324C154.484 268.264 161.829 285.429 167.27 301.188C172.711 316.947 171.622 334.112 171.622 339.178C171.622 344.243 171.35 347.901 175.158 349.871C178.966 351.841 184.951 350.715 186.583 347.057C188.215 343.399 189.303 320.042 186.311 305.972C183.319 291.902 172.709 267.138 169.989 261.51C167.269 255.883 165.909 248.004 155.844 255.601Z" stroke="#263238" stroke-miterlimit="10" stroke-linecap="round" stroke-linejoin="round"/>
<path d="M151.637 216.007C151.637 216.007 150.855 223.261 153.852 231.432C155.605 236.214 164.93 251.292 164.93 251.292C164.93 251.292 157.112 254.196 154.879 256.206C152.645 258.216 149.965 264.694 151.305 264.917C152.645 265.14 157.559 259.556 158.676 259.11C159.793 258.663 166.27 258.217 166.27 258.217C166.27 258.217 164.934 260.054 163.896 261.737C163.236 262.807 162.697 263.814 162.697 264.248C162.697 265.365 164.261 265.141 165.154 263.355C166.047 261.568 168.728 261.791 169.621 257.771C170.514 253.751 169.174 249.283 169.174 249.283L165.262 220.475C165.262 220.475 161.206 212.365 151.637 216.007Z" fill="white" stroke="#263238" stroke-miterlimit="10" stroke-linecap="round" stroke-linejoin="round"/>
<path d="M151.305 264.917C151.305 264.917 154.402 258.249 157.81 257.113" stroke="#263238" stroke-miterlimit="10" stroke-linecap="round" stroke-linejoin="round"/>
<path d="M152.129 261.089C152.129 261.089 154.685 257.397 157.241 255.693" stroke="#263238" stroke-miterlimit="10" stroke-linecap="round" stroke-linejoin="round"/>
<path d="M213.491 346.586H209.84V381.761H213.491V346.586Z" fill="white" stroke="#263238" stroke-miterlimit="10" stroke-linecap="round" stroke-linejoin="round"/>
<path d="M216.299 383.196V377.268H207.031V383.251L169.961 397.488V404.509H172.488V399.173L211.798 390.868L250.066 399.173V404.509H252.526V397.488L216.299 383.196Z" fill="white" stroke="#263238" stroke-miterlimit="10" stroke-linecap="round" stroke-linejoin="round"/>
<path d="M220.793 346.586H202.539V357.818H220.793V346.586Z" fill="white" stroke="#263238" stroke-miterlimit="10" stroke-linecap="round" stroke-linejoin="round"/>
<path d="M166.03 408.721C168.201 408.721 169.962 406.961 169.962 404.789C169.962 402.618 168.201 400.857 166.03 400.857C163.858 400.857 162.098 402.618 162.098 404.789C162.098 406.961 163.858 408.721 166.03 408.721Z" fill="#263238" stroke="#263238" stroke-miterlimit="10" stroke-linecap="round" stroke-linejoin="round"/>
<path d="M167.714 404.789C167.714 403.858 166.96 403.104 166.029 403.104C165.098 403.104 164.344 403.858 164.344 404.789C164.344 405.72 165.099 406.474 166.029 406.474C166.959 406.474 167.714 405.72 167.714 404.789Z" fill="white" stroke="#263238" stroke-miterlimit="10" stroke-linecap="round" stroke-linejoin="round"/>
<path d="M256.741 408.721C258.912 408.721 260.673 406.961 260.673 404.789C260.673 402.618 258.912 400.857 256.741 400.857C254.569 400.857 252.809 402.618 252.809 404.789C252.809 406.961 254.569 408.721 256.741 408.721Z" fill="#263238" stroke="#263238" stroke-miterlimit="10" stroke-linecap="round" stroke-linejoin="round"/>
<path d="M256.74 406.474C257.67 406.474 258.425 405.719 258.425 404.789C258.425 403.858 257.67 403.104 256.74 403.104C255.809 403.104 255.055 403.858 255.055 404.789C255.055 405.719 255.809 406.474 256.74 406.474Z" fill="white" stroke="#263238" stroke-miterlimit="10" stroke-linecap="round" stroke-linejoin="round"/>
<path d="M213.349 405.35H210.26L208.715 384.287H214.893L213.349 405.35Z" fill="white" stroke="#263238" stroke-miterlimit="10" stroke-linecap="round" stroke-linejoin="round"/>
<path d="M213.21 400.857H210.121V409.563H213.21V400.857Z" fill="#263238" stroke="#263238" stroke-miterlimit="10" stroke-linecap="round" stroke-linejoin="round"/>
<path d="M223.294 286.492C223.294 286.492 247.964 282.607 250.295 282.219C252.626 281.831 257.094 284.939 259.23 286.492C261.367 288.046 271.079 293.874 269.914 294.262C268.749 294.65 264.863 293.097 262.338 292.125C259.813 291.154 257.87 290.377 257.87 290.377C257.87 290.377 260.007 293.291 260.978 294.068C261.949 294.845 261.561 295.428 258.841 294.262C256.121 293.096 253.985 291.154 253.014 289.6C252.043 288.046 250.489 285.326 250.489 285.326C250.489 285.326 229.121 293.29 225.625 294.456C222.129 295.621 216.689 295.621 216.884 291.931C217.078 288.24 223.294 286.492 223.294 286.492Z" fill="white" stroke="#263238" stroke-miterlimit="10" stroke-linecap="round" stroke-linejoin="round"/>
<path d="M259.232 286.492C257.095 284.938 252.628 281.83 250.297 282.219C249.062 282.425 241.555 283.612 234.77 284.684L235.635 290.834C242.609 288.265 250.492 285.327 250.492 285.327C250.492 285.327 252.046 288.047 253.017 289.6C253.988 291.154 256.125 293.097 258.844 294.262C261.564 295.427 261.952 294.845 260.981 294.068C260.01 293.291 257.873 290.377 257.873 290.377C257.873 290.377 259.816 291.154 262.341 292.125C264.866 293.096 268.751 294.65 269.917 294.262C271.082 293.874 261.369 288.046 259.232 286.492Z" fill="white" stroke="#263238" stroke-miterlimit="10" stroke-linecap="round" stroke-linejoin="round"/>
<path d="M260.59 288.629L269.914 294.262" stroke="#263238" stroke-miterlimit="10" stroke-linecap="round" stroke-linejoin="round"/>
<path d="M242.569 225.286C242.569 225.286 248.008 221.789 247.037 217.904C246.066 214.019 229.943 208.192 222.173 209.94C214.403 211.688 211.878 219.653 209.741 225.48C207.604 231.307 198.863 256.366 198.863 256.366C198.863 256.366 205.273 263.553 213.432 259.862C221.591 256.171 228.972 236.163 232.663 232.084C236.354 228.005 242.569 225.286 242.569 225.286Z" fill="#263238" stroke="#263238" stroke-miterlimit="10" stroke-linecap="round" stroke-linejoin="round"/>
<path d="M236.953 212.688C236.953 212.688 240.414 215.13 241.433 217.37C242.451 219.61 241.229 220.832 241.229 220.832" stroke="white" stroke-width="0.5" stroke-miterlimit="10" stroke-linecap="round" stroke-linejoin="round"/>
<path d="M239.599 214.926C239.599 214.926 233.49 221.645 225.142 225.311C216.794 228.977 211.092 232.03 208.445 235.085" stroke="white" stroke-width="0.5" stroke-miterlimit="10" stroke-linecap="round" stroke-linejoin="round"/>
<path d="M205.712 240.227C205.283 241.197 204.902 242.197 204.578 243.23" stroke="white" stroke-width="0.5" stroke-miterlimit="10" stroke-linecap="round" stroke-linejoin="round"/>
<path d="M229.482 215.799C228.119 217.133 226.244 218.773 223.72 220.628C218.061 224.789 211.041 230.311 206.887 237.86" stroke="white" stroke-width="0.5" stroke-miterlimit="10" stroke-linecap="round" stroke-linejoin="round"/>
<path d="M232.678 212.076C232.678 212.076 232.357 212.622 231.535 213.6" stroke="white" stroke-width="0.5" stroke-miterlimit="10" stroke-linecap="round" stroke-linejoin="round"/>
<path d="M212.655 245.683C212.655 245.683 198.669 251.705 194.59 253.841C190.511 255.978 189.734 260.251 189.734 263.942C189.734 267.633 194.979 295.411 194.979 295.411H217.901C217.901 295.411 221.98 287.253 224.894 284.533C227.808 281.814 230.139 276.374 228.973 272.684C227.807 268.993 226.642 267.051 226.642 263.36C226.642 259.669 225.865 255.007 222.951 252.094C220.037 249.179 218.483 244.517 212.655 245.683Z" fill="white" stroke="#263238" stroke-miterlimit="10" stroke-linecap="round" stroke-linejoin="round"/>
<path d="M260.922 351.393C261.415 353.928 263.449 357.082 264.453 359.493C266.488 364.379 270.133 372.124 272.345 376.939C275.496 383.799 277.854 392.678 277.434 393.283C277.014 393.888 275.964 396.915 275.964 398.125C275.964 399.336 276.804 409.625 276.804 409.625H278.275L279.325 403.572C279.325 403.572 282.686 403.774 283.736 404.783C284.786 405.792 286.047 408.011 287.937 409.02C289.828 410.029 298.44 410.432 298.44 410.432C298.44 410.432 299.91 409.625 298.02 408.011C296.129 406.397 293.188 404.178 291.508 401.756C289.827 399.335 284.996 393.484 284.996 393.484C284.996 393.484 274.073 333.575 273.232 330.952C272.391 328.329 269.661 322.68 267.14 322.074C264.619 321.469 256.006 320.662 256.006 320.662L255.586 330.952C255.586 330.952 257.571 330.551 259.882 335.192C261.299 338.036 259.468 343.917 260.922 351.393Z" fill="white" stroke="#263238" stroke-miterlimit="10" stroke-linecap="round" stroke-linejoin="round"/>
<path d="M294.298 404.826C289.303 406.487 284.135 401.529 281.847 398.933C279.865 396.684 277.279 395.627 276.579 395.371C276.248 396.385 275.965 397.498 275.965 398.126C275.965 399.337 276.805 409.626 276.805 409.626H278.275L279.325 403.573C279.325 403.573 282.686 403.775 283.736 404.783C284.786 405.792 286.047 408.011 287.937 409.02C289.828 410.029 298.44 410.432 298.44 410.432C298.44 410.432 299.91 409.625 298.02 408.011C296.972 407.115 295.6 406.028 294.298 404.826Z" fill="#263238" stroke="#263238" stroke-miterlimit="10" stroke-linecap="round" stroke-linejoin="round"/>
<path d="M267.203 318.139C267.203 318.139 276.361 320.699 275.789 322.669C275.217 324.638 261.48 365.77 256.329 375.42C251.178 385.07 249.27 392.751 249.842 395.114C250.414 397.477 255.184 405.158 256.71 406.339C258.236 407.521 262.052 409.49 261.48 409.687C260.908 409.884 252.704 410.081 249.269 409.687C248.33 409.579 242.973 403.188 242.019 402.794C241.065 402.4 241.065 402.4 241.065 402.4V409.49H238.966L238.203 398.658C238.203 398.658 239.157 395.31 241.065 393.144C242.973 390.978 244.881 388.614 246.598 382.706C248.315 376.798 254.611 346.497 255.565 340.392C256.519 334.287 258.999 328.97 258.999 328.97L267.203 318.139Z" fill="white" stroke="#263238" stroke-miterlimit="10" stroke-linecap="round" stroke-linejoin="round"/>
<path d="M256.709 406.339C256.382 406.086 255.901 405.522 255.349 404.788C253.886 404.797 252.174 404.636 250.985 403.975C248.505 402.596 246.215 399.445 244.117 397.082C243.067 395.9 241.492 394.964 240.18 394.324C238.863 396.348 238.203 398.658 238.203 398.658L238.966 409.489H241.065V402.399C241.065 402.399 241.065 402.399 242.019 402.793C242.973 403.187 248.33 409.578 249.269 409.686C252.703 410.08 260.907 409.883 261.48 409.686C262.051 409.49 258.235 407.521 256.709 406.339Z" fill="#263238" stroke="#263238" stroke-miterlimit="10" stroke-linecap="round" stroke-linejoin="round"/>
<path d="M194.978 295.41C194.978 295.41 193.23 316.972 193.036 323.965C192.842 330.958 198.669 337.757 206.634 338.534C214.598 339.311 261.995 332.901 261.995 332.901L269.765 318.721C269.765 318.721 246.843 312.893 239.073 310.757C231.303 308.62 223.921 307.26 223.921 307.26L217.899 295.411H194.978V295.41Z" fill="#263238" stroke="#263238" stroke-miterlimit="10" stroke-linecap="round" stroke-linejoin="round"/>
<path d="M221.592 257.145L225.477 263.944C225.477 263.944 224.117 256.757 223.34 254.231C222.563 251.706 220.426 252.483 220.426 253.842C220.426 255.202 221.227 257.802 221.227 257.802" fill="#0F4C81"/>
<path d="M221.592 257.145L225.477 263.944C225.477 263.944 224.117 256.757 223.34 254.231C222.563 251.706 220.426 252.483 220.426 253.842C220.426 255.202 221.227 257.802 221.227 257.802" stroke="#263238" stroke-miterlimit="10" stroke-linecap="round" stroke-linejoin="round"/>
<path d="M222.119 233.456L215.418 244.177L221.225 257.802C221.225 257.802 224.799 249.538 226.586 247.527C228.373 245.517 231.5 242.613 231.5 242.613C231.5 242.613 225.916 235.912 225.469 234.125C225.023 232.339 222.566 231.669 222.119 233.456Z" fill="white" stroke="#263238" stroke-miterlimit="10" stroke-linecap="round" stroke-linejoin="round"/>
<path d="M214.211 242.186L210.715 245.683L216.931 263.554L221.593 257.144L214.211 242.186Z" fill="#0F4C81" stroke="#263238" stroke-miterlimit="10" stroke-linecap="round" stroke-linejoin="round"/>
<path d="M192.648 270.741C192.648 270.741 202.749 293.468 204.886 298.13C207.023 302.792 211.685 303.763 215.958 303.763C220.231 303.763 247.038 302.986 247.038 302.986C247.038 302.986 261.801 303.569 264.326 302.986C266.851 302.403 270.931 298.907 271.708 298.907C272.485 298.907 276.759 302.792 277.73 302.792C278.701 302.792 279.284 302.209 278.507 300.849C277.73 299.489 274.622 293.467 272.485 293.273C270.348 293.079 261.218 299.101 261.218 299.101C261.218 299.101 246.066 296.964 238.102 294.828C230.138 292.691 217.706 287.835 217.706 287.835C217.706 287.835 212.655 278.511 210.519 272.878C208.382 267.245 207.994 259.669 204.109 256.561C200.224 253.453 195.368 256.949 195.368 256.949" fill="white"/>
<path d="M192.648 270.741C192.648 270.741 202.749 293.468 204.886 298.13C207.023 302.792 211.685 303.763 215.958 303.763C220.231 303.763 247.038 302.986 247.038 302.986C247.038 302.986 261.801 303.569 264.326 302.986C266.851 302.403 270.931 298.907 271.708 298.907C272.485 298.907 276.759 302.792 277.73 302.792C278.701 302.792 279.284 302.209 278.507 300.849C277.73 299.489 274.622 293.467 272.485 293.273C270.348 293.079 261.218 299.101 261.218 299.101C261.218 299.101 246.066 296.964 238.102 294.828C230.138 292.691 217.706 287.835 217.706 287.835C217.706 287.835 212.655 278.511 210.519 272.878C208.382 267.245 207.994 259.669 204.109 256.561C200.224 253.453 195.368 256.949 195.368 256.949" stroke="#263238" stroke-miterlimit="10" stroke-linecap="round" stroke-linejoin="round"/>
<path d="M272.485 293.274C270.348 293.08 261.218 299.102 261.218 299.102C261.218 299.102 253.624 298.03 246.363 296.647L246.556 303.001C246.858 302.992 247.038 302.987 247.038 302.987C247.038 302.987 261.801 303.57 264.326 302.987C266.851 302.404 270.931 298.908 271.708 298.908C272.485 298.908 276.759 302.793 277.73 302.793C278.701 302.793 279.284 302.21 278.507 300.851C277.73 299.49 274.622 293.469 272.485 293.274Z" fill="white" stroke="#263238" stroke-miterlimit="10" stroke-linecap="round" stroke-linejoin="round"/>
<path d="M272.098 296.771C272.098 296.771 277.343 300.462 278.508 302.21" stroke="#263238" stroke-miterlimit="10" stroke-linecap="round" stroke-linejoin="round"/>
<path d="M272.68 295.021L277.342 298.907" stroke="#263238" stroke-miterlimit="10" stroke-linecap="round" stroke-linejoin="round"/>
<path d="M242 220.723C242 220.723 243.254 225.248 243.477 227.258C243.7 229.268 242.137 230.385 242.807 231.502C243.477 232.619 245.197 236.116 244.304 236.562C243.411 237.009 241.847 237.009 241.847 237.009C241.847 237.009 237.756 244.623 236.862 245.963C235.969 247.303 229.715 244.176 226.811 242.836C223.907 241.496 223.684 235.018 223.684 235.018L223.461 230.551C223.461 230.551 237.532 225.414 242 220.723Z" fill="white" stroke="#263238" stroke-miterlimit="10" stroke-linecap="round" stroke-linejoin="round"/>
<path d="M238.719 228.085C241.614 224.57 241.577 228.457 241.577 228.457L238.719 228.085Z" fill="white"/>
<path d="M238.719 228.085C241.614 224.57 241.577 228.457 241.577 228.457" stroke="#263238" stroke-miterlimit="10" stroke-linecap="round" stroke-linejoin="round"/>
<path d="M240.103 232.261C239.846 233.078 239.372 233.657 239.045 233.554C238.718 233.451 238.662 232.705 238.919 231.889C239.176 231.072 239.65 230.493 239.977 230.596C240.304 230.698 240.36 231.444 240.103 232.261Z" fill="#263238"/>
<path d="M225.023 232.337C225.023 232.337 223.459 226.753 221.672 227.87C219.885 228.987 218.992 233.231 220.779 235.464C222.566 237.698 225.47 236.357 225.47 236.357" fill="white"/>
<path d="M225.023 232.337C225.023 232.337 223.459 226.753 221.672 227.87C219.885 228.987 218.992 233.231 220.779 235.464C222.566 237.698 225.47 236.357 225.47 236.357" stroke="#263238" stroke-miterlimit="10" stroke-linecap="round" stroke-linejoin="round"/>
<path d="M238.283 350.153L187.815 351.746C185.474 351.82 183.516 349.982 183.442 347.641L183.213 340.4C183.139 338.059 184.977 336.101 187.318 336.027L237.786 334.434C240.127 334.36 242.085 336.198 242.159 338.539L242.388 345.78C242.462 348.121 240.624 350.079 238.283 350.153Z" fill="white"/>
<mask id="mask2_332_4" style="mask-type:luminance" maskUnits="userSpaceOnUse" x="183" y="334" width="60" height="18">
<path d="M238.283 350.153L187.815 351.746C185.474 351.82 183.516 349.982 183.442 347.641L183.213 340.4C183.139 338.059 184.977 336.101 187.318 336.027L237.786 334.434C240.127 334.36 242.085 336.198 242.159 338.539L242.388 345.78C242.462 348.121 240.624 350.079 238.283 350.153Z" fill="white"/>
</mask>
<g mask="url(#mask2_332_4)">
<path opacity="0.25" d="M238.283 350.153L187.815 351.746C185.474 351.82 183.516 349.982 183.442 347.641L183.213 340.4C183.139 338.059 184.977 336.101 187.318 336.027L237.786 334.434C240.127 334.36 242.085 336.198 242.159 338.539L242.388 345.78C242.462 348.121 240.624 350.079 238.283 350.153Z" fill="black"/>
</g>
<mask id="mask3_332_4" style="mask-type:luminance" maskUnits="userSpaceOnUse" x="183" y="334" width="60" height="18">
<path d="M238.283 350.153L187.815 351.746C185.474 351.82 183.516 349.982 183.442 347.641L183.213 340.4C183.139 338.059 184.977 336.101 187.318 336.027L237.786 334.434C240.127 334.36 242.085 336.198 242.159 338.539L242.388 345.78C242.462 348.121 240.624 350.079 238.283 350.153Z" fill="white"/>
</mask>
<g mask="url(#mask3_332_4)">
<path opacity="0.25" d="M238.283 354.336L187.815 355.929C185.474 356.003 183.516 354.165 183.442 351.824L183.213 344.583C183.139 342.242 184.977 340.284 187.318 340.21L237.786 338.617C240.127 338.543 242.085 340.381 242.159 342.722L242.388 349.963C242.462 352.304 240.624 354.262 238.283 354.336Z" fill="black"/>
</g>
<path d="M238.283 350.153L187.815 351.746C185.474 351.82 183.516 349.982 183.442 347.641L183.213 340.4C183.139 338.059 184.977 336.101 187.318 336.027L237.786 334.434C240.127 334.36 242.085 336.198 242.159 338.539L242.388 345.78C242.462 348.121 240.624 350.079 238.283 350.153Z" stroke="#263238" stroke-miterlimit="10" stroke-linecap="round" stroke-linejoin="round"/>
<path d="M222.477 344.411C222.217 344.411 221.952 344.361 221.697 344.255C220.658 343.824 220.166 342.632 220.597 341.594C223.876 333.694 227.641 319.593 223.785 315.387C222.884 314.767 217.465 313.455 188.252 316.133C187.255 316.224 186.522 316.291 186.125 316.321C184.083 316.477 182.342 319.077 181.893 319.976C181.39 320.981 180.165 321.388 179.161 320.887C178.155 320.385 177.748 319.161 178.25 318.155C178.533 317.59 181.147 312.619 185.813 312.261C186.198 312.232 186.911 312.167 187.881 312.078C219.007 309.222 224.975 310.658 226.787 312.635C233.646 320.117 225.328 340.82 224.358 343.156C224.033 343.939 223.275 344.411 222.477 344.411Z" fill="white" stroke="#263238" stroke-miterlimit="10" stroke-linecap="round" stroke-linejoin="round"/>
<path d="M400.729 305.037H240.426V316.27H400.729V305.037Z" fill="#0F4C81" stroke="#263238" stroke-miterlimit="10" stroke-linecap="round" stroke-linejoin="round"/>
<path d="M305.598 300.508H270.699V308.107H305.598V300.508Z" fill="white" stroke="#263238" stroke-miterlimit="10" stroke-linecap="round" stroke-linejoin="round"/>
<path d="M373.286 293.332H338.387V298.961H373.286V293.332Z" fill="white" stroke="#263238" stroke-miterlimit="10" stroke-linecap="round" stroke-linejoin="round"/>
<path d="M374.696 287.703H339.797V293.332H374.696V287.703Z" fill="white" stroke="#263238" stroke-miterlimit="10" stroke-linecap="round" stroke-linejoin="round"/>
<path d="M375.399 298.82H340.5V308.108H375.399V298.82Z" fill="white" stroke="#263238" stroke-miterlimit="10" stroke-linecap="round" stroke-linejoin="round"/>
<path d="M400.729 305.293H240.426V310.64H400.729V305.293Z" fill="#263238" stroke="#263238" stroke-miterlimit="10" stroke-linecap="round" stroke-linejoin="round"/>
<path d="M241.306 409.668C240.693 409.668 240.195 409.174 240.191 408.561L239.461 305.293H243.151L242.421 408.561C242.417 409.174 241.919 409.668 241.306 409.668Z" fill="#0F4C81" stroke="#263238" stroke-miterlimit="10" stroke-linecap="round" stroke-linejoin="round"/>
<path d="M399.759 409.668C399.146 409.668 398.648 409.174 398.644 408.561L397.914 305.293H401.604L400.874 408.561C400.87 409.174 400.372 409.668 399.759 409.668Z" fill="#0F4C81" stroke="#263238" stroke-miterlimit="10" stroke-linecap="round" stroke-linejoin="round"/>
<path d="M327.102 303.447H309.824C309.134 303.447 308.574 302.887 308.574 302.197C308.574 301.507 309.134 300.947 309.824 300.947H327.102C327.932 300.947 328.73 300.594 329.288 299.98C329.976 299.223 330.223 298.183 329.947 297.199L323.817 275.233C323.631 274.568 324.02 273.879 324.685 273.693C325.347 273.506 326.04 273.896 326.225 274.561L332.355 296.527C332.862 298.345 332.407 300.264 331.137 301.662C330.105 302.797 328.635 303.447 327.102 303.447Z" fill="white" stroke="#263238" stroke-miterlimit="10" stroke-linecap="round" stroke-linejoin="round"/>
<path d="M324.971 246.338L321.059 245.869L314.997 296.448L318.909 296.917L324.971 246.338Z" fill="white" stroke="#263238" stroke-miterlimit="10" stroke-linecap="round" stroke-linejoin="round"/>
<path d="M324.96 246.346C324.96 246.346 331.908 271.144 318.895 296.925L324.96 246.346Z" fill="#263238" stroke="#263238" stroke-miterlimit="10" stroke-linecap="round" stroke-linejoin="round"/>
<path d="M291.932 300.525C291.268 300.525 290.554 300.343 289.855 299.98C288.346 299.195 286.66 297.367 286.874 294.795C286.966 293.687 287.442 292.794 288.253 292.214C289.982 290.978 292.603 291.581 292.897 291.656C293.433 291.79 293.759 292.333 293.624 292.868C293.49 293.404 292.945 293.724 292.413 293.596C291.897 293.47 290.242 293.246 289.414 293.841C289.207 293.99 288.924 294.269 288.866 294.96C288.734 296.552 289.813 297.702 290.777 298.204C291.496 298.579 292.22 298.63 292.577 298.33C293.004 297.976 293.633 298.034 293.986 298.458C294.34 298.883 294.282 299.514 293.858 299.867C293.335 300.305 292.664 300.525 291.932 300.525Z" fill="white" stroke="#263238" stroke-miterlimit="10" stroke-linecap="round" stroke-linejoin="round"/>
<path d="M301.097 302.239C299.796 303.316 295.642 303.316 294.342 302.239C292.017 300.314 292.09 290.377 292.09 290.377H303.349C303.349 290.377 303.422 300.314 301.097 302.239Z" fill="white" stroke="#263238" stroke-miterlimit="10" stroke-linecap="round" stroke-linejoin="round"/>
<path d="M404.664 302.836H236.488V307.493H404.664V302.836Z" fill="#0F4C81" stroke="#263238" stroke-miterlimit="10" stroke-linecap="round" stroke-linejoin="round"/>
<path d="M437.693 408.891H68.168V415.583H437.693V408.891Z" fill="white"/>
<defs>
<radialGradient id="paint0_radial_332_4" cx="0" cy="0" r="1" gradientUnits="userSpaceOnUse" gradientTransform="translate(257 134) rotate(1.40698) scale(142.543 47.153)">
<stop stop-color="white"/>
<stop offset="1" stop-color="#999999" stop-opacity="0"/>
</radialGradient>
<radialGradient id="paint1_radial_332_4" cx="0" cy="0" r="1" gradientUnits="userSpaceOnUse" gradientTransform="translate(308.751 269.354) rotate(101.985) scale(117.144 121.992)">
<stop stop-color="white"/>
<stop offset="1" stop-color="#999999" stop-opacity="0"/>
</radialGradient>
</defs>
</svg>
