<?xml version="1.0" encoding="utf-8"?>
<!-- Generator: Adobe Illustrator 27.5.0, SVG Export Plug-In . SVG Version: 6.00 Build 0)  -->
<svg version="1.1" xmlns="http://www.w3.org/2000/svg" xmlns:xlink="http://www.w3.org/1999/xlink" x="0px" y="0px"
	 viewBox="0 0 500 500" style="enable-background:new 0 0 500 500;" xml:space="preserve">
<g id="Background_Simple">
	<g>
		<path style="fill:#0F4C81;" d="M432.225,330.136c7.902-69.734-30.385-162.417-70.082-200.69
			c-71.664-69.094-131.2-55.732-177.505-30.983c-46.306,24.749-52.921,107.371-84.894,144.754
			c-31.973,37.382-50.161,87.664-1.65,137.718c48.511,50.054,87.646,24.62,138.362,21.448c50.716-3.172,117.969,21.82,154.354,0.088
			C416.216,387.296,428.732,360.958,432.225,330.136z"/>
		<path style="opacity:0.7;fill:#FFFFFF;" d="M432.225,330.136c7.902-69.734-30.385-162.417-70.082-200.69
			c-71.664-69.094-131.2-55.732-177.505-30.983c-46.306,24.749-52.921,107.371-84.894,144.754
			c-31.973,37.382-50.161,87.664-1.65,137.718c48.511,50.054,87.646,24.62,138.362,21.448c50.716-3.172,117.969,21.82,154.354,0.088
			C416.216,387.296,428.732,360.958,432.225,330.136z"/>
	</g>
</g>
<g id="Clouds_1_">
</g>
<g id="Clouds">
	<g>
		<path style="fill:#FFFFFF;" d="M250.643,192.749c-6.375-3.477-9.272-0.579-11.59-3.477c-2.318-2.898,6.374-10.432-11.011-17.965
			c0,0-1.159-16.226-24.919-16.806c-23.76-0.579-17.385,16.227-23.76,20.283c-6.375,4.056-8.113-2.318-14.488,1.738
			c-6.375,4.057-3.477,12.17-8.692,13.329c-5.216,1.159-12.17-5.215-18.544-1.159c-6.375,4.057-6.375,7.534-9.273,7.534
			c-2.897,0-8.693-2.318-12.17,0c-3.477,2.318-7.534,5.216-7.534,5.216h146.617C255.279,201.442,257.017,196.226,250.643,192.749z"
			/>
	</g>
	<g>
		<path style="fill:#FFFFFF;" d="M345.105,146.485c-2.587-1.411-3.763-0.235-4.704-1.411c-0.941-1.176,2.587-4.233-4.469-7.291
			c0,0-0.47-6.585-10.113-6.82c-9.642-0.235-7.055,6.585-9.642,8.231c-2.587,1.646-3.293-0.941-5.88,0.706
			c-2.587,1.646-1.411,4.939-3.528,5.409c-2.117,0.47-4.939-2.117-7.526-0.471c-2.587,1.646-2.587,3.057-3.763,3.057
			c-1.176,0-3.528-0.941-4.939,0c-1.411,0.941-3.057,2.117-3.057,2.117h59.501C346.986,150.013,347.691,147.896,345.105,146.485z"/>
	</g>
	<g>
		<path style="fill:#FFFFFF;" d="M261.451,268.572c-2.587-1.411-3.763-0.235-4.703-1.411c-0.941-1.176,2.587-4.233-4.469-7.291
			c0,0-0.47-6.585-10.113-6.82c-9.642-0.235-7.055,6.585-9.642,8.231c-2.587,1.646-3.292-0.941-5.88,0.706
			c-2.587,1.646-1.411,4.939-3.528,5.409c-2.117,0.47-4.939-2.117-7.526-0.47c-2.587,1.646-2.587,3.057-3.763,3.057
			c-1.176,0-3.528-0.941-4.939,0c-1.411,0.941-3.057,2.117-3.057,2.117h59.501C263.333,272.099,264.038,269.983,261.451,268.572z"/>
	</g>
</g>
<g id="Background">
	<g>
		<rect x="69.667" y="283.371" style="fill:#263238;" width="372" height="3.388"/>
		
			<line style="fill:#FFFFFF;stroke:#263238;stroke-linecap:round;stroke-linejoin:round;stroke-miterlimit:10;" x1="355" y1="285.371" x2="355" y2="123.37"/>
		
			<line style="fill:#FFFFFF;stroke:#263238;stroke-linecap:round;stroke-linejoin:round;stroke-miterlimit:10;" x1="187" y1="285.371" x2="187" y2="98.704"/>
		
			<line style="fill:#FFFFFF;stroke:#263238;stroke-linecap:round;stroke-linejoin:round;stroke-miterlimit:10;" x1="79.751" y1="193.163" x2="428.238" y2="193.163"/>
		<g>
			<path style="fill:#263238;" d="M265.28,118.047h-16.632V107.9c0-1.832,1.485-3.317,3.317-3.317h9.999
				c1.832,0,3.317,1.485,3.317,3.317V118.047z"/>
			<circle style="fill:#FFFFFF;" cx="256.75" cy="130.454" r="7.75"/>
			<polygon style="fill:#263238;" points="289.919,130.819 224.009,130.819 248.73,117.355 265.143,117.355 			"/>
			<rect x="255.57" y="79.491" style="fill:#263238;" width="2.787" height="26.943"/>
		</g>
	</g>
</g>
<g id="Plants">
	<g>
		<path style="fill:#263238;" d="M367.412,218.4c1.044,0.456,3.597,0.398,3.599,0.398c0.026-0.001-0.549-1.671-0.597-1.773
			c-0.56-1.172-2.332-3.106-3.773-2.912c-1.038,0.14-1.616,1.18-1.381,2.157C365.499,217.27,366.523,218.012,367.412,218.4z"/>
		<path style="fill:#263238;" d="M400.854,209.711c-1.446-0.156-3.164,1.826-3.693,3.012c-0.046,0.103-0.575,1.788-0.549,1.788
			c0,0,0.025,0,0.031,0c-0.274,0.311-0.564,0.647-0.873,1.021c-0.566,0.695-1.198,1.485-1.829,2.392
			c-0.633,0.904-1.294,1.905-1.896,3.021c-0.605,1.118-1.184,2.326-1.62,3.647c-0.005,0.015-0.008,0.031-0.013,0.046
			c0.008-0.426-0.011-1.618-0.023-1.709c-0.167-1.288-1.246-3.679-2.677-3.943c-1.03-0.19-1.903,0.617-1.985,1.619
			c-0.084,1.023,0.658,2.047,1.382,2.694c0.816,0.729,3.081,1.435,3.261,1.49c-0.404,1.262-0.715,2.59-0.957,3.951
			c-0.139,0.778-0.255,1.566-0.361,2.358c-0.005-0.369-0.013-0.698-0.019-0.744c-0.167-1.288-1.247-3.678-2.677-3.943
			c-1.03-0.19-1.903,0.617-1.985,1.619c-0.084,1.023,0.658,2.048,1.382,2.694c0.734,0.656,2.653,1.296,3.163,1.459
			c-0.037,0.304-0.078,0.607-0.115,0.911c-0.174,1.46-0.342,2.917-0.551,4.341c-0.073,0.502-0.164,0.994-0.252,1.486
			c-0.005-0.327-0.012-0.603-0.018-0.645c-0.167-1.288-1.246-3.679-2.677-3.943c-1.03-0.191-1.903,0.617-1.985,1.619
			c-0.084,1.023,0.658,2.048,1.382,2.694c0.7,0.626,2.466,1.233,3.071,1.429c-0.106,0.501-0.211,1.004-0.337,1.485
			c-0.093,0.327-0.16,0.647-0.272,0.97c-0.104,0.322-0.207,0.641-0.309,0.956c-0.219,0.601-0.44,1.222-0.668,1.802
			c-0.155,0.405-0.311,0.788-0.467,1.174c0.079-0.499,0.212-1.479,0.214-1.562c0.02-0.863-0.286-2.265-0.896-3.251
			c0.004-0.127-0.004-0.255-0.024-0.381c-0.159-0.993-1.092-1.73-2.105-1.46c-1.406,0.374-2.297,2.841-2.363,4.138
			c-0.004,0.076,0.046,0.911,0.086,1.438c-0.071-0.306-0.136-0.603-0.213-0.917c-0.147-0.622-0.313-1.238-0.488-1.901
			c-0.096-0.317-0.193-0.638-0.291-0.962c-0.09-0.323-0.227-0.653-0.339-0.983c-0.278-0.76-0.597-1.517-0.935-2.272
			c0.544-0.131,2.469-0.621,3.242-1.215c0.77-0.59,1.586-1.557,1.579-2.583c-0.007-1.005-0.817-1.875-1.859-1.762
			c-1.446,0.157-2.701,2.461-2.963,3.733c-0.016,0.079-0.102,1.013-0.139,1.527c-0.207-0.452-0.411-0.905-0.635-1.356
			c-0.646-1.302-1.341-2.599-2.028-3.896c-0.211-0.397-0.416-0.796-0.623-1.194c0.194-0.044,2.495-0.578,3.361-1.242
			c0.77-0.59,1.586-1.557,1.579-2.583c-0.007-1.005-0.817-1.875-1.859-1.762c-1.446,0.157-2.701,2.46-2.963,3.732
			c-0.02,0.096-0.141,1.44-0.155,1.783c-0.455-0.877-0.901-1.755-1.305-2.638c-0.559-1.218-1.041-2.444-1.42-3.666
			c0.09-0.02,2.494-0.567,3.381-1.247c0.77-0.59,1.586-1.557,1.578-2.583c-0.007-1.005-0.817-1.875-1.859-1.762
			c-1.446,0.157-2.701,2.46-2.963,3.732c-0.021,0.1-0.151,1.546-0.155,1.81c-0.022-0.073-0.054-0.146-0.075-0.218
			c-0.388-1.31-0.599-2.628-0.736-3.871c-0.081-0.722-0.118-1.417-0.139-2.094c0.458-0.056,2.549-0.334,3.415-0.858
			c0.83-0.503,1.747-1.373,1.853-2.394c0.103-1-0.607-1.954-1.654-1.956c-1.454-0.003-2.955,2.149-3.355,3.384
			c-0.022,0.067-0.168,0.775-0.267,1.291c-0.005-0.306-0.015-0.621-0.014-0.914c0.002-1.1,0.071-2.107,0.14-2.998
			c0.043-0.507,0.092-0.964,0.143-1.391c0.421-0.29,2.103-1.477,2.621-2.326c0.505-0.828,0.918-2.024,0.541-2.979
			c-0.369-0.935-1.439-1.455-2.369-0.973c-1.292,0.668-1.632,3.269-1.418,4.55c0.019,0.111,0.507,1.809,0.529,1.794
			c0,0,0.021-0.014,0.025-0.018c-0.057,0.41-0.113,0.851-0.165,1.333c-0.089,0.892-0.18,1.9-0.206,3.004
			c-0.029,1.103-0.029,2.303,0.085,3.566c0.113,1.267,0.295,2.593,0.661,3.936c0.004,0.015,0.01,0.031,0.015,0.046
			c-0.229-0.359-0.902-1.343-0.962-1.413c-0.85-0.982-3.069-2.38-4.408-1.812c-0.964,0.41-1.247,1.564-0.763,2.445
			c0.495,0.9,1.679,1.345,2.638,1.485c1.083,0.158,3.361-0.503,3.542-0.556c0.36,1.275,0.832,2.555,1.382,3.823
			c0.313,0.726,0.651,1.447,1,2.165c-0.208-0.304-0.396-0.575-0.426-0.61c-0.85-0.982-3.069-2.38-4.408-1.812
			c-0.965,0.41-1.247,1.564-0.763,2.445c0.494,0.9,1.678,1.345,2.638,1.485c0.974,0.142,2.928-0.382,3.443-0.528
			c0.137,0.274,0.27,0.55,0.407,0.823c0.66,1.314,1.324,2.622,1.936,3.925c0.216,0.459,0.412,0.919,0.609,1.379
			c-0.185-0.27-0.343-0.496-0.371-0.528c-0.85-0.982-3.069-2.38-4.408-1.812c-0.964,0.41-1.247,1.564-0.763,2.445
			c0.495,0.9,1.678,1.345,2.638,1.484c0.93,0.135,2.737-0.332,3.35-0.502c0.188,0.477,0.377,0.954,0.538,1.424
			c0.103,0.324,0.224,0.628,0.309,0.959c0.091,0.326,0.181,0.648,0.27,0.968c0.149,0.622,0.307,1.262,0.437,1.872
			c0.094,0.423,0.175,0.829,0.259,1.237c-0.21-0.459-0.639-1.35-0.683-1.421c-0.691-1.1-2.673-2.818-4.082-2.459
			c-1.015,0.259-1.47,1.357-1.124,2.301c0.353,0.964,1.455,1.583,2.383,1.867c1.021,0.312,3.283,0.027,3.565-0.011
			c0.136,0.676,0.261,1.334,0.369,1.957c0.381,2.16,0.616,3.973,0.762,5.242c0.026,0.225,0.048,0.427,0.068,0.617h-4.377
			l1.598,31.186h7.459l1.598-31.186h-4.078c0.03-0.063,0.059-0.121,0.09-0.187c0.56-1.166,1.336-2.841,2.174-4.891
			c0.266-0.647,0.538-1.344,0.81-2.062c0.274,0.057,2.512,0.512,3.556,0.276c0.946-0.214,2.092-0.749,2.516-1.684
			c0.415-0.916,0.044-2.045-0.95-2.379c-1.379-0.463-3.483,1.103-4.254,2.148c-0.046,0.062-0.464,0.786-0.721,1.247
			c0.11-0.294,0.22-0.578,0.329-0.882c0.22-0.6,0.422-1.205,0.642-1.855c0.095-0.318,0.191-0.639,0.288-0.963
			c0.103-0.319,0.171-0.67,0.259-1.007c0.187-0.787,0.339-1.594,0.474-2.411c0.526,0.191,2.402,0.844,3.374,0.776
			c0.967-0.068,2.181-0.423,2.742-1.284c0.549-0.842,0.353-2.015-0.578-2.495c-1.293-0.667-3.61,0.562-4.531,1.479
			c-0.057,0.057-0.644,0.789-0.959,1.197c0.077-0.491,0.157-0.981,0.219-1.481c0.179-1.442,0.315-2.907,0.458-4.368
			c0.043-0.448,0.092-0.893,0.139-1.339c0.186,0.07,2.4,0.894,3.489,0.818c0.968-0.068,2.181-0.423,2.742-1.284
			c0.548-0.842,0.353-2.015-0.578-2.495c-1.293-0.667-3.61,0.562-4.531,1.478c-0.069,0.069-0.912,1.123-1.113,1.402
			c0.104-0.982,0.216-1.96,0.366-2.92c0.205-1.325,0.48-2.613,0.838-3.841c0.087,0.033,2.393,0.903,3.508,0.825
			c0.968-0.068,2.181-0.423,2.742-1.284c0.548-0.842,0.353-2.015-0.578-2.495c-1.293-0.667-3.61,0.562-4.531,1.478
			c-0.072,0.072-0.978,1.206-1.128,1.424c0.022-0.073,0.036-0.151,0.058-0.224c0.399-1.306,0.95-2.522,1.522-3.634
			c0.331-0.647,0.683-1.247,1.039-1.824c0.413,0.206,2.311,1.128,3.322,1.168c0.969,0.039,2.215-0.181,2.866-0.975
			c0.638-0.777,0.572-1.964-0.301-2.544c-1.212-0.805-3.65,0.163-4.665,0.972c-0.055,0.044-0.567,0.554-0.935,0.93
			c0.165-0.258,0.33-0.526,0.492-0.77c0.608-0.916,1.222-1.718,1.771-2.423c0.316-0.399,0.609-0.753,0.887-1.081
			c0.511-0.009,2.569-0.072,3.469-0.494c0.878-0.412,1.882-1.181,2.094-2.186C402.501,210.846,401.896,209.823,400.854,209.711z
			 M384.842,248.563c-0.874,2.011-1.678,3.654-2.256,4.793c-0.117,0.23-0.221,0.433-0.318,0.62h-0.097
			c-0.028-0.223-0.06-0.466-0.098-0.739c-0.176-1.281-0.453-3.106-0.885-5.279c-0.135-0.687-0.293-1.418-0.462-2.167
			c0.17-0.068,1.134-0.458,1.989-0.935c0.744,0.806,2.652,1.75,2.899,1.87C385.355,247.365,385.096,247.983,384.842,248.563z"/>
		<path style="fill:#263238;" d="M393.234,218.962c0.022,0.014,0.464-1.697,0.48-1.808c0.179-1.286-0.231-3.877-1.541-4.51
			c-0.943-0.456-1.998,0.092-2.342,1.037c-0.351,0.965,0.094,2.149,0.621,2.963C391.071,217.6,393.232,218.961,393.234,218.962z"/>
	</g>
</g>
<g id="Characters">
	<g>
		<g>
			<g>
				<g>
					<polygon style="fill:#263238;stroke:#263238;stroke-linecap:round;stroke-linejoin:round;stroke-miterlimit:10;" points="
						179.965,246.423 171.901,270.209 164.042,323.951 134.904,396.45 144.055,396.45 186.443,327.229 199.5,284.483 
						217.802,329.162 221.032,396.988 230.698,396.988 236.643,324.855 224.796,269.049 222.27,257.199 					"/>
					<path style="fill:#0F4C81;stroke:#263238;stroke-linecap:round;stroke-linejoin:round;stroke-miterlimit:10;" d="
						M232.831,183.167c0,0-14.742-2.457-28.144,0.447s-31.225,8.595-44.299,17.856c-3.618,2.563-7.354,6.537-7.354,6.537l9.771,7.33
						c0,0,15.803-4.298,21.009-4.334c3.907-0.027,9.036-0.81,9.036-0.81l-12.885,36.23c0,0-0.67,8.711,8.711,12.508
						c9.381,3.797,26.828,5.894,33.825,0.511c3.684-2.834,21.274-48.356,21.274-48.356s5.156,26.761,6.719,30.782
						c1.564,4.021,4.691,7.371,4.691,7.371l9.828-7.371c0,0-5.379-26.314-7.389-35.025
						C255.614,198.132,248.02,184.507,232.831,183.167z"/>
					<polyline style="fill:none;stroke:#263238;stroke-linecap:round;stroke-linejoin:round;stroke-miterlimit:10;" points="
						208.261,208.184 192.85,210.194 204.911,213.321 					"/>
					<path style="fill:none;stroke:#263238;stroke-linecap:round;stroke-linejoin:round;stroke-miterlimit:10;" d="M207.815,186.071
						c0,0,5.361,8.934,0.447,18.092"/>
					
						<line style="fill:#FFFFFF;stroke:#263238;stroke-linecap:round;stroke-linejoin:round;stroke-miterlimit:10;" x1="243.776" y1="211.087" x2="254.051" y2="209.524"/>
					
						<line style="fill:#FFFFFF;stroke:#263238;stroke-linecap:round;stroke-linejoin:round;stroke-miterlimit:10;" x1="244.223" y1="211.981" x2="257.848" y2="213.991"/>
				</g>
				<path style="fill:#0F4C81;stroke:#263238;stroke-linecap:round;stroke-linejoin:round;stroke-miterlimit:10;" d="
					M231.714,180.487c0,0-7.148,2.234-8.935,4.467c-1.787,2.234-1.787,23.453-1.787,23.453l9.158-2.01l7.818,6.031
					c0,0-0.447-12.732-1.787-21.443C234.841,182.274,231.714,180.487,231.714,180.487z"/>
				<path style="fill:#FFFFFF;stroke:#263238;stroke-linecap:round;stroke-linejoin:round;stroke-miterlimit:10;" d="
					M235.065,174.903c0,0-5.807,8.264-7.147,10.051c-1.34,1.787-0.447,11.391,0.223,14.742c0.67,3.35,2.01,6.701,2.01,6.701
					l9.158-9.605c0,0-3.574-4.244-2.904-9.604c0.67-5.361,3.574-11.168,3.35-12.732
					C239.532,172.892,235.065,174.903,235.065,174.903z"/>
				<g>
					<g>
						<g>
							<path style="fill:#FFFFFF;stroke:#263238;stroke-linecap:round;stroke-linejoin:round;stroke-miterlimit:10;" d="
								M234.841,178.7c0,0-4.02,9.828-3.127,13.402c0.893,3.574,10.275,11.838,14.742,10.498c4.467-1.34,5.137-9.605,5.137-9.605
								s2.01,0.893,2.68,0.447c0.67-0.447,0.893-6.031,0.893-6.031s2.01-2.234,2.904-3.574c0.893-1.34,1.563-2.904,1.563-2.904
								s7.371-0.223,6.701-6.924c-0.67-6.701-13.178-16.305-22.113-16.305c-8.934,0-12.285,10.275-12.285,13.402
								C231.938,174.233,234.841,178.7,234.841,178.7z"/>
							<path style="fill:#FFFFFF;stroke:#263238;stroke-linecap:round;stroke-linejoin:round;stroke-miterlimit:10;" d="
								M251.463,185.832c0,0-2.194-2.508-5.329-2.508"/>
							<path style="fill:#FFFFFF;stroke:#263238;stroke-linecap:round;stroke-linejoin:round;stroke-miterlimit:10;" d="
								M249.528,186.997l-0.794,1.351c0,0-1.881,0.49-2.597-0.654"/>
						</g>
						<path style="fill:#263238;stroke:#263238;stroke-linecap:round;stroke-linejoin:round;stroke-miterlimit:10;" d="
							M266.335,174.009c-0.67-6.701-13.178-16.305-22.113-16.305c-8.934,0-12.285,10.275-12.285,13.402
							c0,3.127,2.904,7.594,2.904,7.594s-4.021,9.828-3.127,13.402c0.893,3.574,10.275,11.838,14.742,10.498
							c3.525-1.058,4.682-6.414,5.015-8.631c-3.178-3.426-7.927,0.215-10.599,1.037c-2.904,0.893-5.807-3.127-5.807-5.361
							s2.904-8.264,3.574-9.381c0.67-1.117,4.244-0.223,6.254-0.447c2.01-0.223-0.893-3.574-0.447-5.584
							c0.447-2.01,7.148,4.914,9.828,6.477c2.68,1.564,5.361,0.223,5.361,0.223S267.006,180.71,266.335,174.009z M246.903,195.899
							c3.35-0.447,3.35,0.893,3.35,0.893c-1.218,2.824-1.787,2.234-2.904,1.787C246.233,198.132,243.553,196.345,246.903,195.899z"
							/>
						<path style="fill:#FFFFFF;stroke:#263238;stroke-linecap:round;stroke-linejoin:round;stroke-miterlimit:10;" d="
							M235.735,180.71c0,0,0.67-4.467-2.01-4.914c-2.68-0.447-2.904,3.351-2.904,5.807c0,2.457,2.904,2.457,4.244,2.01"/>
					</g>
					
						<path style="fill:none;stroke:#FFFFFF;stroke-width:0.5;stroke-linecap:round;stroke-linejoin:round;stroke-miterlimit:10;" d="
						M234.051,168.21c-0.572,0.368-1.04,0.818-1.368,1.31"/>
					
						<path style="fill:none;stroke:#FFFFFF;stroke-width:0.5;stroke-linecap:round;stroke-linejoin:round;stroke-miterlimit:10;" d="
						M252.026,176.647c0,0-4.48-1.629-8.552-6.312c-2.389-2.747-5.127-3.392-7.312-2.963"/>
					
						<path style="fill:none;stroke:#FFFFFF;stroke-width:0.5;stroke-linecap:round;stroke-linejoin:round;stroke-miterlimit:10;" d="
						M242.863,177.869c0,0-2.036-6.923-10.384-4.683"/>
				</g>
				<path style="fill:#0F4C81;stroke:#263238;stroke-linecap:round;stroke-linejoin:round;stroke-miterlimit:10;" d="
					M151.127,219.175c0,0,2.966-4.731,6.764-3.391c3.797,1.34,7.371,4.691,7.371,4.691l3.351-5.361c0,0,0.67-5.584-5.361-8.488
					c-6.031-2.904-9.381-0.447-9.381-0.447C151.573,206.607,148.68,217.885,151.127,219.175z"/>
				<path style="fill:#0F4C81;stroke:#263238;stroke-linecap:round;stroke-linejoin:round;stroke-miterlimit:10;" d="
					M265.907,237.402c0,0-5.807,1.564-9.828,4.467c-4.021,2.904-4.691,6.701-4.691,6.701s5.137,5.584,6.254,5.584
					c1.117,0,9.605-9.381,10.498-10.275C269.034,242.986,265.907,237.402,265.907,237.402z"/>
				<path style="fill:#FFFFFF;stroke:#263238;stroke-linecap:round;stroke-linejoin:round;stroke-miterlimit:10;" d="
					M305.219,262.642c0,0-0.223,3.127-1.117,3.797c-0.893,0.67-4.914,0-4.914,0s-2.68-3.797-1.564-5.361
					c1.117-1.564,3.127-1.117,4.467-0.67C303.432,260.855,305.219,262.642,305.219,262.642z"/>
				<path style="fill:#FFFFFF;stroke:#263238;stroke-linecap:round;stroke-linejoin:round;stroke-miterlimit:10;" d="
					M268.141,243.879l23.9,12.285l8.711,1.117c0,0,10.721,5.361,10.721,6.254c0,0.893-1.117,1.34-2.01,1.117
					c-0.893-0.223-7.371-2.904-8.711-2.904c-1.34,0-2.457,0.447-2.234,1.564c0.223,1.117,3.35,5.807,1.564,5.807
					c-1.787,0-3.574-4.467-4.467-4.914c-0.894-0.447-4.021-3.797-4.021-3.797s-20.549-4.244-25.24-4.914
					c-4.691-0.67-7.371-2.68-7.371-2.68L268.141,243.879z"/>
				<path style="fill:#FFFFFF;stroke:#263238;stroke-linecap:round;stroke-linejoin:round;stroke-miterlimit:10;" d="
					M144.055,396.45l2.864,4.106c1.199,1.719,2.799,3.119,4.662,4.079l5.554,2.861c0.383,0.197,0.624,0.592,0.624,1.023l0,0
					c0,0.658-0.548,1.183-1.205,1.149c-5.223-0.266-25.671-1.305-26.386-1.305c-0.82,0-1.093-1.093-0.82-4.371
					c0.273-3.278,5.555-7.543,5.555-7.543H144.055z"/>
				<path style="fill:#FFFFFF;stroke:#263238;stroke-linecap:round;stroke-linejoin:round;stroke-miterlimit:10;" d="
					M230.653,396.45l2.864,4.106c1.199,1.719,2.799,3.119,4.662,4.079l5.555,2.861c0.383,0.197,0.624,0.592,0.624,1.023l0,0
					c0,0.658-0.548,1.183-1.205,1.149c-5.223-0.266-25.671-1.305-26.386-1.305c-0.82,0-1.093-1.093-0.82-4.371
					c0.273-3.278,5.555-7.543,5.555-7.543H230.653z"/>
			</g>
			<g>
				<defs>
					<path id="XMLID_1_" d="M155.845,255.602c0,0-2.992,4.784-2.176,8.723c0.816,3.94,8.161,21.105,13.602,36.864
						c5.441,15.759,4.352,32.924,4.352,37.99c0,5.065-0.272,8.723,3.536,10.693c3.808,1.97,9.793,0.844,11.425-2.814
						c1.632-3.658,2.72-27.015-0.272-41.085c-2.992-14.07-13.602-38.834-16.322-44.462
						C167.27,255.884,165.91,248.005,155.845,255.602z"/>
				</defs>
				<use xlink:href="#XMLID_1_"  style="overflow:visible;fill:#FFFFFF;"/>
				<clipPath id="XMLID_00000168090338287835833730000002523706913220771484_">
					<use xlink:href="#XMLID_1_"  style="overflow:visible;"/>
				</clipPath>
				<path style="opacity:0.25;clip-path:url(#XMLID_00000168090338287835833730000002523706913220771484_);" d="M155.845,255.602
					c0,0-2.992,4.784-2.176,8.723c0.816,3.94,8.161,21.105,13.602,36.864c5.441,15.759,4.352,32.924,4.352,37.99
					c0,5.065-0.272,8.723,3.536,10.693c3.808,1.97,9.793,0.844,11.425-2.814c1.632-3.658,2.72-27.015-0.272-41.085
					c-2.992-14.07-13.602-38.834-16.322-44.462C167.27,255.884,165.91,248.005,155.845,255.602z"/>
				<path style="opacity:0.25;clip-path:url(#XMLID_00000168090338287835833730000002523706913220771484_);" d="M151.845,258.603
					c0,0-2.992,4.784-2.176,8.723c0.816,3.94,8.161,21.105,13.602,36.864c5.441,15.759,4.352,32.924,4.352,37.99
					c0,5.065-0.272,8.723,3.536,10.693c3.808,1.97,9.793,0.844,11.425-2.814c1.632-3.658,2.72-27.015-0.272-41.085
					c-2.992-14.07-13.602-38.834-16.322-44.462C163.27,258.884,161.91,251.005,151.845,258.603z"/>
				
					<use xlink:href="#XMLID_1_"  style="overflow:visible;fill:none;stroke:#263238;stroke-linecap:round;stroke-linejoin:round;stroke-miterlimit:10;"/>
			</g>
			<g>
				<path style="fill:#FFFFFF;stroke:#263238;stroke-linecap:round;stroke-linejoin:round;stroke-miterlimit:10;" d="
					M151.636,216.007c0,0-0.782,7.254,2.215,15.425c1.753,4.782,11.078,19.86,11.078,19.86s-7.818,2.904-10.051,4.914
					c-2.234,2.01-4.914,8.488-3.574,8.711c1.34,0.223,6.254-5.361,7.371-5.807c1.117-0.447,7.594-0.893,7.594-0.893
					s-1.336,1.837-2.374,3.52c-0.66,1.07-1.199,2.077-1.199,2.511c0,1.117,1.564,0.893,2.457-0.893
					c0.893-1.787,3.574-1.564,4.467-5.584c0.893-4.02-0.447-8.488-0.447-8.488l-3.912-28.808
					C165.261,220.475,161.205,212.365,151.636,216.007z"/>
				<path style="fill:none;stroke:#263238;stroke-linecap:round;stroke-linejoin:round;stroke-miterlimit:10;" d="M151.304,264.918
					c0,0,3.097-6.668,6.505-7.804"/>
				<path style="fill:none;stroke:#263238;stroke-linecap:round;stroke-linejoin:round;stroke-miterlimit:10;" d="M152.13,261.09
					c0,0,2.556-3.692,5.112-5.396"/>
			</g>
		</g>
		<g>
			<g>
				
					<rect x="209.841" y="346.587" style="fill:#FFFFFF;stroke:#263238;stroke-linecap:round;stroke-linejoin:round;stroke-miterlimit:10;" width="3.651" height="35.175"/>
				<polygon style="fill:#FFFFFF;stroke:#263238;stroke-linecap:round;stroke-linejoin:round;stroke-miterlimit:10;" points="
					216.301,383.196 216.301,377.268 207.033,377.268 207.033,383.251 169.963,397.488 169.963,404.509 172.49,404.509 
					172.49,399.173 211.8,390.868 250.068,399.173 250.068,404.509 252.528,404.509 252.528,397.488 				"/>
				
					<rect x="202.54" y="346.587" style="fill:#FFFFFF;stroke:#263238;stroke-linecap:round;stroke-linejoin:round;stroke-miterlimit:10;" width="18.254" height="11.232"/>
				<g>
					
						<circle style="fill:#263238;stroke:#263238;stroke-linecap:round;stroke-linejoin:round;stroke-miterlimit:10;" cx="166.031" cy="404.79" r="3.932"/>
					<path style="fill:#FFFFFF;stroke:#263238;stroke-linecap:round;stroke-linejoin:round;stroke-miterlimit:10;" d="
						M167.716,404.79c0-0.931-0.754-1.685-1.685-1.685s-1.685,0.754-1.685,1.685s0.755,1.685,1.685,1.685
						S167.716,405.721,167.716,404.79z"/>
				</g>
				<g>
					
						<circle style="fill:#263238;stroke:#263238;stroke-linecap:round;stroke-linejoin:round;stroke-miterlimit:10;" cx="256.741" cy="404.79" r="3.932"/>
					
						<circle style="fill:#FFFFFF;stroke:#263238;stroke-linecap:round;stroke-linejoin:round;stroke-miterlimit:10;" cx="256.741" cy="404.79" r="1.685"/>
				</g>
				<polygon style="fill:#FFFFFF;stroke:#263238;stroke-linecap:round;stroke-linejoin:round;stroke-miterlimit:10;" points="
					213.352,405.352 210.263,405.352 208.718,384.289 214.896,384.289 				"/>
				
					<rect x="210.122" y="400.858" style="fill:#263238;stroke:#263238;stroke-linecap:round;stroke-linejoin:round;stroke-miterlimit:10;" width="3.089" height="8.706"/>
			</g>
			<g>
				<g>
					<path style="fill:#FFFFFF;stroke:#263238;stroke-linecap:round;stroke-linejoin:round;stroke-miterlimit:10;" d="
						M223.298,286.493c0,0,24.67-3.885,27.001-4.273c2.331-0.388,6.799,2.72,8.935,4.273c2.137,1.554,11.849,7.382,10.684,7.77
						s-5.051-1.165-7.576-2.137c-2.525-0.971-4.468-1.748-4.468-1.748s2.137,2.914,3.108,3.691c0.971,0.777,0.583,1.36-2.137,0.194
						s-4.856-3.108-5.827-4.662c-0.971-1.554-2.525-4.274-2.525-4.274s-21.368,7.964-24.864,9.13
						c-3.496,1.165-8.936,1.165-8.741-2.525C217.082,288.241,223.298,286.493,223.298,286.493z"/>
					<path style="fill:#FFFFFF;stroke:#263238;stroke-linecap:round;stroke-linejoin:round;stroke-miterlimit:10;" d="
						M259.234,286.493c-2.137-1.554-6.604-4.662-8.935-4.273c-1.235,0.206-8.742,1.393-15.527,2.465l0.865,6.15
						c6.974-2.569,14.857-5.507,14.857-5.507s1.554,2.72,2.525,4.273c0.971,1.554,3.108,3.497,5.827,4.662
						c2.72,1.165,3.108,0.583,2.137-0.194c-0.971-0.777-3.108-3.691-3.108-3.691s1.943,0.777,4.468,1.748
						c2.525,0.971,6.41,2.525,7.576,2.137C271.084,293.875,261.371,288.047,259.234,286.493z"/>
					
						<line style="fill:none;stroke:#263238;stroke-linecap:round;stroke-linejoin:round;stroke-miterlimit:10;" x1="260.594" y1="288.63" x2="269.918" y2="294.263"/>
				</g>
				<g>
					<path style="fill:#263238;stroke:#263238;stroke-linecap:round;stroke-linejoin:round;stroke-miterlimit:10;" d="
						M242.573,225.287c0,0,5.439-3.497,4.468-7.382c-0.971-3.885-17.094-9.712-24.864-7.964c-7.77,1.748-10.295,9.713-12.432,15.54
						c-2.137,5.827-10.878,30.886-10.878,30.886s6.41,7.187,14.569,3.496c8.159-3.691,15.54-23.699,19.231-27.778
						S242.573,225.287,242.573,225.287z"/>
					<g>
						
							<path style="fill:none;stroke:#FFFFFF;stroke-width:0.5;stroke-linecap:round;stroke-linejoin:round;stroke-miterlimit:10;" d="
							M236.958,212.688c0,0,3.461,2.443,4.48,4.683c1.018,2.24-0.204,3.462-0.204,3.462"/>
						
							<path style="fill:none;stroke:#FFFFFF;stroke-width:0.5;stroke-linecap:round;stroke-linejoin:round;stroke-miterlimit:10;" d="
							M239.605,214.927c0,0-6.109,6.719-14.457,10.385s-14.05,6.719-16.697,9.774"/>
						
							<path style="fill:none;stroke:#FFFFFF;stroke-width:0.5;stroke-linecap:round;stroke-linejoin:round;stroke-miterlimit:10;" d="
							M205.717,240.227c-0.429,0.97-0.81,1.97-1.134,3.003"/>
						
							<path style="fill:none;stroke:#FFFFFF;stroke-width:0.5;stroke-linecap:round;stroke-linejoin:round;stroke-miterlimit:10;" d="
							M229.485,215.799c-1.363,1.334-3.238,2.974-5.762,4.829c-5.659,4.161-12.679,9.683-16.833,17.232"/>
						
							<path style="fill:none;stroke:#FFFFFF;stroke-width:0.5;stroke-linecap:round;stroke-linejoin:round;stroke-miterlimit:10;" d="
							M232.682,212.077c0,0-0.321,0.546-1.143,1.524"/>
					</g>
				</g>
				<path style="fill:#FFFFFF;stroke:#263238;stroke-linecap:round;stroke-linejoin:round;stroke-miterlimit:10;" d="
					M212.658,245.684c0,0-13.986,6.022-18.065,8.158c-4.079,2.137-4.856,6.41-4.856,10.101c0,3.691,5.245,31.469,5.245,31.469
					h22.922c0,0,4.079-8.158,6.993-10.878c2.914-2.719,5.245-8.159,4.079-11.849c-1.166-3.691-2.331-5.633-2.331-9.324
					c0-3.691-0.777-8.353-3.691-11.266C220.04,249.18,218.486,244.518,212.658,245.684z"/>
				<g>
					<path style="fill:#FFFFFF;stroke:#263238;stroke-linecap:round;stroke-linejoin:round;stroke-miterlimit:10;" d="
						M260.923,351.394c0.493,2.535,2.527,5.689,3.531,8.1c2.035,4.886,5.68,12.631,7.892,17.446
						c3.151,6.86,5.509,15.739,5.089,16.344c-0.42,0.605-1.47,3.632-1.47,4.842c0,1.211,0.84,11.5,0.84,11.5h1.471l1.05-6.053
						c0,0,3.361,0.202,4.411,1.211c1.05,1.009,2.311,3.228,4.201,4.237c1.891,1.009,10.503,1.412,10.503,1.412
						s1.47-0.807-0.42-2.421c-1.891-1.614-4.832-3.833-6.512-6.255c-1.681-2.421-6.512-8.272-6.512-8.272
						s-10.923-59.909-11.764-62.532s-3.571-8.272-6.092-8.878c-2.521-0.605-11.134-1.412-11.134-1.412l-0.42,10.29
						c0,0,1.985-0.401,4.296,4.24C261.3,338.037,259.469,343.918,260.923,351.394z"/>
					<path style="fill:#263238;stroke:#263238;stroke-linecap:round;stroke-linejoin:round;stroke-miterlimit:10;" d="
						M294.297,404.827c-4.995,1.661-10.163-3.297-12.451-5.893c-1.982-2.249-4.568-3.306-5.268-3.562
						c-0.331,1.014-0.614,2.127-0.614,2.755c0,1.211,0.84,11.5,0.84,11.5h1.47l1.05-6.053c0,0,3.361,0.202,4.411,1.21
						c1.05,1.009,2.311,3.228,4.201,4.237c1.891,1.009,10.503,1.412,10.503,1.412s1.47-0.807-0.42-2.421
						C296.971,407.116,295.599,406.029,294.297,404.827z"/>
				</g>
				<g>
					<path style="fill:#FFFFFF;stroke:#263238;stroke-linecap:round;stroke-linejoin:round;stroke-miterlimit:10;" d="
						M267.205,318.139c0,0,9.158,2.56,8.586,4.53c-0.572,1.969-14.309,43.101-19.46,52.751c-5.151,9.65-7.059,17.331-6.487,19.694
						c0.572,2.363,5.342,10.044,6.868,11.225c1.526,1.182,5.342,3.151,4.77,3.348c-0.572,0.197-8.776,0.394-12.211,0
						c-0.939-0.108-6.296-6.499-7.25-6.893c-0.954-0.394-0.954-0.394-0.954-0.394v7.09h-2.099l-0.763-10.832
						c0,0,0.954-3.348,2.862-5.514c1.908-2.166,3.816-4.53,5.533-10.438c1.717-5.908,8.013-36.209,8.967-42.314
						c0.954-6.105,3.434-11.422,3.434-11.422L267.205,318.139z"/>
					<path style="fill:#263238;stroke:#263238;stroke-linecap:round;stroke-linejoin:round;stroke-miterlimit:10;" d="
						M256.712,406.339c-0.327-0.253-0.808-0.817-1.36-1.551c-1.463,0.009-3.175-0.152-4.364-0.813
						c-2.48-1.379-4.77-4.53-6.868-6.893c-1.05-1.182-2.625-2.118-3.937-2.758c-1.317,2.024-1.977,4.334-1.977,4.334l0.763,10.831
						h2.099v-7.09c0,0,0,0,0.954,0.394c0.954,0.394,6.311,6.785,7.25,6.893c3.434,0.394,11.638,0.197,12.211,0
						C262.054,409.49,258.238,407.521,256.712,406.339z"/>
				</g>
				<path style="fill:#263238;stroke:#263238;stroke-linecap:round;stroke-linejoin:round;stroke-miterlimit:10;" d="
					M194.982,295.412c0,0-1.748,21.562-1.942,28.555c-0.194,6.993,5.633,13.792,13.598,14.569
					c7.964,0.777,55.361-5.633,55.361-5.633l7.77-14.18c0,0-22.922-5.828-30.692-7.964c-7.77-2.137-15.152-3.497-15.152-3.497
					l-6.022-11.849H194.982z"/>
				<path style="fill:#0F4C81;stroke:#263238;stroke-linecap:round;stroke-linejoin:round;stroke-miterlimit:10;" d="
					M221.594,257.145l3.885,6.799c0,0-1.36-7.187-2.137-9.713c-0.777-2.525-2.914-1.748-2.914-0.389c0,1.36,0.801,3.96,0.801,3.96"
					/>
				<path style="fill:#FFFFFF;stroke:#263238;stroke-linecap:round;stroke-linejoin:round;stroke-miterlimit:10;" d="
					M222.123,233.456l-6.701,10.721l5.807,13.625c0,0,3.574-8.264,5.361-10.275c1.787-2.01,4.914-4.914,4.914-4.914
					s-5.584-6.701-6.031-8.488C225.027,232.339,222.57,231.669,222.123,233.456z"/>
				<polygon style="fill:#0F4C81;stroke:#263238;stroke-linecap:round;stroke-linejoin:round;stroke-miterlimit:10;" points="
					214.212,242.187 210.716,245.684 216.932,263.555 221.594,257.145 				"/>
				<g>
					<path style="fill:#FFFFFF;stroke:#263238;stroke-linecap:round;stroke-linejoin:round;stroke-miterlimit:10;" d="
						M192.651,270.742c0,0,10.101,22.727,12.238,27.389c2.137,4.662,6.799,5.633,11.072,5.633s31.08-0.777,31.08-0.777
						s14.763,0.583,17.288,0c2.525-0.583,6.605-4.079,7.382-4.079c0.777,0,5.051,3.885,6.022,3.885c0.971,0,1.554-0.583,0.777-1.943
						c-0.777-1.36-3.885-7.382-6.022-7.576c-2.137-0.194-11.267,5.828-11.267,5.828s-15.152-2.137-23.116-4.273
						c-7.964-2.137-20.396-6.993-20.396-6.993s-5.051-9.324-7.187-14.957c-2.137-5.633-2.525-13.209-6.41-16.317
						c-3.885-3.108-8.741,0.388-8.741,0.388"/>
					<path style="fill:#FFFFFF;stroke:#263238;stroke-linecap:round;stroke-linejoin:round;stroke-miterlimit:10;" d="
						M272.488,293.275c-2.137-0.194-11.267,5.828-11.267,5.828s-7.594-1.072-14.855-2.455l0.193,6.354
						c0.302-0.009,0.482-0.014,0.482-0.014s14.763,0.583,17.288,0s6.605-4.079,7.382-4.079c0.777,0,5.051,3.885,6.022,3.885
						c0.971,0,1.554-0.583,0.777-1.942C277.733,299.491,274.625,293.47,272.488,293.275z"/>
					<path style="fill:none;stroke:#263238;stroke-linecap:round;stroke-linejoin:round;stroke-miterlimit:10;" d="M272.099,296.772
						c0,0,5.245,3.691,6.41,5.439"/>
					
						<line style="fill:none;stroke:#263238;stroke-linecap:round;stroke-linejoin:round;stroke-miterlimit:10;" x1="272.682" y1="295.023" x2="277.344" y2="298.909"/>
				</g>
				<g>
					<path style="fill:#FFFFFF;stroke:#263238;stroke-linecap:round;stroke-linejoin:round;stroke-miterlimit:10;" d="
						M242.003,220.724c0,0,1.254,4.525,1.477,6.535c0.223,2.01-1.34,3.127-0.67,4.244c0.67,1.117,2.39,4.614,1.497,5.06
						c-0.893,0.447-2.457,0.447-2.457,0.447s-4.091,7.614-4.985,8.954c-0.893,1.34-7.147-1.787-10.051-3.127
						c-2.904-1.34-3.127-7.818-3.127-7.818l-0.223-4.467C223.464,230.552,237.535,225.415,242.003,220.724z"/>
					<path style="fill:#FFFFFF;stroke:#263238;stroke-linecap:round;stroke-linejoin:round;stroke-miterlimit:10;" d="
						M238.724,228.086c2.895-3.515,2.858,0.372,2.858,0.372"/>
					<path style="fill:#263238;" d="M240.106,232.263c-0.257,0.817-0.731,1.396-1.058,1.293c-0.327-0.103-0.383-0.849-0.126-1.665
						c0.257-0.817,0.731-1.396,1.058-1.293C240.307,230.7,240.363,231.446,240.106,232.263z"/>
					<path style="fill:#FFFFFF;stroke:#263238;stroke-linecap:round;stroke-linejoin:round;stroke-miterlimit:10;" d="
						M225.027,232.339c0,0-1.564-5.584-3.351-4.467c-1.787,1.117-2.68,5.361-0.893,7.594c1.787,2.234,4.691,0.893,4.691,0.893"/>
				</g>
			</g>
			<g>
				<defs>
					<path id="XMLID_2_" d="M238.286,350.153l-50.468,1.593c-2.341,0.074-4.299-1.764-4.373-4.105l-0.229-7.241
						c-0.074-2.341,1.764-4.299,4.105-4.373l50.468-1.593c2.341-0.074,4.299,1.764,4.373,4.105l0.229,7.241
						C242.465,348.121,240.627,350.079,238.286,350.153z"/>
				</defs>
				<use xlink:href="#XMLID_2_"  style="overflow:visible;fill:#FFFFFF;"/>
				<clipPath id="XMLID_00000062899312898231300840000010149269382491897248_">
					<use xlink:href="#XMLID_2_"  style="overflow:visible;"/>
				</clipPath>
				<path style="opacity:0.25;clip-path:url(#XMLID_00000062899312898231300840000010149269382491897248_);" d="M238.286,350.153
					l-50.468,1.593c-2.341,0.074-4.299-1.764-4.373-4.105l-0.229-7.241c-0.074-2.341,1.764-4.299,4.105-4.373l50.468-1.593
					c2.341-0.074,4.299,1.764,4.373,4.105l0.229,7.241C242.465,348.121,240.627,350.079,238.286,350.153z"/>
				<path style="opacity:0.25;clip-path:url(#XMLID_00000062899312898231300840000010149269382491897248_);" d="M238.286,354.336
					l-50.468,1.593c-2.341,0.074-4.299-1.764-4.373-4.105l-0.229-7.241c-0.074-2.341,1.764-4.299,4.105-4.373l50.468-1.593
					c2.341-0.074,4.299,1.764,4.373,4.105l0.229,7.241C242.465,352.304,240.627,354.262,238.286,354.336z"/>
				
					<use xlink:href="#XMLID_2_"  style="overflow:visible;fill:none;stroke:#263238;stroke-linecap:round;stroke-linejoin:round;stroke-miterlimit:10;"/>
			</g>
			<g>
				<path style="fill:#FFFFFF;stroke:#263238;stroke-linecap:round;stroke-linejoin:round;stroke-miterlimit:10;" d="
					M222.478,344.411c-0.26,0-0.525-0.05-0.78-0.156c-1.039-0.431-1.531-1.623-1.1-2.661c3.279-7.9,7.044-22.001,3.188-26.207
					c-0.901-0.62-6.32-1.932-35.533,0.746c-0.997,0.091-1.73,0.158-2.127,0.188c-2.042,0.156-3.783,2.756-4.232,3.655
					c-0.503,1.005-1.728,1.412-2.732,0.911c-1.006-0.502-1.413-1.726-0.911-2.732c0.283-0.565,2.897-5.536,7.563-5.894
					c0.385-0.029,1.098-0.094,2.068-0.183c31.126-2.856,37.094-1.42,38.906,0.557c6.859,7.482-1.459,28.185-2.429,30.521
					C224.034,343.939,223.276,344.411,222.478,344.411z"/>
			</g>
		</g>
	</g>
</g>
<g id="Table">
	<g>
		
			<rect x="240.427" y="305.036" style="fill:#0F4C81;stroke:#263238;stroke-linecap:round;stroke-linejoin:round;stroke-miterlimit:10;" width="160.303" height="11.233"/>
		
			<rect x="270.702" y="300.508" style="fill:#FFFFFF;stroke:#263238;stroke-linecap:round;stroke-linejoin:round;stroke-miterlimit:10;" width="34.899" height="7.599"/>
		
			<rect x="338.39" y="293.332" style="fill:#FFFFFF;stroke:#263238;stroke-linecap:round;stroke-linejoin:round;stroke-miterlimit:10;" width="34.899" height="5.629"/>
		
			<rect x="339.797" y="287.703" style="fill:#FFFFFF;stroke:#263238;stroke-linecap:round;stroke-linejoin:round;stroke-miterlimit:10;" width="34.899" height="5.629"/>
		
			<rect x="340.501" y="298.82" style="fill:#FFFFFF;stroke:#263238;stroke-linecap:round;stroke-linejoin:round;stroke-miterlimit:10;" width="34.899" height="9.288"/>
		
			<rect x="240.427" y="305.293" style="fill:#263238;stroke:#263238;stroke-linecap:round;stroke-linejoin:round;stroke-miterlimit:10;" width="160.303" height="5.347"/>
		<path style="fill:#0F4C81;stroke:#263238;stroke-linecap:round;stroke-linejoin:round;stroke-miterlimit:10;" d="M241.307,409.668
			L241.307,409.668c-0.613,0-1.111-0.494-1.115-1.107l-0.73-103.268h3.69l-0.73,103.268
			C242.418,409.174,241.92,409.668,241.307,409.668z"/>
		<path style="fill:#0F4C81;stroke:#263238;stroke-linecap:round;stroke-linejoin:round;stroke-miterlimit:10;" d="M399.76,409.668
			L399.76,409.668c-0.613,0-1.111-0.494-1.115-1.107l-0.73-103.268h3.69l-0.73,103.268
			C400.871,409.174,400.373,409.668,399.76,409.668z"/>
		<g>
			<g>
				<path style="fill:#FFFFFF;stroke:#263238;stroke-linecap:round;stroke-linejoin:round;stroke-miterlimit:10;" d="
					M327.102,303.447h-17.278c-0.69,0-1.25-0.56-1.25-1.25c0-0.69,0.56-1.25,1.25-1.25h17.278c0.83,0,1.628-0.353,2.186-0.967
					c0.688-0.757,0.935-1.797,0.659-2.781l-6.13-21.966c-0.186-0.665,0.203-1.354,0.868-1.54c0.662-0.187,1.355,0.203,1.54,0.868
					l6.13,21.966c0.507,1.818,0.052,3.737-1.218,5.135C330.105,302.797,328.635,303.447,327.102,303.447z"/>
			</g>
			<g>
				
					<rect x="318.001" y="245.929" transform="matrix(0.9929 0.119 -0.119 0.9929 34.5792 -36.1564)" style="fill:#FFFFFF;stroke:#263238;stroke-linecap:round;stroke-linejoin:round;stroke-miterlimit:10;" width="3.94" height="50.941"/>
				<path style="fill:#263238;stroke:#263238;stroke-linecap:round;stroke-linejoin:round;stroke-miterlimit:10;" d="
					M324.959,246.345c0,0,6.948,24.798-6.065,50.579L324.959,246.345z"/>
			</g>
		</g>
		<g>
			<g>
				<path style="fill:#FFFFFF;stroke:#263238;stroke-linecap:round;stroke-linejoin:round;stroke-miterlimit:10;" d="
					M291.932,300.526c-0.664,0-1.378-0.182-2.077-0.545c-1.509-0.785-3.195-2.613-2.981-5.185c0.092-1.108,0.568-2.001,1.379-2.581
					c1.729-1.236,4.35-0.633,4.644-0.558c0.536,0.134,0.862,0.677,0.727,1.212c-0.134,0.536-0.679,0.856-1.211,0.728
					c-0.516-0.126-2.171-0.35-2.999,0.245c-0.207,0.149-0.49,0.428-0.548,1.119c-0.132,1.592,0.947,2.742,1.911,3.244
					c0.719,0.375,1.443,0.426,1.8,0.126c0.427-0.354,1.056-0.296,1.409,0.128c0.354,0.425,0.296,1.056-0.128,1.409
					C293.335,300.306,292.664,300.526,291.932,300.526z"/>
			</g>
			<path style="fill:#FFFFFF;stroke:#263238;stroke-linecap:round;stroke-linejoin:round;stroke-miterlimit:10;" d="
				M301.099,302.239c-1.301,1.077-5.455,1.077-6.755,0c-2.325-1.925-2.252-11.862-2.252-11.862h11.259
				C303.351,290.376,303.424,300.314,301.099,302.239z"/>
		</g>
		
			<rect x="236.49" y="302.836" style="fill:#0F4C81;stroke:#263238;stroke-linecap:round;stroke-linejoin:round;stroke-miterlimit:10;" width="168.176" height="4.657"/>
	</g>
</g>
<g id="Ground">
	<rect x="68.167" y="408.891" style="fill:#263238;" width="369.525" height="6.692"/>
</g>
</svg>
